SplineFontDB: 3.0
FontName: Vemana2000
FullName: Vemana2000
FamilyName: Vemana2000
Weight: Book
Copyright: Copyright (c) 2005 K.Desikachary , GNU GPL V.2 or later (with Font Exception)
Version: 1.1.2
ItalicAngle: 0
UnderlinePosition: -1070
UnderlineWidth: 60
Ascent: 1000
Descent: 250
sfntRevision: 0x00011999
LayerCount: 2
Layer: 0 1 "Back"  1
Layer: 1 1 "Fore"  0
NeedsXUIDChange: 1
XUID: [1021 252 2008268231 4424136]
FSType: 0
OS2Version: 2
OS2_WeightWidthSlopeOnly: 0
OS2_UseTypoMetrics: 1
CreationTime: 974638961
ModificationTime: 1297415038
PfmFamily: 81
TTFWeight: 400
TTFWidth: 5
LineGap: 0
VLineGap: 0
Panose: 0 0 4 0 0 0 0 0 0 0
OS2TypoAscent: 100
OS2TypoAOffset: 1
OS2TypoDescent: -800
OS2TypoDOffset: 1
OS2TypoLinegap: 0
OS2WinAscent: -111
OS2WinAOffset: 1
OS2WinDescent: -23
OS2WinDOffset: 1
HheadAscent: -111
HheadAOffset: 1
HheadDescent: 23
HheadDOffset: 1
OS2SubXSize: 875
OS2SubYSize: 812
OS2SubXOff: 0
OS2SubYOff: 179
OS2SupXSize: 875
OS2SupYSize: 812
OS2SupXOff: 0
OS2SupYOff: 600
OS2StrikeYSize: 62
OS2StrikeYPos: 323
OS2Vendor: '    '
OS2CodePages: 00000000.00000000
OS2UnicodeRanges: 00200000.00000000.00000000.00000000
Lookup: 4 0 0 "'akhn' Akhand in Telugu lookup 0"  {"'akhn' Akhand in Telugu lookup 0 subtable"  } ['akhn' ('telu' <'dflt' > ) ]
Lookup: 4 0 0 "'blwf' Below Base Forms in Telugu lookup 1"  {"'blwf' Below Base Forms in Telugu lookup 1 subtable"  } ['blwf' ('telu' <'dflt' > ) ]
Lookup: 4 0 0 "'blws' Below Base Substitutions in Telugu lookup 2"  {"'blws' Below Base Substitutions in Telugu lookup 2 subtable"  } ['blws' ('telu' <'dflt' > ) ]
Lookup: 6 0 0 "'blws' Below Base Substitutions in Telugu lookup 3"  {"'blws' Below Base Substitutions in Telugu lookup 3 subtable"  } ['blws' ('telu' <'dflt' > ) ]
Lookup: 6 0 0 "'blws' Below Base Substitutions in Telugu lookup 4"  {"'blws' Below Base Substitutions in Telugu lookup 4 subtable"  } ['blws' ('telu' <'dflt' > ) ]

StartChar: .notdef
Encoding: 65536 -1 0
Width: 772
GlyphClass: 2
Flags: W
LayerCount: 2
Fore
SplineSet
730 494 m 1,0,-1
 668 449 l 1,1,2
 638 500 638 500 589 531 c 1,3,-1
 632 595 l 1,4,5
 693 555 693 555 730 494 c 1,0,-1
528 642 m 1,6,-1
 516 566 l 1,7,8
 489 572 489 572 461 572 c 0,9,10
 431 572 431 572 404 566 c 1,11,-1
 392 642 l 1,12,13
 427 651 427 651 460 651 c 0,14,15
 494 651 494 651 528 642 c 1,6,-1
772 325 m 0,16,17
 772 291 772 291 764 254 c 1,18,-1
 691 267 l 1,19,20
 697 295 697 295 697 325 c 256,21,22
 697 355 697 355 691 383 c 1,23,-1
 764 397 l 1,24,25
 772 360 772 360 772 325 c 0,16,17
730 157 m 1,26,27
 692 95 692 95 632 56 c 1,28,-1
 589 120 l 1,29,30
 638 151 638 151 668 202 c 1,31,-1
 730 157 l 1,26,27
331 531 m 1,32,33
 282 500 282 500 253 449 c 1,34,-1
 191 494 l 1,35,36
 228 555 228 555 288 595 c 1,37,-1
 331 531 l 1,32,33
230 267 m 1,38,-1
 155 254 l 1,39,40
 148 288 148 288 148 325 c 256,41,42
 148 362 148 362 155 397 c 1,43,-1
 230 383 l 1,44,45
 223 355 223 355 223 325 c 256,46,47
 223 295 223 295 230 267 c 1,38,-1
528 8 m 1,48,49
 494 0 494 0 460 0 c 0,50,51
 427 0 427 0 392 8 c 1,52,-1
 404 85 l 1,53,54
 431 78 431 78 461 78 c 0,55,56
 489 78 489 78 516 85 c 1,57,-1
 528 8 l 1,48,49
331 120 m 1,58,-1
 288 56 l 1,59,60
 228 95 228 95 191 157 c 1,61,-1
 253 202 l 1,62,63
 282 151 282 151 331 120 c 1,58,-1
EndSplineSet
EndChar

StartChar: exclam
Encoding: 33 33 4
Width: 260
GlyphClass: 2
Flags: W
LayerCount: 2
Fore
SplineSet
234 332 m 0,0,1
 234 -6 234 -6 187 -6 c 0,2,3
 141 -6 141 -6 141 118 c 0,4,5
 141 231 141 231 137.5 457.5 c 128,-1,6
 134 684 134 684 134 797 c 0,7,8
 134 832 134 832 150 844.5 c 128,-1,9
 166 857 166 857 203 857 c 0,10,11
 249 857 249 857 249 784 c 0,12,13
 249 709 249 709 241.5 558.5 c 128,-1,14
 234 408 234 408 234 332 c 0,0,1
196 -229 m 0,15,16
 130 -229 130 -229 130 -150 c 0,17,18
 130 -59 130 -59 198 -59 c 0,19,20
 259 -59 259 -59 259 -150 c 0,21,22
 259 -181 259 -181 243 -203 c 1,23,24
 226 -229 226 -229 196 -229 c 0,15,16
EndSplineSet
EndChar

StartChar: quotedbl
Encoding: 34 34 5
Width: 403
GlyphClass: 2
Flags: W
LayerCount: 2
Fore
SplineSet
393 636 m 0,0,1
 393 628 393 628 400 561 c 1,2,3
 366 567 366 567 364 567 c 0,4,5
 361 567 361 567 320 551 c 1,6,7
 318 632 318 632 316 714 c 1,8,9
 311 808 311 808 291 874 c 1,10,11
 344 854 344 854 347 854 c 0,12,13
 351 854 351 854 360 856.5 c 128,-1,14
 369 859 369 859 374 859 c 0,15,16
 405 859 405 859 405 839 c 0,17,18
 405 835 405 835 401.5 828 c 128,-1,19
 398 821 398 821 398 818 c 0,20,21
 393 767 393 767 393 636 c 0,0,1
242 640 m 0,22,23
 242 633 242 633 249 568 c 1,24,25
 216 570 216 570 214 570 c 0,26,27
 211 570 211 570 169 556 c 1,28,29
 167 637 167 637 166 718 c 1,30,31
 161 811 161 811 140 877 c 1,32,33
 196 859 196 859 195 859 c 1,34,35
 201 859 201 859 211.5 861.5 c 128,-1,36
 222 864 222 864 227 864 c 0,37,38
 252 864 252 864 252 840 c 0,39,40
 252 834 252 834 247 825 c 128,-1,41
 242 816 242 816 242 640 c 0,22,23
EndSplineSet
EndChar

StartChar: numbersign
Encoding: 35 35 6
Width: 741
GlyphClass: 2
Flags: W
LayerCount: 2
Fore
SplineSet
579 259 m 1,0,-1
 525 -10 l 1,1,-1
 431 -10 l 1,2,-1
 485 259 l 1,3,-1
 331 259 l 1,4,-1
 277 -10 l 1,5,-1
 181 -10 l 1,6,-1
 236 259 l 1,7,-1
 140 259 l 1,8,-1
 140 343 l 1,9,-1
 252 343 l 1,10,-1
 285 510 l 1,11,-1
 140 510 l 1,12,-1
 140 592 l 1,13,-1
 304 592 l 1,14,-1
 358 861 l 1,15,-1
 452 861 l 1,16,-1
 399 592 l 1,17,-1
 550 592 l 1,18,-1
 608 861 l 1,19,-1
 702 861 l 1,20,-1
 646 592 l 1,21,-1
 741 592 l 1,22,-1
 741 510 l 1,23,-1
 630 510 l 1,24,-1
 596 343 l 1,25,-1
 741 343 l 1,26,-1
 741 259 l 1,27,-1
 579 259 l 1,0,-1
381 510 m 1,28,-1
 348 343 l 1,29,-1
 500 343 l 1,30,-1
 535 510 l 1,31,-1
 381 510 l 1,28,-1
EndSplineSet
EndChar

StartChar: dollar
Encoding: 36 36 7
Width: 709
GlyphClass: 2
Flags: W
LayerCount: 2
Fore
SplineSet
644 449 m 0,0,1
 603 464 603 464 590 534 c 0,2,3
 569 646 569 646 566 654 c 0,4,5
 542 714 542 714 470 714 c 0,6,7
 401 714 401 714 359 646 c 0,8,9
 322 587 322 587 322 515 c 0,10,11
 322 417 322 417 419 328 c 1,12,13
 509 256 509 256 599 184 c 1,14,15
 696 100 696 100 696 15 c 0,16,17
 696 -133 696 -133 505 -186 c 1,18,19
 505 -217 505 -217 507.5 -265 c 128,-1,20
 510 -313 510 -313 510 -342 c 0,21,22
 510 -381 510 -381 502 -429 c 0,23,24
 490 -496 490 -496 470 -490 c 0,25,26
 380 -464 380 -464 380 -325 c 0,27,28
 380 -293 380 -293 385 -246 c 0,29,30
 391 -195 391 -195 391 -186 c 1,31,32
 321 -181 321 -181 245 -131 c 0,33,34
 160 -76 160 -76 160 -12 c 0,35,36
 160 30 160 30 204 30 c 0,37,38
 223 30 223 30 260 6 c 0,39,40
 311 -28 311 -28 337 -40 c 0,41,42
 392 -64 392 -64 456 -64 c 0,43,44
 583 -64 583 -64 583 14 c 0,45,46
 583 59 583 59 487 128 c 0,47,48
 352 226 352 226 309 274 c 0,49,50
 213 381 213 381 213 520 c 0,51,52
 213 630 213 630 259 707 c 0,53,54
 310 792 310 792 409 821 c 1,55,56
 409 839 409 839 408 878.5 c 128,-1,57
 407 918 407 918 407 938 c 0,58,59
 407 1109 407 1109 480 1146 c 1,60,61
 541 1136 541 1136 541 1003 c 0,62,63
 541 963 541 963 535 898 c 128,-1,64
 529 833 529 833 529 821 c 1,65,66
 610 805 610 805 657 733 c 1,67,68
 699 666 699 666 699 578 c 0,69,70
 699 563 699 563 698 548 c 0,71,72
 689 447 689 447 657 447 c 0,73,74
 651 447 651 447 644 449 c 0,0,1
EndSplineSet
EndChar

StartChar: percent
Encoding: 37 37 8
Width: 797
GlyphClass: 2
Flags: W
LayerCount: 2
Fore
SplineSet
340 448 m 0,0,1
 246 448 246 448 200 515 c 0,2,3
 160 573 160 573 160 671 c 0,4,5
 160 793 160 793 179 854 c 0,6,7
 209 948 209 948 289 948 c 0,8,9
 317 948 317 948 351 937 c 0,10,11
 405 919 405 919 430 814 c 0,12,13
 447 743 447 743 447 661 c 0,14,15
 447 448 447 448 340 448 c 0,0,1
291 -270 m 0,16,17
 264 -270 264 -270 247 -243 c 0,18,19
 232 -220 232 -220 232 -192 c 0,20,21
 232 -174 232 -174 399 299 c 0,22,23
 594 852 594 852 607.5 893 c 128,-1,24
 621 934 621 934 655 934 c 0,25,26
 707 934 707 934 707 877 c 0,27,28
 707 846 707 846 543 356.5 c 128,-1,29
 379 -133 379 -133 336 -233 c 0,30,31
 320 -270 320 -270 291 -270 c 0,16,17
680 -261 m 0,32,33
 587 -261 587 -261 540 -191 c 0,34,35
 500 -132 500 -132 500 -36 c 0,36,37
 500 89 500 89 519 148 c 0,38,39
 549 239 549 239 633 239 c 0,40,41
 660 239 660 239 692 230 c 0,42,43
 745 215 745 215 770 111 c 0,44,45
 787 40 787 40 787 -48 c 0,46,47
 787 -125 787 -125 768 -180 c 0,48,49
 741 -261 741 -261 680 -261 c 0,32,33
307 841 m 0,50,51
 271 841 271 841 271 691 c 256,52,53
 271 541 271 541 307 541 c 0,54,55
 349 541 349 541 349 689 c 0,56,57
 349 841 349 841 307 841 c 0,50,51
649 135 m 0,58,59
 612 135 612 135 612 -15 c 0,60,61
 612 -166 612 -166 649 -166 c 0,62,63
 689 -166 689 -166 689 -20 c 0,64,65
 689 135 689 135 649 135 c 0,58,59
EndSplineSet
EndChar

StartChar: ampersand
Encoding: 38 38 9
Width: 834
GlyphClass: 2
Flags: W
LayerCount: 2
Fore
SplineSet
709 34 m 1,0,1
 715 30 715 30 797 -8 c 0,2,3
 868 -40 868 -40 868 -53 c 0,4,5
 868 -86 868 -86 827 -97 c 1,6,7
 821 -95 821 -95 734 -76 c 0,8,9
 677 -63 677 -63 649 -37 c 1,10,11
 514 -176 514 -176 375 -176 c 0,12,13
 279 -176 279 -176 218 -108 c 0,14,15
 160 -43 160 -43 160 54 c 0,16,17
 160 138 160 138 205 231 c 0,18,19
 232 285 232 285 302 388 c 1,20,21
 248 486 248 486 248 622 c 0,22,23
 248 736 248 736 308 828 c 0,24,25
 377 932 377 932 485 932 c 0,26,27
 554 932 554 932 602 896 c 0,28,29
 655 856 655 856 655 789 c 0,30,31
 655 683 655 683 437 360 c 1,32,33
 515 222 515 222 627 102 c 1,34,35
 665 147 665 147 665 229 c 0,36,37
 665 246 665 246 663.5 279 c 128,-1,38
 662 312 662 312 662 329 c 0,39,40
 662 481 662 481 712 481 c 0,41,42
 735 481 735 481 760 388 c 0,43,44
 782 307 782 307 782 269 c 0,45,46
 782 148 782 148 709 34 c 1,0,1
512 827 m 0,47,48
 444 827 444 827 403 731 c 0,49,50
 370 654 370 654 370 574 c 0,51,52
 370 517 370 517 377 487 c 1,53,54
 541 744 541 744 541 795 c 0,55,56
 541 827 541 827 512 827 c 0,47,48
379 260 m 1,57,58
 278 92 278 92 278 12 c 0,59,60
 278 -63 278 -63 355 -63 c 0,61,62
 422 -63 422 -63 472 -37 c 1,63,64
 506 -18 506 -18 566 36 c 1,65,66
 500 103 500 103 379 260 c 1,57,58
EndSplineSet
EndChar

StartChar: quotesingle
Encoding: 39 39 10
Width: 210
GlyphClass: 2
Flags: W
LayerCount: 2
Fore
SplineSet
231 790 m 0,0,1
 231 782 231 782 238 715 c 1,2,3
 204 721 204 721 202 721 c 0,4,5
 199 721 199 721 158 705 c 1,6,7
 156 786 156 786 154 868 c 1,8,9
 149 962 149 962 129 1028 c 1,10,11
 182 1008 182 1008 185 1008 c 0,12,13
 189 1008 189 1008 198 1010.5 c 128,-1,14
 207 1013 207 1013 212 1013 c 0,15,16
 243 1013 243 1013 243 993 c 0,17,18
 243 962 243 962 237 893 c 128,-1,19
 231 824 231 824 231 790 c 0,0,1
EndSplineSet
EndChar

StartChar: parenleft
Encoding: 40 40 11
Width: 551
GlyphClass: 2
Flags: W
LayerCount: 2
Fore
SplineSet
400 -362 m 1,0,1
 160 21 160 21 160 406 c 0,2,3
 160 741 160 741 400 1138 c 1,4,-1
 531 1138 l 1,5,6
 395 924 395 924 347 789 c 0,7,8
 285 614 285 614 287 383 c 0,9,10
 291 -18 291 -18 539 -362 c 1,11,-1
 400 -362 l 1,0,1
EndSplineSet
EndChar

StartChar: parenright
Encoding: 41 41 12
Width: 553
GlyphClass: 2
Flags: W
LayerCount: 2
Fore
SplineSet
322 -362 m 1,0,1
 322 -362 322 -362 183 -362 c 1,2,3
 431 -18 431 -18 435 383 c 0,4,5
 437 613 437 613 375 789 c 0,6,7
 327 923 327 923 191 1138 c 1,8,-1
 322 1138 l 1,9,10
 562 741 562 741 562 406 c 0,11,12
 562 21 562 21 322 -362 c 1,0,1
EndSplineSet
EndChar

StartChar: asterisk
Encoding: 42 42 13
Width: 637
GlyphClass: 2
Flags: W
LayerCount: 2
Fore
SplineSet
573 363 m 0,0,1
 533 363 533 363 426 450 c 1,2,3
 452 336 452 336 452 305 c 0,4,5
 452 231 452 231 390 231 c 0,6,7
 325 231 325 231 325 305 c 0,8,9
 325 331 325 331 334 418 c 1,10,11
 252 321 252 321 213 321 c 0,12,13
 160 321 160 321 160 371 c 0,14,15
 160 407 160 407 296 527 c 1,16,17
 233 562 233 562 218 573 c 0,18,19
 169 609 169 609 169 643 c 0,20,21
 169 700 169 700 224 700 c 0,22,23
 256 700 256 700 343 639 c 1,24,25
 358 742 358 742 360 750 c 0,26,27
 382 828 382 828 430 828 c 0,28,29
 486 828 486 828 486 759 c 0,30,31
 486 728 486 728 461 637 c 1,32,33
 558 705 558 705 579 705 c 0,34,35
 626 705 626 705 626 665 c 0,36,37
 626 642 626 642 569 595 c 1,38,39
 529 566 529 566 490 537 c 1,40,41
 634 462 634 462 634 416 c 0,42,43
 634 363 634 363 573 363 c 0,0,1
EndSplineSet
EndChar

StartChar: plus
Encoding: 43 43 14
Width: 799
GlyphClass: 2
Flags: W
LayerCount: 2
Fore
SplineSet
539 273 m 1,0,-1
 539 -67 l 1,1,-1
 420 -67 l 1,2,-1
 420 273 l 1,3,-1
 160 273 l 1,4,-1
 160 394 l 1,5,-1
 420 394 l 1,6,-1
 420 694 l 1,7,-1
 539 694 l 1,8,-1
 539 394 l 1,9,-1
 798 394 l 1,10,-1
 798 273 l 1,11,-1
 539 273 l 1,0,-1
EndSplineSet
EndChar

StartChar: comma
Encoding: 44 44 15
Width: 267
GlyphClass: 2
Flags: W
LayerCount: 2
Fore
SplineSet
172 -249 m 1,0,1
 100 -221 100 -221 100 -188 c 0,2,3
 100 -184 100 -184 102 -180 c 0,4,5
 151 -60 151 -60 151 65 c 0,6,7
 151 88 151 88 143.5 133 c 128,-1,8
 136 178 136 178 136 201 c 0,9,10
 136 254 136 254 199 254 c 0,11,12
 259 254 259 254 259 174 c 0,13,14
 259 5 259 5 172 -249 c 1,0,1
EndSplineSet
EndChar

StartChar: hyphen
Encoding: 45 45 16
Width: 741
GlyphClass: 2
Flags: W
LayerCount: 2
Fore
SplineSet
228 251 m 2,0,1
 204 251 204 251 182 272 c 128,-1,2
 160 293 160 293 160 317 c 0,3,4
 160 345 160 345 191 345 c 2,5,-1
 642 344 l 2,6,7
 667 344 667 344 696 309 c 0,8,9
 719 281 719 281 729 252 c 1,10,-1
 228 251 l 2,0,1
EndSplineSet
EndChar

StartChar: period
Encoding: 46 46 17
Width: 294
GlyphClass: 2
Flags: W
LayerCount: 2
Fore
SplineSet
238 218 m 0,0,1
 264 216 264 216 278 191 c 0,2,3
 289 171 289 171 289 147 c 0,4,5
 289 127 289 127 269 109.5 c 128,-1,6
 249 92 249 92 228 94 c 0,7,8
 202 97 202 97 181 115 c 128,-1,9
 160 133 160 133 160 158 c 0,10,11
 160 185 160 185 181 203 c 128,-1,12
 202 221 202 221 238 218 c 0,0,1
EndSplineSet
EndChar

StartChar: slash
Encoding: 47 47 18
Width: 539
GlyphClass: 2
Flags: W
LayerCount: 2
Fore
SplineSet
253 -50 m 1,0,-1
 160 -52 l 1,1,2
 238 219 238 219 486 745 c 0,3,4
 503 781 503 781 521 781 c 0,5,6
 530 781 530 781 546 761 c 0,7,8
 564 738 564 738 568 736 c 1,9,10
 477 519 477 519 253 -50 c 1,0,-1
EndSplineSet
EndChar

StartChar: zero
Encoding: 48 48 19
Width: 609
GlyphClass: 2
Flags: W
LayerCount: 2
Fore
SplineSet
596 273 m 0,0,1
 582 137 582 137 510 63 c 0,2,3
 447 -1 447 -1 362 -1 c 0,4,5
 279 -1 279 -1 227 59 c 0,6,7
 160 136 160 136 160 331 c 0,8,9
 160 448 160 448 186 550 c 0,10,11
 212 656 212 656 252 689 c 0,12,13
 282 714 282 714 312 740 c 1,14,15
 358 771 358 771 402 771 c 0,16,17
 464 771 464 771 529 708 c 0,18,19
 603 635 603 635 603 407 c 0,20,21
 603 343 603 343 596 273 c 0,0,1
393 627 m 0,23,24
 363 627 363 627 335 601 c 0,25,26
 315 582 315 582 294 499 c 0,27,28
 271 410 271 410 271 332 c 0,29,30
 271 299 271 299 276 273 c 0,31,32
 296 153 296 153 378 147 c 0,33,34
 486 139 486 139 486 394 c 0,35,36
 486 537 486 537 464 582 c 128,-1,22
 442 627 442 627 393 627 c 0,23,24
EndSplineSet
EndChar

StartChar: one
Encoding: 49 49 20
Width: 323
GlyphClass: 2
Flags: W
LayerCount: 2
Fore
SplineSet
305 774 m 1,0,1
 295 711 295 711 295 563 c 0,2,3
 295 340 295 340 316 0 c 1,4,-1
 171 0 l 1,5,6
 178 102 178 102 178 227 c 0,7,8
 178 489 178 489 150 774 c 1,9,10
 191 768 191 768 305 774 c 1,0,1
EndSplineSet
EndChar

StartChar: two
Encoding: 50 50 21
Width: 659
GlyphClass: 2
Flags: W
LayerCount: 2
Fore
SplineSet
664 142 m 1,0,-1
 642 0 l 1,1,2
 642 0 642 0 160 0 c 1,3,-1
 162 112 l 1,4,5
 316 312 316 312 512 580 c 1,6,7
 514 588 514 588 514 595 c 0,8,9
 514 641 514 641 418 641 c 0,10,11
 364 641 364 641 268 625 c 0,12,13
 186 611 186 611 184 613 c 0,14,15
 176 621 176 621 176 637 c 0,16,17
 176 671 176 671 206 731 c 1,18,19
 256 744 256 744 306 758 c 1,20,21
 361 771 361 771 407 771 c 0,22,23
 481 771 481 771 567 736 c 0,24,25
 629 710 629 710 629 596 c 0,26,27
 629 558 629 558 622 534 c 1,28,29
 619 528 619 528 479 327 c 0,30,31
 347 137 347 137 356 129 c 1,32,33
 413 119 413 119 474 119 c 0,34,35
 575 119 575 119 664 142 c 1,0,-1
EndSplineSet
EndChar

StartChar: three
Encoding: 51 51 22
Width: 616
GlyphClass: 2
Flags: W
LayerCount: 2
Fore
SplineSet
616 258 m 0,0,1
 611 106 611 106 460 40 c 0,2,3
 360 -3 360 -3 219 -3 c 0,4,5
 178 -3 178 -3 160 0 c 1,6,-1
 187 125 l 1,7,8
 413 118 413 118 439 255 c 0,9,10
 441 267 441 267 441 279 c 0,11,12
 441 334 441 334 390 373 c 0,13,14
 359 397 359 397 296 422 c 0,15,16
 248 441 248 441 251 447 c 0,17,18
 268 475 268 475 336 515 c 1,19,20
 398 553 398 553 411 585 c 0,21,22
 419 606 419 606 419 623 c 0,23,24
 419 674 419 674 341 674 c 0,25,26
 248 674 248 674 176 634 c 1,27,28
 167 659 167 659 176 733 c 1,29,30
 272 807 272 807 356 807 c 0,31,32
 420 807 420 807 488 772 c 0,33,34
 553 739 553 739 553 677 c 0,35,36
 553 626 553 626 512 564 c 0,37,38
 481 517 481 517 448 490 c 1,39,40
 488 466 488 466 529 442 c 0,41,42
 574 415 574 415 594 380 c 0,43,44
 619 335 619 335 616 258 c 0,0,1
EndSplineSet
EndChar

StartChar: four
Encoding: 52 52 23
Width: 788
GlyphClass: 2
Flags: W
LayerCount: 2
Fore
SplineSet
775 215 m 1,0,1
 775 161 775 161 759 97 c 1,2,3
 746 93 746 93 683 95 c 0,4,5
 613 97 613 97 593 94 c 1,6,7
 593 94 593 94 537 -91 c 1,8,9
 523 -98 523 -98 420 -108 c 0,10,11
 417 -108 417 -108 417 -102 c 0,12,13
 417 -87 417 -87 440.5 -9.5 c 128,-1,14
 464 68 464 68 464 83 c 0,15,16
 464 90 464 90 461 90 c 0,17,18
 434 90 434 90 372 87.5 c 128,-1,19
 310 85 310 85 281 85 c 0,20,21
 196 85 196 85 176 101 c 0,22,23
 160 114 160 114 160 164 c 0,24,25
 160 263 160 263 221 500 c 0,26,27
 259 646 259 646 279 707 c 1,28,-1
 400 768 l 1,29,30
 404 715 404 715 352 488 c 0,31,32
 299 255 299 255 299 222 c 0,33,34
 299 208 299 208 303 207 c 0,35,36
 325 204 325 204 355 204 c 0,37,38
 430 204 430 204 497 215 c 1,39,40
 536 382 536 382 581 578 c 1,41,42
 580 597 580 597 603 609 c 128,-1,43
 626 621 626 621 658 621 c 0,44,45
 702 621 702 621 723 601 c 1,46,47
 726 570 726 570 618 219 c 1,48,49
 619 219 619 219 692 216 c 0,50,51
 751 213 751 213 775 215 c 1,0,1
EndSplineSet
EndChar

StartChar: five
Encoding: 53 53 24
Width: 650
GlyphClass: 2
Flags: W
LayerCount: 2
Fore
SplineSet
641 199 m 0,0,1
 577 -10 577 -10 278 -10 c 0,2,3
 209 -10 209 -10 160 0 c 1,4,-1
 184 127 l 1,5,6
 275 84 275 84 349 84 c 0,7,8
 481 84 481 84 481 235 c 0,9,10
 481 347 481 347 349 347 c 0,11,12
 306 347 306 347 245.5 334 c 128,-1,13
 185 321 185 321 184 321 c 0,14,15
 180 321 180 321 182 323 c 1,16,17
 186 363 186 363 188 548 c 0,18,19
 190 735 190 735 184 739 c 1,20,21
 190 745 190 745 224 745 c 0,22,23
 262 745 262 745 390 735 c 0,24,25
 543 724 543 724 624 720 c 1,26,27
 657 711 657 711 657 641 c 0,28,29
 657 581 657 581 650 584 c 0,30,31
 649 584 649 584 578 589 c 0,32,33
 490 594 490 594 428 594 c 0,34,35
 389 594 389 594 361 592 c 1,36,37
 310 595 310 595 310 527 c 0,38,39
 310 501 310 501 318 456 c 1,40,41
 451 458 451 458 545 409 c 1,42,43
 650 353 650 353 650 257 c 0,44,45
 650 229 650 229 641 199 c 0,0,1
EndSplineSet
EndChar

StartChar: six
Encoding: 54 54 25
Width: 649
GlyphClass: 2
Flags: W
LayerCount: 2
Fore
SplineSet
627 313 m 0,0,1
 646 249 646 249 646 199 c 0,2,3
 646 105 646 105 577 39 c 0,4,5
 524 -13 524 -13 441 -13 c 0,6,7
 341 -13 341 -13 287 42 c 0,8,9
 160 171 160 171 160 358 c 0,10,11
 160 385 160 385 163 412 c 0,12,13
 186 606 186 606 310 708 c 0,14,15
 405 787 405 787 517 787 c 0,16,17
 553 787 553 787 575 777 c 1,18,19
 585 767 585 767 585 758 c 0,20,21
 585 739 585 739 511 691 c 0,22,23
 417 630 417 630 372 576 c 0,24,25
 297 485 297 485 294 363 c 1,26,27
 354 427 354 427 443 427 c 0,28,29
 507 427 507 427 560 394.5 c 128,-1,30
 613 362 613 362 627 313 c 0,0,1
533 235 m 0,31,32
 519 320 519 320 453 329 c 0,33,34
 445 330 445 330 438 330 c 0,35,36
 363 330 363 330 363 228 c 0,37,38
 363 215 363 215 364 202 c 0,39,40
 375 111 375 111 460 111 c 0,41,42
 492 111 492 111 513.5 141 c 128,-1,43
 535 171 535 171 535 212 c 0,44,45
 535 224 535 224 533 235 c 0,31,32
EndSplineSet
EndChar

StartChar: seven
Encoding: 55 55 26
Width: 667
GlyphClass: 2
Flags: W
LayerCount: 2
Fore
SplineSet
662 735 m 1,0,1
 610 540 610 540 577 435 c 0,2,3
 514 230 514 230 423 0 c 1,4,5
 308 -12 308 -12 277 13 c 1,6,7
 443 320 443 320 528 632 c 1,8,9
 414 627 414 627 376 623 c 0,10,11
 282 614 282 614 189 587 c 1,12,13
 163 659 163 659 160 713 c 1,14,15
 326 752 326 752 493 752 c 0,16,17
 591 752 591 752 662 735 c 1,0,1
EndSplineSet
EndChar

StartChar: eight
Encoding: 56 56 27
Width: 605
GlyphClass: 2
Flags: W
LayerCount: 2
Fore
SplineSet
600 237 m 0,0,1
 606 108 606 108 489 3 c 0,2,3
 447 -35 447 -35 384 -35 c 0,4,5
 286 -35 286 -35 236 26 c 0,6,7
 204 65 204 65 194.5 86.5 c 128,-1,8
 185 108 185 108 179 156 c 0,9,10
 172 213 172 213 218 275 c 0,11,12
 244 310 244 310 271 345 c 1,13,14
 274 354 274 354 223 406 c 1,15,16
 166 462 166 462 161 509 c 0,17,18
 160 523 160 523 160 537 c 0,19,20
 160 628 160 628 209 693 c 0,21,22
 263 766 263 766 356 774 c 0,23,24
 531 788 531 788 562 582 c 0,25,26
 564 570 564 570 564 559 c 0,27,28
 564 512 564 512 529 464.5 c 128,-1,29
 494 417 494 417 495 408 c 0,30,31
 496 396 496 396 547 344.5 c 128,-1,32
 598 293 598 293 600 237 c 0,0,1
443 562 m 0,33,34
 443 597 443 597 426 625 c 0,35,36
 407 658 407 658 374 659 c 0,37,38
 334 660 334 660 309.5 624.5 c 128,-1,39
 285 589 285 589 288 540 c 0,40,41
 290 517 290 517 314 489 c 0,42,43
 342 457 342 457 372 457 c 256,44,45
 402 457 402 457 422.5 487.5 c 128,-1,46
 443 518 443 518 443 562 c 0,33,34
467 242 m 0,47,48
 467 277 467 277 450 305 c 0,49,50
 431 338 431 338 399 339 c 1,51,52
 359 339 359 339 326.5 291 c 128,-1,53
 294 243 294 243 297 193 c 0,54,55
 299 169 299 169 316 145 c 0,56,57
 338 114 338 114 370 114 c 0,58,59
 410 114 410 114 440 159 c 0,60,61
 467 200 467 200 467 242 c 0,47,48
EndSplineSet
EndChar

StartChar: nine
Encoding: 57 57 28
Width: 649
GlyphClass: 2
Flags: W
LayerCount: 2
Fore
SplineSet
178 461 m 0,0,1
 160 525 160 525 160 576 c 0,2,3
 160 669 160 669 228 735 c 0,4,5
 281 787 281 787 365 787 c 0,6,7
 465 787 465 787 518 732 c 1,8,9
 646 603 646 603 646 416 c 0,10,11
 646 389 646 389 642 362 c 0,12,13
 620 168 620 168 496 66 c 0,14,15
 400 -13 400 -13 288 -13 c 0,16,17
 253 -13 253 -13 230 -3 c 1,18,19
 228 5 228 5 228 12 c 0,20,21
 228 48 228 48 300 94 c 0,22,23
 399 158 399 158 435 199 c 0,24,25
 509 283 509 283 511 411 c 1,26,27
 452 348 452 348 362 348 c 0,28,29
 298 348 298 348 245 380 c 128,-1,30
 192 412 192 412 178 461 c 0,0,1
273 540 m 0,31,32
 287 455 287 455 352 445 c 0,33,34
 360 444 360 444 367 444 c 0,35,36
 443 444 443 444 443 546 c 0,37,38
 443 559 443 559 441 572 c 0,39,40
 431 663 431 663 345 663 c 0,41,42
 313 663 313 663 292 633 c 128,-1,43
 271 603 271 603 271 562 c 0,44,45
 271 551 271 551 273 540 c 0,31,32
EndSplineSet
EndChar

StartChar: colon
Encoding: 58 58 29
Width: 267
GlyphClass: 2
Flags: W
LayerCount: 2
Fore
SplineSet
199 341 m 0,0,1
 179 341 179 341 156.5 358.5 c 128,-1,2
 134 376 134 376 131 395 c 0,3,4
 127 414 127 414 137 434 c 128,-1,5
 147 454 147 454 162 463 c 0,6,7
 181 474 181 474 200 474 c 0,8,9
 225 474 225 474 241.5 454 c 128,-1,10
 258 434 258 434 258 401 c 0,11,12
 258 379 258 379 239 360 c 128,-1,13
 220 341 220 341 199 341 c 0,0,1
207 79 m 0,14,15
 183 79 183 79 161 94.5 c 128,-1,16
 139 110 139 110 134 134 c 0,17,18
 130 152 130 152 139.5 173 c 128,-1,19
 149 194 149 194 163 201 c 0,20,21
 186 213 186 213 206 213 c 0,22,23
 259 213 259 213 259 141 c 0,24,25
 259 122 259 122 242 100.5 c 128,-1,26
 225 79 225 79 207 79 c 0,14,15
EndSplineSet
EndChar

StartChar: semicolon
Encoding: 59 59 30
Width: 264
GlyphClass: 2
Flags: W
LayerCount: 2
Fore
SplineSet
195 336 m 0,0,1
 139 336 139 336 139 402 c 0,2,3
 139 423 139 423 153.5 442 c 128,-1,4
 168 461 168 461 189 461 c 0,5,6
 246 461 246 461 246 405 c 0,7,8
 246 380 246 380 233 360 c 0,9,10
 218 336 218 336 195 336 c 0,0,1
246 173 m 0,11,12
 233 75 233 75 181 -61 c 1,13,14
 130 -41 130 -41 130 -25 c 0,15,16
 130 -23 130 -23 131 -20 c 0,17,18
 156 43 156 43 156 124 c 0,19,20
 156 138 156 138 152 171 c 0,21,22
 149 201 149 201 150 236 c 0,23,24
 151 278 151 278 200 278 c 0,25,26
 248 278 248 278 248 203 c 0,27,28
 248 188 248 188 246 173 c 0,11,12
EndSplineSet
EndChar

StartChar: less
Encoding: 60 60 31
Width: 838
GlyphClass: 2
Flags: W
LayerCount: 2
Fore
SplineSet
160 285 m 1,0,-1
 160 335 l 1,1,-1
 838 640 l 1,2,-1
 838 544 l 1,3,-1
 315 307 l 1,4,-1
 838 75 l 1,5,-1
 838 -18 l 1,6,-1
 160 285 l 1,0,-1
EndSplineSet
EndChar

StartChar: equal
Encoding: 61 61 32
Width: 602
GlyphClass: 2
Flags: W
LayerCount: 2
Fore
SplineSet
216 386 m 2,0,1
 195 386 195 386 179 401.5 c 128,-1,2
 163 417 163 417 163 438 c 0,3,4
 163 466 163 466 207 466 c 2,5,-1
 460 466 l 2,6,7
 600 466 600 466 598 417 c 0,8,9
 597 384 597 384 439 384 c 0,10,11
 413 384 413 384 379.5 385 c 128,-1,12
 346 386 346 386 345 386 c 2,13,-1
 216 386 l 2,0,1
214 173 m 0,14,15
 194 173 194 173 177 189 c 128,-1,16
 160 205 160 205 160 225 c 0,17,18
 160 254 160 254 204 254 c 2,19,-1
 478 254 l 2,20,21
 600 254 600 254 598 207 c 0,22,23
 596 172 596 172 440 172 c 0,24,25
 404 172 404 172 327 172 c 1,26,27
 258 173 258 173 214 173 c 0,14,15
EndSplineSet
EndChar

StartChar: greater
Encoding: 62 62 33
Width: 838
GlyphClass: 2
Flags: W
LayerCount: 2
Fore
SplineSet
160 -18 m 1,0,-1
 160 75 l 1,1,-1
 683 307 l 1,2,-1
 160 544 l 1,3,-1
 160 640 l 1,4,-1
 838 335 l 1,5,-1
 838 285 l 1,6,-1
 160 -18 l 1,0,-1
EndSplineSet
EndChar

StartChar: question
Encoding: 63 63 34
Width: 662
GlyphClass: 2
Flags: W
LayerCount: 2
Fore
SplineSet
282 160 m 1,0,1
 303 148 303 148 324 136 c 0,2,3
 352 120 352 120 348 110 c 0,4,5
 335 74 335 74 288 74 c 0,6,7
 254 74 254 74 221 99.5 c 128,-1,8
 188 125 188 125 188 158 c 0,9,10
 188 215 188 215 284 292 c 1,11,12
 373 359 373 359 462 426 c 1,13,14
 557 508 557 508 557 579 c 0,15,16
 557 619 557 619 528 642 c 128,-1,17
 499 665 499 665 458 665 c 0,18,19
 385 665 385 665 317 593 c 128,-1,20
 249 521 249 521 243 446 c 0,21,22
 241 412 241 412 247 382 c 0,23,24
 250 367 250 367 240 351 c 0,25,26
 228 332 228 332 203 332 c 0,27,28
 140 332 140 332 140 420 c 0,29,30
 140 546 140 546 230.5 643 c 128,-1,31
 321 740 321 740 446 740 c 0,32,33
 534 740 534 740 585 700 c 0,34,35
 642 656 642 656 642 571 c 0,36,37
 642 477 642 477 550 390 c 0,38,39
 516 359 516 359 377 263 c 0,40,41
 283 198 283 198 282 160 c 1,0,1
275 -103 m 0,42,43
 208 -103 208 -103 208 -18 c 0,44,45
 208 41 208 41 273 41 c 0,46,47
 349 41 349 41 349 -23 c 0,48,49
 349 -54 349 -54 332 -76 c 0,50,51
 312 -103 312 -103 275 -103 c 0,42,43
EndSplineSet
EndChar

StartChar: at
Encoding: 64 64 35
Width: 880
GlyphClass: 2
Flags: W
LayerCount: 2
Fore
SplineSet
525 -10 m 0,0,1
 361 -10 361 -10 260.5 89 c 128,-1,2
 160 188 160 188 160 352 c 0,3,4
 160 504 160 504 268 632 c 0,5,6
 381 766 381 766 532 766 c 0,7,8
 665 766 665 766 754.5 683 c 128,-1,9
 844 600 844 600 844 467 c 0,10,11
 844 376 844 376 771.5 273 c 128,-1,12
 699 170 699 170 636 170 c 0,13,14
 625 170 625 170 615 174 c 0,15,16
 577 191 577 191 568 202 c 0,17,18
 551 224 551 224 534 245 c 1,19,20
 528 216 528 216 487 194 c 0,21,22
 451 174 451 174 417 174 c 0,23,24
 372 174 372 174 347 207 c 0,25,26
 325 236 325 236 325 282 c 0,27,28
 325 372 325 372 395 469 c 0,29,30
 469 572 469 572 556 572 c 0,31,32
 618 572 618 572 614 559 c 1,33,-1
 720 573 l 1,34,35
 695 500 695 500 669 427 c 1,36,37
 635 320 635 320 635 267 c 0,38,39
 635 249 635 249 639 237 c 1,40,41
 702 237 702 237 744 327 c 0,42,43
 778 402 778 402 778 474 c 0,44,45
 778 568 778 568 713 634.5 c 128,-1,46
 648 701 648 701 553 701 c 0,47,48
 423 701 423 701 339 582 c 0,49,50
 264 476 264 476 264 341 c 0,51,52
 264 216 264 216 324 140 c 0,53,54
 390 57 390 57 514 57 c 0,55,56
 634 57 634 57 699 115 c 0,57,58
 758 168 758 168 792 291 c 1,59,-1
 880 259 l 1,60,61
 840 132 840 132 749 62 c 0,62,63
 655 -10 655 -10 525 -10 c 0,0,1
550 492 m 0,64,65
 505 492 505 492 465 413 c 0,66,67
 430 344 430 344 430 293 c 0,68,69
 430 256 430 256 447 256 c 0,70,71
 467 256 467 256 500 290 c 0,72,73
 528 318 528 318 542 341 c 0,74,75
 580 405 580 405 580 456 c 0,76,77
 580 492 580 492 550 492 c 0,64,65
EndSplineSet
EndChar

StartChar: bracketleft
Encoding: 91 91 36
Width: 412
GlyphClass: 2
Flags: W
LayerCount: 2
Fore
SplineSet
140 -50 m 1,0,-1
 140 952 l 1,1,-1
 407 952 l 1,2,-1
 407 873 l 1,3,-1
 222 873 l 1,4,-1
 222 30 l 1,5,-1
 412 30 l 1,6,-1
 412 -50 l 1,7,-1
 140 -50 l 1,0,-1
EndSplineSet
EndChar

StartChar: backslash
Encoding: 92 92 37
Width: 590
GlyphClass: 2
Flags: W
LayerCount: 2
Fore
SplineSet
519 0 m 1,0,-1
 140 750 l 1,1,-1
 214 800 l 1,2,-1
 590 50 l 1,3,-1
 519 0 l 1,0,-1
EndSplineSet
EndChar

StartChar: bracketright
Encoding: 93 93 38
Width: 412
GlyphClass: 2
Flags: W
LayerCount: 2
Fore
SplineSet
140 -50 m 1,0,-1
 140 30 l 1,1,-1
 330 30 l 1,2,-1
 330 873 l 1,3,-1
 145 873 l 1,4,-1
 145 952 l 1,5,-1
 412 952 l 1,6,-1
 412 -50 l 1,7,-1
 140 -50 l 1,0,-1
EndSplineSet
EndChar

StartChar: asciicircum
Encoding: 94 94 39
Width: 914
GlyphClass: 2
Flags: W
LayerCount: 2
Fore
SplineSet
817 500 m 1,0,-1
 527 983 l 1,1,-1
 238 500 l 1,2,-1
 140 500 l 1,3,-1
 511 1116 l 1,4,-1
 548 1116 l 1,5,-1
 914 500 l 1,6,-1
 817 500 l 1,0,-1
EndSplineSet
EndChar

StartChar: underscore
Encoding: 95 95 40
Width: 1060
GlyphClass: 2
Flags: W
LayerCount: 2
Fore
SplineSet
150 -635 m 1,0,-1
 150 -550 l 1,1,-1
 1060 -550 l 1,2,-1
 1060 -635 l 1,3,-1
 150 -635 l 1,0,-1
EndSplineSet
EndChar

StartChar: graveaccent
Encoding: 96 96 41
Width: 327
GlyphClass: 2
Flags: W
LayerCount: 2
Fore
SplineSet
255 627 m 1,0,-1
 140 837 l 1,1,-1
 244 869 l 1,2,-1
 327 627 l 1,3,-1
 255 627 l 1,0,-1
EndSplineSet
EndChar

StartChar: leftcurly
Encoding: 123 123 42
Width: 477
GlyphClass: 2
Flags: W
LayerCount: 2
Fore
SplineSet
261 315 m 0,0,1
 261 358 261 358 230 380 c 0,2,3
 218 388 218 388 171 405 c 0,4,5
 140 417 140 417 140 433 c 1,6,7
 139 439 139 439 139 444 c 0,8,9
 139 466 139 466 170 475 c 0,10,11
 226 491 226 491 229 493 c 0,12,13
 261 510 261 510 261 550 c 0,14,15
 261 577 261 577 245 630 c 128,-1,16
 229 683 229 683 229 710 c 0,17,18
 229 786 229 786 314 859 c 0,19,20
 391 925 391 925 448 925 c 0,21,22
 479 925 479 925 477 897 c 0,23,24
 476 885 476 885 446 871 c 0,25,26
 406 853 406 853 391 840 c 0,27,28
 362 814 362 814 362 769 c 0,29,30
 362 742 362 742 361 691 c 128,-1,31
 360 640 360 640 360 613 c 0,32,33
 360 474 360 474 260 433 c 1,34,35
 314 410 314 410 335 363 c 0,36,37
 353 324 353 324 353 253 c 0,38,39
 353 226 353 226 357.5 174.5 c 128,-1,40
 362 123 362 123 362 96 c 0,41,42
 362 55 362 55 392 27 c 0,43,44
 408 13 408 13 448 -7 c 0,45,46
 478 -22 478 -22 478 -32 c 0,47,48
 478 -60 478 -60 437 -60 c 0,49,50
 376 -60 376 -60 306 4 c 0,51,52
 229 74 229 74 229 155 c 0,53,54
 229 182 229 182 245 235 c 128,-1,55
 261 288 261 288 261 315 c 0,0,1
EndSplineSet
EndChar

StartChar: bar
Encoding: 124 124 43
Width: 193
GlyphClass: 2
Flags: W
LayerCount: 2
Fore
SplineSet
140 0 m 1,0,-1
 140 925 l 1,1,-1
 193 925 l 1,2,-1
 193 0 l 1,3,-1
 140 0 l 1,0,-1
EndSplineSet
EndChar

StartChar: rightcurly
Encoding: 125 125 44
Width: 477
GlyphClass: 2
Flags: W
LayerCount: 2
Fore
SplineSet
356 315 m 0,0,1
 356 288 356 288 372 235 c 128,-1,2
 388 182 388 182 388 155 c 0,3,4
 388 74 388 74 311 4 c 0,5,6
 241 -60 241 -60 180 -60 c 0,7,8
 139 -60 139 -60 139 -32 c 0,9,10
 139 -22 139 -22 169 -7 c 0,11,12
 209 13 209 13 225 27 c 0,13,14
 255 55 255 55 255 96 c 0,15,16
 255 123 255 123 259.5 174.5 c 128,-1,17
 264 226 264 226 264 253 c 0,18,19
 264 324 264 324 282 363 c 0,20,21
 303 410 303 410 357 433 c 1,22,23
 257 474 257 474 257 613 c 0,24,25
 257 640 257 640 256 691 c 128,-1,26
 255 742 255 742 255 769 c 0,27,28
 255 814 255 814 226 840 c 0,29,30
 211 853 211 853 171 871 c 0,31,32
 141 885 141 885 140 897 c 0,33,34
 138 925 138 925 169 925 c 0,35,36
 226 925 226 925 303 859 c 0,37,38
 388 786 388 786 388 710 c 0,39,40
 388 683 388 683 372 630 c 128,-1,41
 356 577 356 577 356 550 c 0,42,43
 356 510 356 510 388 493 c 0,44,45
 391 491 391 491 447 475 c 0,46,47
 478 466 478 466 478 444 c 0,48,49
 478 439 478 439 477 433 c 1,50,51
 477 417 477 417 446 405 c 0,52,53
 399 388 399 388 387 380 c 0,54,55
 356 358 356 358 356 315 c 0,0,1
EndSplineSet
EndChar

StartChar: asciitilde
Encoding: 126 126 45
Width: 916
GlyphClass: 4
Flags: W
LayerCount: 2
Fore
SplineSet
851 1025 m 1,0,-1
 912 1025 l 1,1,2
 910 946 910 946 862 868 c 0,3,4
 807 778 807 778 732 778 c 0,5,6
 683 778 683 778 534.5 860 c 128,-1,7
 386 942 386 942 321 942 c 0,8,9
 232 942 232 942 206 816 c 1,10,-1
 148 816 l 1,11,12
 151 905 151 905 197 974 c 0,13,14
 249 1051 249 1051 332 1060 c 1,15,16
 433 1010 433 1010 535 960 c 1,17,18
 674 897 674 897 737 897 c 0,19,20
 839 897 839 897 851 1025 c 1,0,-1
EndSplineSet
EndChar

StartChar: Divide
Encoding: 247 247 46
Width: 1001
GlyphClass: 2
Flags: W
LayerCount: 2
Fore
SplineSet
599 554 m 0,0,1
 460 554 460 554 460 659 c 0,2,3
 460 707 460 707 502 737 c 0,4,5
 541 764 541 764 590 764 c 0,6,7
 736 764 736 764 736 669 c 0,8,9
 736 615 736 615 695.5 584.5 c 128,-1,10
 655 554 655 554 599 554 c 0,0,1
160 417 m 1,11,-1
 160 519 l 1,12,-1
 1001 519 l 1,13,-1
 1001 417 l 1,14,-1
 160 417 l 1,11,-1
605 176 m 0,15,16
 462 176 462 176 462 280 c 0,17,18
 462 327 462 327 505 359 c 0,19,20
 544 388 544 388 593 388 c 0,21,22
 736 388 736 388 736 296 c 0,23,24
 736 243 736 243 697.5 209.5 c 128,-1,25
 659 176 659 176 605 176 c 0,15,16
EndSplineSet
EndChar

StartChar: Arasunna
Encoding: 3073 3073 47
Width: 517
GlyphClass: 2
Flags: W
LayerCount: 2
Fore
SplineSet
478 21 m 0,0,1
 358 14 358 14 266 86 c 0,2,3
 167 163 167 163 166 285 c 0,4,5
 166 368 166 368 210 443 c 0,6,7
 268 544 268 544 391 600 c 0,8,9
 454 629 454 629 482 629 c 0,10,11
 502 629 502 629 502 614 c 0,12,13
 502 581 502 581 450 540 c 0,14,15
 346 457 346 457 314 394 c 0,16,17
 295 355 295 355 295 286 c 0,18,19
 295 150 295 150 450 104 c 0,20,21
 508 87 508 87 508 50 c 0,22,23
 508 23 508 23 478 21 c 0,0,1
EndSplineSet
EndChar

StartChar: Anusvara
Encoding: 3074 3074 48
Width: 825
GlyphClass: 2
Flags: W
LayerCount: 2
Fore
SplineSet
459 -17 m 0,0,1
 345 -24 345 -24 256 39 c 0,2,3
 159 107 159 107 160 221 c 0,4,5
 162 368 162 368 274.5 481 c 128,-1,6
 387 594 387 594 533 594 c 0,7,8
 645 594 645 594 729 524 c 0,9,10
 816 451 816 451 823 338 c 0,11,12
 831 198 831 198 723.5 95 c 128,-1,13
 616 -8 616 -8 459 -17 c 0,0,1
278 233 m 0,14,15
 278 95 278 95 441 95 c 0,16,17
 550 95 550 95 627 164.5 c 128,-1,18
 704 234 704 234 704 341 c 0,19,20
 704 414 704 414 658.5 453.5 c 128,-1,21
 613 493 613 493 539 493 c 0,22,23
 439 493 439 493 358.5 413 c 128,-1,24
 278 333 278 333 278 233 c 0,14,15
EndSplineSet
EndChar

StartChar: Visarga
Encoding: 3075 3075 49
Width: 485
GlyphClass: 4
Flags: W
LayerCount: 2
Fore
SplineSet
322 350 m 0,0,1
 263 350 263 350 221 385 c 0,2,3
 176 423 176 423 176 481 c 0,4,5
 176 555 176 555 227.5 615 c 128,-1,6
 279 675 279 675 352 675 c 0,7,8
 411 675 411 675 452.5 632.5 c 128,-1,9
 494 590 494 590 494 531 c 0,10,11
 494 462 494 462 442.5 406 c 128,-1,12
 391 350 391 350 322 350 c 0,0,1
305 -66 m 0,13,14
 246 -66 246 -66 203 -30 c 128,-1,15
 160 6 160 6 160 64 c 0,16,17
 160 138 160 138 211.5 197 c 128,-1,18
 263 256 263 256 336 256 c 0,19,20
 396 256 396 256 436 217.5 c 128,-1,21
 476 179 476 179 476 120 c 0,22,23
 476 47 476 47 427 -8 c 1,24,25
 377 -66 377 -66 305 -66 c 0,13,14
264 494 m 0,26,27
 264 441 264 441 311 441 c 0,28,29
 351 441 351 441 379.5 474.5 c 128,-1,30
 408 508 408 508 408 547 c 0,31,32
 408 591 408 591 360 591 c 0,33,34
 316 591 316 591 290 564 c 128,-1,35
 264 537 264 537 264 494 c 0,26,27
250 76 m 0,36,37
 250 19 250 19 300 22 c 0,38,39
 379 27 379 27 393 112 c 0,40,41
 397 136 397 136 379.5 151 c 128,-1,42
 362 166 362 166 334 166 c 0,43,44
 301 166 301 166 275.5 138 c 128,-1,45
 250 110 250 110 250 76 c 0,36,37
EndSplineSet
EndChar

StartChar: Telugu_A
Encoding: 3077 3077 50
Width: 1018
GlyphClass: 2
Flags: W
LayerCount: 2
Fore
SplineSet
551 -10 m 0,0,1
 382 -10 382 -10 276 74 c 0,2,3
 160 166 160 166 160 331 c 0,4,5
 160 482 160 482 252 602 c 1,6,7
 348 729 348 729 495 746 c 1,8,9
 525 728 525 728 533 699 c 1,10,11
 526 683 526 683 454 654 c 0,12,13
 374 621 374 621 334 570 c 0,14,15
 272 491 272 491 272 344 c 0,16,17
 272 219 272 219 345 140 c 0,18,19
 421 58 421 58 545 58 c 0,20,21
 663 58 663 58 782 152 c 0,22,23
 909 252 909 252 909 367 c 0,24,25
 909 448 909 448 865 520 c 0,26,27
 814 602 814 602 738 602 c 0,28,29
 679 602 679 602 635 564 c 0,30,31
 588 524 588 524 588 466 c 0,32,33
 588 404 588 404 625 382 c 0,34,35
 632 377 632 377 692 362 c 0,36,37
 728 353 728 353 728 323 c 0,38,39
 727 279 727 279 660 279 c 0,40,41
 641 279 641 279 610 282.5 c 128,-1,42
 579 286 579 286 571 286 c 0,43,44
 532 286 532 286 457.5 261.5 c 128,-1,45
 383 237 383 237 345 237 c 0,46,47
 303 237 303 237 303 270 c 0,48,49
 303 302 303 302 383 330 c 0,50,51
 397 335 397 335 495 361 c 1,52,53
 477 394 477 394 477 441 c 0,54,55
 477 544 477 544 558 616 c 1,56,57
 636 687 636 687 740 687 c 256,58,59
 844 687 844 687 930 587 c 0,60,61
 1012 493 1012 493 1014 392 c 0,62,63
 1017 220 1017 220 876 103 c 0,64,65
 740 -10 740 -10 551 -10 c 0,0,1
EndSplineSet
EndChar

StartChar: AA
Encoding: 3078 3078 51
Width: 1149
GlyphClass: 2
Flags: W
LayerCount: 2
Fore
SplineSet
1001 287 m 1,0,1
 1016 243 1016 243 1014 213 c 0,2,3
 1005 86 1005 86 856 33 c 0,4,5
 757 -3 757 -3 605 -3 c 0,6,7
 423 -3 423 -3 300 84 c 0,8,9
 160 183 160 183 160 357 c 0,10,11
 160 495 160 495 250 595 c 0,12,13
 343 699 343 699 479 699 c 0,14,15
 566 699 566 699 634 656 c 0,16,17
 712 607 712 607 712 525 c 0,18,19
 712 452 712 452 611 384 c 0,20,21
 519 322 519 322 442 322 c 0,22,23
 336 322 336 322 272 411 c 1,24,25
 276 413 276 413 288 451 c 0,26,27
 299 486 299 486 302 484 c 0,28,29
 331 458 331 458 360 432 c 1,30,31
 396 403 396 403 446 403 c 256,32,33
 496 403 496 403 547 439 c 0,34,35
 604 478 604 478 604 525 c 0,36,37
 604 578 604 578 558 601 c 0,38,39
 521 620 521 620 468 616 c 0,40,41
 376 608 376 608 319 529 c 0,42,43
 268 458 268 458 268 364 c 0,44,45
 268 223 268 223 377 144 c 0,46,47
 473 75 473 75 619 75 c 0,48,49
 911 75 911 75 911 217 c 0,50,51
 911 232 911 232 904 257 c 1,52,53
 819 263 819 263 660 239 c 1,54,55
 470 212 470 212 470 168 c 1,56,-1
 486 141 l 1,57,58
 462 115 462 115 446 115 c 0,59,60
 417 115 417 115 389 132.5 c 128,-1,61
 361 150 361 150 361 175 c 0,62,63
 361 238 361 238 471 276 c 1,64,65
 551 305 551 305 695 320 c 1,66,67
 786 327 786 327 877 334 c 1,68,69
 784 456 784 456 782 457 c 1,70,71
 715 551 715 551 715 582 c 0,72,73
 715 636 715 636 806 671 c 0,74,75
 878 699 878 699 945 699 c 0,76,77
 1148 699 1148 699 1148 512 c 0,78,79
 1148 434 1148 434 1121 385 c 0,80,81
 1087 323 1087 323 1001 287 c 1,0,1
908 623 m 0,82,83
 816 623 816 623 816 584 c 0,84,85
 816 570 816 570 971 364 c 1,86,87
 1046 401 1046 401 1046 515 c 0,88,89
 1046 623 1046 623 908 623 c 0,82,83
EndSplineSet
EndChar

StartChar: Telugu_I
Encoding: 3079 3079 52
Width: 1067
GlyphClass: 2
Flags: W
LayerCount: 2
Fore
SplineSet
549 588 m 1,0,1
 629 713 629 713 736 713 c 0,2,3
 844 713 844 713 911 635 c 1,4,5
 973 561 973 561 973 451 c 0,6,7
 973 333 973 333 904 222 c 0,8,9
 844 126 844 126 768 82 c 1,10,11
 815 12 815 12 825 1 c 0,12,13
 863 -40 863 -40 913 -40 c 0,14,15
 953 -40 953 -40 1003 -6 c 0,16,17
 1081 47 1081 47 1086 49 c 1,18,-1
 1109 39 l 1,19,20
 1103 -22 1103 -22 1024 -74 c 0,21,22
 951 -122 951 -122 886 -122 c 0,23,24
 820 -122 820 -122 769 -67 c 0,25,26
 736 -31 736 -31 697 46 c 1,27,28
 605 -1 605 -1 490 -1 c 0,29,30
 401 -1 401 -1 329 63 c 128,-1,31
 257 127 257 127 257 215 c 0,32,33
 257 287 257 287 302.5 334 c 128,-1,34
 348 381 348 381 420 381 c 0,35,36
 499 381 499 381 601 310 c 0,37,38
 699 243 699 243 737 169 c 1,39,40
 793 213 793 213 831 302 c 0,41,42
 868 387 868 387 868 462 c 0,43,44
 868 547 868 547 850 581 c 0,45,46
 824 629 824 629 749 629 c 0,47,48
 673 629 673 629 642 576 c 0,49,50
 637 567 637 567 610 476 c 0,51,52
 594 423 594 423 555 423 c 0,53,54
 520 423 520 423 511 464 c 0,55,56
 497 523 497 523 482 540 c 0,57,58
 447 581 447 581 349 581 c 0,59,60
 256 581 256 581 256 530 c 1,61,62
 276 506 276 506 319 479 c 0,63,64
 370 447 370 447 380 438 c 1,65,66
 376 427 376 427 356 408 c 0,67,68
 329 383 329 383 328 381 c 1,69,70
 266 385 266 385 216 427 c 0,71,72
 160 473 160 473 160 540 c 0,73,74
 160 594 160 594 233 631 c 0,75,76
 294 661 294 661 355 661 c 0,77,78
 481 661 481 661 549 588 c 1,0,1
339 217 m 0,79,80
 339 154 339 154 398 119 c 0,81,82
 448 90 448 90 518 90 c 0,83,84
 548 90 548 90 594 102 c 0,85,86
 654 117 654 117 662 118 c 1,87,88
 638 189 638 189 573 246 c 0,89,90
 503 307 503 307 433 307 c 0,91,92
 394 307 394 307 366.5 281 c 128,-1,93
 339 255 339 255 339 217 c 0,79,80
EndSplineSet
EndChar

StartChar: II
Encoding: 3080 3080 53
Width: 1332
GlyphClass: 2
Flags: W
LayerCount: 2
Fore
SplineSet
346 473 m 1,0,1
 340 468 340 468 322 468 c 0,2,3
 254 468 254 468 224 520 c 0,4,5
 220 527 220 527 220 535 c 0,6,7
 220 550 220 550 235 561.5 c 128,-1,8
 250 573 250 573 271 573 c 0,9,10
 284 573 284 573 297 568 c 0,11,12
 300 567 300 567 318 558 c 0,13,14
 331 551 331 551 339 551 c 0,15,16
 405 551 405 551 498 623 c 1,17,18
 581 690 581 690 665 757 c 1,19,20
 769 829 769 829 864 829 c 0,21,22
 912 829 912 829 977.5 776.5 c 128,-1,23
 1043 724 1043 724 1043 686 c 0,24,25
 1043 679 1043 679 1040 673 c 1,26,27
 1031 669 1031 669 975 708 c 1,28,29
 914 752 914 752 860 752 c 0,30,31
 810 752 810 752 741 696 c 0,32,33
 719 678 719 678 642 602 c 1,34,-1
 649 602 l 1,35,36
 738 603 738 603 829 533 c 0,37,38
 916 466 916 466 946 379 c 1,39,40
 975 385 975 385 1045 382 c 0,41,42
 1103 379 1103 379 1130 393 c 0,43,44
 1170 414 1170 414 1192 482 c 0,45,46
 1198 499 1198 499 1198 516 c 0,47,48
 1198 551 1198 551 1173.5 574.5 c 128,-1,49
 1149 598 1149 598 1105 598 c 0,50,51
 1073 598 1073 598 1035 585 c 0,52,53
 1028 582 1028 582 1022 582 c 0,54,55
 998 582 998 582 998 609 c 0,56,57
 998 639 998 639 1039 656 c 0,58,59
 1071 670 1071 670 1107 670 c 0,60,61
 1177 670 1177 670 1234 624 c 1,62,63
 1292 575 1292 575 1292 510 c 0,64,65
 1292 495 1292 495 1289 481 c 0,66,67
 1269 395 1269 395 1216 340 c 1,68,69
 1328 261 1328 261 1328 165 c 0,70,71
 1328 96 1328 96 1263 47 c 0,72,73
 1203 3 1203 3 1132 3 c 0,74,75
 1071 3 1071 3 1013 43 c 0,76,77
 949 88 949 88 949 146 c 0,78,79
 949 190 949 190 985 237 c 0,80,81
 994 249 994 249 1054 311 c 1,82,-1
 959 306 l 1,83,-1
 959 296 l 1,84,85
 961 138 961 138 819 53 c 1,86,87
 700 -17 700 -17 531 -17 c 0,88,89
 407 -17 407 -17 321 45 c 1,90,91
 223 114 223 114 223 233 c 0,92,93
 223 262 223 262 228 276 c 1,94,95
 201 276 201 276 179 286 c 0,96,97
 150 299 150 299 150 322 c 0,98,99
 150 364 150 364 258 364 c 1,100,101
 286 413 286 413 302 429 c 0,102,103
 324 451 324 451 346 473 c 1,0,1
860 316 m 1,104,105
 800 311 800 311 332 285 c 1,106,107
 323 261 323 261 323 235 c 0,108,109
 323 163 323 163 384.5 105 c 128,-1,110
 446 47 446 47 526 47 c 0,111,112
 670 47 670 47 759 107 c 0,113,114
 864 178 864 178 860 316 c 1,104,105
1164 292 m 1,115,116
 1048 216 1048 216 1045 144 c 0,117,118
 1044 116 1044 116 1073 97 c 0,119,120
 1099 80 1099 80 1130 80 c 0,121,122
 1170 80 1170 80 1202 109 c 128,-1,123
 1234 138 1234 138 1234 174 c 0,124,125
 1234 238 1234 238 1164 292 c 1,115,116
368 368 m 1,126,127
 558 376 558 376 834 390 c 1,128,129
 755 525 755 525 628 525 c 0,130,131
 462 525 462 525 368 368 c 1,126,127
EndSplineSet
EndChar

StartChar: Telugu_U
Encoding: 3081 3081 54
Width: 892
GlyphClass: 2
Flags: W
LayerCount: 2
Fore
SplineSet
561 616 m 0,0,1
 611 616 611 616 611 712 c 0,2,3
 611 750 611 750 608 756 c 0,4,5
 602 772 602 772 572 772 c 0,6,7
 514 772 514 772 514 702 c 0,8,9
 514 616 514 616 561 616 c 0,0,1
714 271 m 0,10,11
 696 271 696 271 690 243 c 0,12,13
 685 219 685 219 691 202 c 0,14,15
 707 156 707 156 720 141 c 1,16,17
 737 124 737 124 780 113 c 1,18,19
 804 147 804 147 804 180 c 256,20,21
 804 213 804 213 775 242 c 128,-1,22
 746 271 746 271 714 271 c 0,10,11
678 -7 m 0,23,24
 622 -11 622 -11 562 23 c 1,25,26
 507 53 507 53 480 94 c 1,27,28
 400 0 400 0 311 0 c 0,29,30
 237 0 237 0 194 92 c 0,31,32
 160 165 160 165 160 250 c 0,33,34
 160 399 160 399 296 512 c 0,35,36
 425 620 425 620 577 620 c 0,37,38
 667 620 667 620 781 571 c 1,39,40
 772 549 772 549 763 527 c 1,41,42
 749 499 749 499 732 499 c 0,43,44
 727 499 727 499 722 502 c 0,45,46
 640 538 640 538 550 538 c 0,47,48
 455 538 455 538 351 446 c 1,49,50
 611 440 611 440 770 444 c 1,51,-1
 787 375 l 1,52,-1
 293 376 l 1,53,54
 262 319 262 319 262 254 c 0,55,56
 262 205 262 205 275 164 c 0,57,58
 294 106 294 106 332 106 c 0,59,60
 394 106 394 106 422 144 c 0,61,62
 439 167 439 167 450 222 c 0,63,64
 460 272 460 272 472 283 c 0,65,66
 480 291 480 291 497 291 c 0,67,68
 546 291 546 291 546 259 c 0,69,70
 546 247 546 247 545 225 c 128,-1,71
 544 203 544 203 544 191 c 0,72,73
 544 134 544 134 596 97 c 0,74,75
 640 66 640 66 702 60 c 1,76,77
 665 75 665 75 635 125 c 128,-1,78
 605 175 605 175 605 217 c 0,79,80
 605 269 605 269 640 303 c 128,-1,81
 675 337 675 337 728 337 c 0,82,83
 801 337 801 337 847.5 290 c 128,-1,84
 894 243 894 243 894 170 c 0,85,86
 894 93 894 93 824 43 c 0,87,88
 763 -1 763 -1 678 -7 c 0,23,24
EndSplineSet
EndChar

StartChar: UU
Encoding: 3082 3082 55
Width: 1046
GlyphClass: 2
Flags: W
LayerCount: 2
Fore
SplineSet
659 658 m 2,0,1
 659 618 659 618 650 606 c 0,2,3
 639 590 639 590 602 590 c 0,4,5
 575 590 575 590 563 609 c 1,6,-1
 563 719 l 2,7,8
 563 748 563 748 613 748 c 0,9,10
 659 748 659 748 659 718 c 2,11,-1
 659 658 l 2,0,1
454 577 m 0,12,13
 428 577 428 577 423 638 c 1,14,15
 423 680 423 680 422 723 c 1,16,17
 435 744 435 744 471 744 c 256,18,19
 507 744 507 744 516 721 c 0,20,21
 521 709 521 709 521 664 c 2,22,-1
 521 599 l 1,23,24
 496 577 496 577 454 577 c 0,12,13
854 164 m 1,25,26
 854 84 854 84 799 34.5 c 128,-1,27
 744 -15 744 -15 659 -15 c 0,28,29
 610 -15 610 -15 556 11 c 0,30,31
 494 41 494 41 474 86 c 1,32,33
 425 7 425 7 306 7 c 0,34,35
 231 7 231 7 191 85 c 1,36,37
 160 148 160 148 160 231 c 0,38,39
 160 381 160 381 300 487 c 0,40,41
 429 585 429 585 584 585 c 0,42,43
 686 585 686 585 763 540 c 1,44,-1
 742 496 l 1,45,46
 726 480 726 480 701 480 c 0,47,48
 677 480 677 480 629.5 489 c 128,-1,49
 582 498 582 498 557 498 c 0,50,51
 411 498 411 498 351 428 c 1,52,53
 494 442 494 442 580 442 c 0,54,55
 656 442 656 442 746 432 c 0,56,57
 861 418 861 418 904 395 c 1,58,59
 906 401 906 401 932 448 c 0,60,61
 955 489 955 489 955 497 c 0,62,63
 955 521 955 521 912 526 c 0,64,65
 889 529 889 529 857 513 c 1,66,67
 822 497 822 497 806 497 c 0,68,69
 796 497 796 497 793 506 c 0,70,71
 787 522 787 522 786 524 c 1,72,73
 822 590 822 590 917 590 c 0,74,75
 963 590 963 590 1001 567 c 0,76,77
 1045 540 1045 540 1045 497 c 0,78,79
 1045 458 1045 458 970 366 c 1,80,81
 1045 309 1045 309 1045 240 c 0,82,83
 1045 189 1045 189 1017 150 c 0,84,85
 986 107 986 107 937 107 c 0,86,87
 927 107 927 107 917 109 c 0,88,89
 884 114 884 114 854 164 c 1,25,26
923 312 m 1,90,91
 884 269 884 269 884 239 c 0,92,93
 884 192 884 192 913 185 c 0,94,95
 924 182 924 182 934 182 c 0,96,97
 963 182 963 182 976 204 c 0,98,99
 986 221 986 221 983 241 c 0,100,101
 977 282 977 282 960 297 c 0,102,103
 950 307 950 307 923 312 c 1,90,91
705 244 m 0,104,105
 684 241 684 241 670 221 c 128,-1,106
 656 201 656 201 656 177 c 0,107,108
 656 116 656 116 727 116 c 0,109,110
 737 116 737 116 749 118 c 0,111,112
 799 125 799 125 799 179 c 0,113,114
 799 206 799 206 781 224 c 0,115,116
 760 245 760 245 724 245 c 0,117,118
 715 245 715 245 705 244 c 0,104,105
623 364 m 0,119,120
 535 364 535 364 293 350 c 1,121,122
 269 324 269 324 259 258 c 0,123,124
 256 239 256 239 256 217 c 0,125,126
 256 93 256 93 323 93 c 0,127,128
 363 93 363 93 395 124.5 c 128,-1,129
 427 156 427 156 427 195 c 0,130,131
 427 281 427 281 495 281 c 0,132,133
 541 281 541 281 541 244 c 0,134,135
 541 233 541 233 536.5 210 c 128,-1,136
 532 187 532 187 532 177 c 0,137,138
 532 134 532 134 573 95 c 0,139,140
 608 61 608 61 657 61 c 0,141,142
 674 61 674 61 668 63 c 0,143,144
 638 72 638 72 617 95 c 0,145,146
 583 132 583 132 584 196 c 1,147,148
 586 250 586 250 618.5 282.5 c 128,-1,149
 651 315 651 315 705 315 c 0,150,151
 795 315 795 315 819 288 c 1,152,153
 826 292 826 292 833 308 c 0,154,155
 842 328 842 328 845 331 c 1,156,157
 743 364 743 364 623 364 c 0,119,120
EndSplineSet
EndChar

StartChar: Ru
Encoding: 3083 3083 56
Width: 1329
GlyphClass: 2
Flags: W
LayerCount: 2
Fore
SplineSet
1147 19 m 1,0,1
 1086 14 1086 14 1051 72 c 1,2,3
 989 7 989 7 895 7 c 0,4,5
 793 7 793 7 760 74 c 1,6,7
 695 1 695 1 591 1 c 0,8,9
 494 1 494 1 432 72 c 1,10,11
 412 37 412 37 371 8 c 0,12,13
 327 -23 327 -23 290 -23 c 0,14,15
 250 -23 250 -23 221.5 7 c 128,-1,16
 193 37 193 37 193 78 c 0,17,18
 193 148 193 148 244 232 c 0,19,20
 256 250 256 250 340 364 c 0,21,22
 391 434 391 434 391 468 c 0,23,24
 391 516 391 516 333 516 c 0,25,26
 302 516 302 516 274.5 501 c 128,-1,27
 247 486 247 486 243 464 c 0,28,29
 241 452 241 452 241 441 c 0,30,31
 241 409 241 409 262 382 c 1,32,33
 284 359 284 359 306 335 c 1,34,35
 293 325 293 325 279 316 c 1,36,37
 260 302 260 302 250 302 c 0,38,39
 246 302 246 302 243 304 c 0,40,41
 190 332 190 332 172 377 c 0,42,43
 160 407 160 407 160 464 c 0,44,45
 160 526 160 526 224 564 c 0,46,47
 278 596 278 596 345 596 c 0,48,49
 403 596 403 596 443 565 c 1,50,51
 485 531 485 531 485 474 c 0,52,53
 485 426 485 426 387.5 290 c 128,-1,54
 290 154 290 154 290 93 c 0,55,56
 290 66 290 66 296 53 c 1,57,58
 329 54 329 54 363 108 c 0,59,60
 395 158 395 158 395 193 c 0,61,62
 395 285 395 285 459 285 c 0,63,64
 493 285 493 285 493 250 c 0,65,66
 493 243 493 243 491.5 227.5 c 128,-1,67
 490 212 490 212 490 206 c 0,68,69
 490 157 490 157 520 118 c 0,70,71
 553 76 553 76 600 76 c 0,72,73
 663 76 663 76 704 144 c 0,74,75
 740 203 740 203 740 269 c 0,76,77
 740 346 740 346 695 417 c 0,78,79
 666 462 666 462 611 513 c 0,80,81
 566 555 566 555 566 562 c 0,82,83
 566 589 566 589 605 589 c 0,84,85
 650 589 650 589 709 536 c 0,86,87
 790 464 790 464 814 360 c 1,88,89
 830 296 830 296 830 154 c 0,90,91
 830 130 830 130 852.5 108.5 c 128,-1,92
 875 87 875 87 899 87 c 0,93,94
 962 87 962 87 1000 138 c 1,95,96
 1033 185 1033 185 1033 250 c 0,97,98
 1033 334 1033 334 973 400 c 0,99,100
 939 438 939 438 862 488 c 0,101,102
 802 526 802 526 802 542 c 0,103,104
 802 571 802 571 836 571 c 0,105,106
 866 571 866 571 927 538 c 0,107,108
 1015 491 1015 491 1067 415 c 0,109,110
 1123 333 1123 333 1123 238 c 0,111,112
 1123 220 1123 220 1114 186 c 128,-1,113
 1105 152 1105 152 1105 135 c 1,114,115
 1122 106 1122 106 1155 106 c 0,116,117
 1247 106 1247 106 1247 235 c 0,118,119
 1247 340 1247 340 1197 411 c 0,120,121
 1168 452 1168 452 1103 497 c 1,122,123
 1053 533 1053 533 1053 552 c 0,124,125
 1053 585 1053 585 1085 579 c 0,126,127
 1187 559 1187 559 1259 468.5 c 128,-1,128
 1331 378 1331 378 1331 272 c 0,129,130
 1331 173 1331 173 1289 105 c 0,131,132
 1240 25 1240 25 1147 19 c 1,0,1
EndSplineSet
EndChar

StartChar: Lu
Encoding: 3084 3084 57
Width: 808
GlyphClass: 2
Flags: W
LayerCount: 2
Fore
SplineSet
591 -5 m 0,0,1
 508 -5 508 -5 453 43 c 0,2,3
 395 94 395 94 395 175 c 0,4,5
 395 245 395 245 465 310 c 1,6,7
 530 360 530 360 596 410 c 1,8,9
 666 465 666 465 666 512 c 0,10,11
 666 540 666 540 640 560 c 128,-1,12
 614 580 614 580 585 580 c 0,13,14
 563 580 563 580 545 576 c 1,15,16
 559 546 559 546 559 512 c 0,17,18
 559 475 559 475 538 441 c 0,19,20
 514 403 514 403 483 403 c 0,21,22
 449 403 449 403 424 439 c 0,23,24
 402 471 402 471 402 507 c 0,25,26
 402 527 402 527 423 559 c 1,27,28
 398 565 398 565 369 565 c 0,29,30
 333 565 333 565 303 556 c 0,31,32
 259 544 259 544 259 519 c 0,33,34
 259 459 259 459 388 436 c 1,35,36
 377 369 377 369 341 369 c 0,37,38
 272 369 272 369 219 409 c 0,39,40
 160 454 160 454 160 520 c 0,41,42
 160 582 160 582 223 616 c 0,43,44
 276 644 276 644 348 644 c 0,45,46
 363 644 363 644 377 643 c 0,47,48
 398 641 398 641 467 612 c 1,49,50
 526 653 526 653 589 654 c 0,51,52
 662 656 662 656 713.5 616.5 c 128,-1,53
 765 577 765 577 765 512 c 0,54,55
 765 441 765 441 694 385 c 1,56,57
 628 341 628 341 561 297 c 1,58,59
 490 244 490 244 490 181 c 0,60,61
 490 136 490 136 525 105.5 c 128,-1,62
 560 75 560 75 605 75 c 0,63,64
 662 75 662 75 697 123 c 0,65,66
 728 166 728 166 728 225 c 0,67,68
 728 253 728 253 698 359 c 1,69,70
 705 376 705 376 745 397 c 1,71,72
 807 370 807 370 807 202 c 0,73,74
 807 112 807 112 744.5 53.5 c 128,-1,75
 682 -5 682 -5 591 -5 c 0,0,1
477 557 m 1,76,77
 450 542 450 542 450 510 c 0,78,79
 450 471 450 471 484 452 c 1,80,81
 516 471 516 471 516 503 c 0,82,83
 516 542 516 542 477 557 c 1,76,77
EndSplineSet
EndChar

StartChar: Telugu_E
Encoding: 3086 3086 58
Width: 979
GlyphClass: 2
Flags: W
LayerCount: 2
Fore
SplineSet
675 -21 m 0,0,1
 515 -21 515 -21 455 59 c 1,2,3
 375 -14 375 -14 266 -14 c 0,4,5
 226 -14 226 -14 193 12 c 128,-1,6
 160 38 160 38 160 77 c 0,7,8
 160 175 160 175 277 238 c 0,9,10
 378 292 378 292 473 285 c 0,11,12
 529 281 529 281 529 210 c 0,13,14
 529 184 529 184 521 149 c 0,15,16
 514 116 514 116 575 82 c 1,17,18
 629 50 629 50 666 50 c 0,19,20
 748 50 748 50 812 112.5 c 128,-1,21
 876 175 876 175 876 257 c 0,22,23
 876 363 876 363 798 451 c 0,24,25
 717 542 717 542 587 574 c 0,26,27
 586 574 586 574 516 583 c 0,28,29
 462 590 462 590 459.5 598.5 c 128,-1,30
 457 607 457 607 457 614 c 0,31,32
 457 651 457 651 524 651 c 0,33,34
 535 651 535 651 571 648 c 0,35,36
 745 633 745 633 861 524 c 0,37,38
 980 412 980 412 980 253 c 0,39,40
 980 137 980 137 884 56 c 0,41,42
 794 -21 794 -21 675 -21 c 0,0,1
254 86 m 0,43,44
 256 60 256 60 288 60 c 0,45,46
 331 60 331 60 387 105 c 0,47,48
 450 155 450 155 442 206 c 1,49,50
 432 216 432 216 413 216 c 0,51,52
 366 216 366 216 310 173 c 0,53,54
 251 128 251 128 254 86 c 0,43,44
EndSplineSet
EndChar

StartChar: EE
Encoding: 3087 3087 59
Width: 996
GlyphClass: 2
Flags: W
LayerCount: 2
Fore
SplineSet
686 -21 m 0,0,1
 532 -21 532 -21 472 59 c 1,2,3
 392 -14 392 -14 277 -14 c 0,4,5
 237 -14 237 -14 204 12 c 128,-1,6
 171 38 171 38 171 77 c 0,7,8
 171 166 171 166 254 231 c 1,9,10
 333 291 333 291 430 291 c 0,11,12
 470 291 470 291 502 280 c 0,13,14
 545 264 545 264 544 231 c 1,15,16
 539 203 539 203 532 149 c 1,17,18
 529 118 529 118 587 83 c 0,19,20
 641 50 641 50 677 50 c 0,21,22
 759 50 759 50 823 112.5 c 128,-1,23
 887 175 887 175 887 257 c 0,24,25
 887 378 887 378 802.5 461.5 c 128,-1,26
 718 545 718 545 569 571 c 0,27,28
 505 582 505 582 508 606 c 1,29,30
 507 636 507 636 540 636 c 0,31,32
 546 636 546 636 558 635 c 128,-1,33
 570 634 570 634 574 634 c 0,34,35
 736 634 736 634 865 525 c 0,36,37
 1000 411 1000 411 1000 253 c 0,38,39
 1000 137 1000 137 900 56 c 0,40,41
 806 -21 806 -21 686 -21 c 0,0,1
299 60 m 0,42,43
 355 65 355 65 411 112 c 128,-1,44
 467 159 467 159 467 200 c 0,45,46
 467 212 467 212 460 222 c 1,47,48
 442 226 442 226 424 226 c 0,49,50
 356 226 356 226 302 178 c 0,51,52
 252 134 252 134 252 93 c 0,53,54
 252 56 252 56 299 60 c 0,42,43
604 764 m 1,55,56
 487 760 487 760 380 686 c 0,57,58
 261 603 261 603 261 493 c 0,59,60
 261 457 261 457 312 419 c 1,61,62
 281 371 281 371 252 371 c 0,63,64
 210 371 210 371 183 410 c 1,65,66
 160 445 160 445 160 490 c 0,67,68
 160 609 160 609 290 715 c 0,69,70
 415 817 415 817 537 817 c 0,71,72
 616 817 616 817 616 790 c 0,73,74
 616 783 616 783 604 764 c 1,55,56
EndSplineSet
EndChar

StartChar: AI
Encoding: 3088 3088 60
Width: 991
GlyphClass: 2
Flags: W
LayerCount: 2
Fore
SplineSet
724 -11 m 0,0,1
 655 -11 655 -11 611 21 c 0,2,3
 579 45 579 45 546 100 c 1,4,5
 486 16 486 16 358 -8 c 0,6,7
 332 -13 332 -13 308 -13 c 0,8,9
 171 -13 171 -13 171 111 c 0,10,11
 171 203 171 203 286 270 c 1,12,13
 386 327 386 327 486 327 c 0,14,15
 561 327 561 327 582 285 c 1,16,17
 593 237 593 237 605 190 c 1,18,19
 624 124 624 124 686 88 c 0,20,21
 719 69 719 69 739 69 c 0,22,23
 807 69 807 69 852 156 c 0,24,25
 891 230 891 230 891 305 c 0,26,27
 891 409 891 409 833 486 c 0,28,29
 770 570 770 570 669 572 c 0,30,31
 597 574 597 574 573 535 c 0,32,33
 571 531 571 531 553 462 c 0,34,35
 542 423 542 423 503 423 c 0,36,37
 474 423 474 423 454 451 c 1,38,39
 459 476 459 476 459 494 c 0,40,41
 459 563 459 563 379 563 c 0,42,43
 263 563 263 563 258 508 c 0,44,45
 254 464 254 464 293 431 c 0,46,47
 311 417 311 417 368 388 c 1,48,49
 339 369 339 369 305 360 c 0,50,51
 298 358 298 358 290 358 c 0,52,53
 247 358 247 358 206 395 c 0,54,55
 160 436 160 436 160 495 c 0,56,57
 160 566 160 566 235 606 c 0,58,59
 295 639 295 639 373 639 c 0,60,61
 463 639 463 639 512 599 c 1,62,63
 562 651 562 651 667 652 c 0,64,65
 816 654 816 654 910 541 c 0,66,67
 993 440 993 440 993 305 c 0,68,69
 993 181 993 181 933 94 c 0,70,71
 860 -12 860 -12 724 -11 c 0,0,1
264 103 m 0,72,73
 264 63 264 63 307 63 c 0,74,75
 365 63 365 63 433 106 c 1,76,77
 504 153 504 153 511 204 c 0,78,79
 517 246 517 246 453 246 c 0,80,81
 392 246 392 246 331 205 c 0,82,83
 264 160 264 160 264 103 c 0,72,73
EndSplineSet
EndChar

StartChar: Telugu_O
Encoding: 3090 3090 61
Width: 975
GlyphClass: 2
Flags: W
LayerCount: 2
Fore
SplineSet
708 -14 m 0,0,1
 610 -14 610 -14 521 81 c 1,2,3
 425 0 425 0 344 0 c 0,4,5
 296 0 296 0 263 23 c 1,6,7
 227 50 227 50 227 98 c 0,8,9
 227 150 227 150 292 233 c 1,10,11
 352 303 352 303 413 373 c 1,12,13
 478 452 478 452 478 496 c 0,14,15
 478 569 478 569 407 569 c 0,16,17
 354 569 354 569 312 534 c 0,18,19
 267 497 267 497 267 446 c 0,20,21
 267 435 267 435 272.5 414 c 128,-1,22
 278 393 278 393 278 382 c 0,23,24
 278 363 278 363 262 349.5 c 128,-1,25
 246 336 246 336 230 339 c 0,26,27
 160 352 160 352 160 439 c 0,28,29
 160 528 160 528 235 591 c 1,30,31
 306 652 306 652 397 652 c 0,32,33
 464 652 464 652 519 614 c 0,34,35
 581 571 581 571 581 507 c 0,36,37
 581 442 581 442 516 357 c 1,38,39
 455 289 455 289 395 221 c 0,40,41
 330 147 330 147 330 107 c 1,42,43
 331 99 331 99 333 91 c 128,-1,44
 335 83 335 83 356 81 c 0,45,46
 429 75 429 75 494 204 c 0,47,48
 496 206 496 206 504 224 c 0,49,50
 509 235 509 235 524 235 c 0,51,52
 532 235 532 235 546 232 c 0,53,54
 592 221 592 221 591 196 c 0,55,56
 590 146 590 146 623 103 c 128,-1,57
 656 60 656 60 706 60 c 0,58,59
 757 60 757 60 813 98 c 0,60,61
 875 139 875 139 875 188 c 0,62,63
 875 199 875 199 835 248 c 0,64,65
 810 278 810 278 785 309 c 1,66,67
 860 308 860 308 911 283 c 0,68,69
 977 250 977 250 977 183 c 0,70,71
 977 101 977 101 881 40 c 0,72,73
 795 -14 795 -14 708 -14 c 0,0,1
EndSplineSet
EndChar

StartChar: OO
Encoding: 3091 3091 62
Width: 945
GlyphClass: 2
Flags: W
LayerCount: 2
Fore
SplineSet
368 594 m 1,0,1
 358 615 358 615 358 653 c 0,2,3
 358 730 358 730 425 785 c 0,4,5
 488 838 488 838 567 838 c 0,6,7
 651 838 651 838 720.5 778 c 128,-1,8
 790 718 790 718 790 635 c 0,9,10
 790 590 790 590 746 590 c 0,11,12
 724 590 724 590 703 636 c 0,13,14
 670 707 670 707 661 720 c 0,15,16
 628 766 628 766 578 766 c 0,17,18
 538 766 538 766 499 738 c 1,19,20
 458 707 458 707 454 667 c 0,21,22
 451 630 451 630 501 582 c 128,-1,23
 551 534 551 534 551 498 c 0,24,25
 552 422 552 422 486 334 c 0,26,27
 464 304 464 304 364 197 c 0,28,29
 298 127 298 127 298 95 c 0,30,31
 298 75 298 75 324 75 c 0,32,33
 348 75 348 75 394 96 c 0,34,35
 436 115 436 115 447 147 c 1,36,37
 452 170 452 170 458 192 c 1,38,39
 468 212 468 212 513 212 c 0,40,41
 539 212 539 212 560 185 c 1,42,43
 561 129 561 129 591.5 92.5 c 128,-1,44
 622 56 622 56 674 56 c 0,45,46
 722 56 722 56 778 92 c 0,47,48
 839 131 839 131 839 176 c 0,49,50
 839 179 839 179 797 229 c 1,51,52
 772 257 772 257 747 286 c 1,53,54
 946 274 946 274 946 163 c 0,55,56
 946 86 946 86 840 31 c 0,57,58
 750 -16 750 -16 664 -16 c 0,59,60
 571 -16 571 -16 487 63 c 1,61,62
 396 4 396 4 313 4 c 0,63,64
 194 4 194 4 194 89 c 0,65,66
 194 143 194 143 322.5 279 c 128,-1,67
 451 415 451 415 451 452 c 0,68,69
 451 520 451 520 390 520 c 0,70,71
 342 520 342 520 305 485.5 c 128,-1,72
 268 451 268 451 268 404 c 0,73,74
 268 395 268 395 275 377 c 128,-1,75
 282 359 282 359 282 350 c 0,76,77
 282 308 282 308 233 308 c 0,78,79
 160 308 160 308 160 395 c 0,80,81
 160 456 160 456 208 508 c 0,82,83
 246 548 246 548 303 575 c 0,84,85
 351 598 351 598 368 594 c 1,0,1
EndSplineSet
EndChar

StartChar: AU
Encoding: 3092 3092 63
Width: 948
GlyphClass: 2
Flags: W
LayerCount: 2
Fore
SplineSet
807 515 m 0,0,1
 738 522 738 522 707 571 c 0,2,3
 682 610 682 610 688 657 c 0,4,5
 691 685 691 685 704 702 c 1,6,-1
 611 701 l 1,7,8
 630 692 630 692 641.5 662.5 c 128,-1,9
 653 633 653 633 652 610 c 0,10,11
 649 538 649 538 540 499 c 1,12,13
 543 487 543 487 543 466 c 0,14,15
 543 403 543 403 484 323 c 0,16,17
 470 304 470 304 373 196 c 0,18,19
 313 130 313 130 313 99 c 0,20,21
 313 77 313 77 338 77 c 0,22,23
 368 77 368 77 409.5 102 c 128,-1,24
 451 127 451 127 451 144 c 0,25,26
 451 181 451 181 463 198.5 c 128,-1,27
 475 216 475 216 512 216 c 0,28,29
 540 216 540 216 557 189 c 1,30,31
 554 177 554 177 554 164 c 0,32,33
 554 122 554 122 584.5 91 c 128,-1,34
 615 60 615 60 658 60 c 0,35,36
 705 60 705 60 755 95 c 1,37,38
 808 134 808 134 808 179 c 0,39,40
 808 180 808 180 769 232.5 c 128,-1,41
 730 285 730 285 726 290 c 1,42,43
 909 278 909 278 909 165 c 0,44,45
 909 93 909 93 817 38 c 1,46,47
 736 -12 736 -12 659 -12 c 0,48,49
 564 -12 564 -12 488 66 c 1,50,51
 386 -8 386 -8 331 -8 c 0,52,53
 283 -8 283 -8 251 19 c 128,-1,54
 219 46 219 46 219 93 c 256,55,56
 219 140 219 140 331.5 276 c 128,-1,57
 444 412 444 412 444 454 c 0,58,59
 444 518 444 518 386 518 c 0,60,61
 319 518 319 518 293 492 c 0,62,63
 273 472 273 472 273 430 c 0,64,65
 273 419 273 419 274.5 395 c 128,-1,66
 276 371 276 371 276 359 c 0,67,68
 276 317 276 317 227 317 c 0,69,70
 160 317 160 317 160 398 c 0,71,72
 160 484 160 484 227 542 c 0,73,74
 291 598 291 598 377 598 c 0,75,76
 441 598 441 598 474 574 c 1,77,78
 483 566 483 566 498 566 c 0,79,80
 522 566 522 566 544.5 581.5 c 128,-1,81
 567 597 567 597 567 616 c 0,82,83
 569 697 569 697 428 697 c 0,84,85
 393 697 393 697 285 702 c 1,86,-1
 286 779 l 1,87,-1
 798 779 l 2,88,89
 952 779 952 779 954 632 c 0,90,91
 955 573 955 573 899 539 c 0,92,93
 853 511 853 511 807 515 c 0,0,1
752 631 m 0,94,95
 752 582 752 582 813 582 c 0,96,97
 841 582 841 582 865 596 c 128,-1,98
 889 610 889 610 891 633 c 0,99,100
 897 692 897 692 820 696 c 0,101,102
 752 699 752 699 752 631 c 0,94,95
EndSplineSet
EndChar

StartChar: Telugu_Ka
Encoding: 3093 3093 64
Width: 871
GlyphClass: 2
Flags: W
AnchorPoint: "Anchor-1" 0 0 basechar 0
LayerCount: 2
Fore
SplineSet
518 655 m 1,0,1
 534 658 534 658 604 658 c 0,2,3
 656 658 656 658 710.5 639 c 128,-1,4
 765 620 765 620 793 589 c 1,5,6
 790 587 790 587 771 565 c 0,7,8
 756 547 756 547 746 547 c 0,9,10
 737 547 737 547 667 565 c 128,-1,11
 597 583 597 583 552 583 c 0,12,13
 495 583 495 583 433 553 c 0,14,15
 359 518 359 518 359 468 c 0,16,17
 359 412 359 412 469 352 c 1,18,19
 571 301 571 301 674 251 c 1,20,21
 784 190 784 190 784 132 c 0,22,23
 784 55 784 55 671 16 c 0,24,25
 589 -13 589 -13 495 -13 c 0,26,27
 403 -13 403 -13 325 13 c 0,28,29
 221 47 221 47 197 114 c 1,30,31
 231 139 231 139 258 139 c 1,32,33
 255 139 255 139 339.5 99 c 128,-1,34
 424 59 424 59 492 59 c 0,35,36
 545 59 545 59 600 72 c 0,37,38
 680 90 680 90 680 124 c 0,39,40
 680 165 680 165 570 215 c 0,41,42
 382 301 382 301 365 311 c 0,43,44
 255 377 255 377 255 455 c 0,45,46
 255 514 255 514 304 550 c 1,47,48
 256 550 256 550 216 566 c 0,49,50
 163 587 163 587 160 627 c 1,51,52
 173 634 173 634 193 634 c 0,53,54
 204 634 204 634 228 630.5 c 128,-1,55
 252 627 252 627 263 627 c 0,56,57
 337 627 337 627 421 686 c 1,58,59
 493 741 493 741 566 796 c 1,60,61
 654 855 654 855 739 855 c 0,62,63
 818 855 818 855 885 775 c 1,64,-1
 891 680 l 1,65,66
 769 782 769 782 722 782 c 0,67,68
 670 782 670 782 610 737 c 0,69,70
 599 729 599 729 518 655 c 1,0,1
EndSplineSet
EndChar

StartChar: Telugu_Kha
Encoding: 3094 3094 65
Width: 1072
GlyphClass: 2
Flags: W
AnchorPoint: "Anchor-1" 0 0 basechar 0
LayerCount: 2
Fore
SplineSet
295 109 m 0,0,1
 354 109 354 109 429 151 c 0,2,3
 513 198 513 198 513 251 c 0,4,5
 513 274 513 274 484 288 c 0,6,7
 460 299 460 299 431 299 c 0,8,9
 353 299 353 299 300 247 c 0,10,11
 254 202 254 202 254 153 c 0,12,13
 254 109 254 109 295 109 c 0,0,1
773 -13 m 0,14,15
 689 -13 689 -13 608 73 c 1,16,17
 606 36 606 36 613 -55 c 1,18,19
 621 -98 621 -98 621 -92 c 1,20,21
 621 -115 621 -115 596 -130 c 1,22,23
 506 -131 506 -131 506 21 c 0,24,25
 506 61 506 61 513 96 c 1,26,27
 411 3 411 3 317 3 c 0,28,29
 260 3 260 3 212 43 c 0,30,31
 160 85 160 85 160 142 c 0,32,33
 160 244 160 244 244 309 c 0,34,35
 322 370 322 370 426 370 c 0,36,37
 501 370 501 370 549 326 c 1,38,39
 552 347 552 347 552 367 c 0,40,41
 552 454 552 454 508 511 c 0,42,43
 459 574 459 574 369 574 c 0,44,45
 305 574 305 574 289 525 c 1,46,47
 283 480 283 480 276 433 c 128,-1,48
 269 386 269 386 224 386 c 0,49,50
 215 386 215 386 205 387 c 0,51,52
 160 394 160 394 160 469 c 0,53,54
 160 549 160 549 226 602 c 0,55,56
 287 652 287 652 369 652 c 0,57,58
 481 652 481 652 569.5 569.5 c 128,-1,59
 658 487 658 487 658 376 c 0,60,61
 658 351 658 351 643 310 c 0,62,63
 627 265 627 265 624 244 c 0,64,65
 618 196 618 196 668.5 128.5 c 128,-1,66
 719 61 719 61 769 61 c 0,67,68
 853 61 853 61 912 128 c 0,69,70
 969 192 969 192 969 277 c 0,71,72
 970 397 970 397 916 463 c 0,73,74
 876 513 876 513 761 573 c 1,75,76
 752 585 752 585 752 601 c 0,77,78
 752 621 752 621 769 637 c 1,79,80
 899 614 899 614 986 522 c 0,81,82
 1076 427 1076 427 1076 300 c 0,83,84
 1076 172 1076 172 988 79.5 c 128,-1,85
 900 -13 900 -13 773 -13 c 0,14,15
EndSplineSet
EndChar

StartChar: Ga
Encoding: 3095 3095 66
Width: 969
GlyphClass: 2
Flags: W
AnchorPoint: "Anchor-1" 0 0 basechar 0
LayerCount: 2
Fore
SplineSet
859 761 m 0,0,1
 774 761 774 761 568 613 c 1,2,3
 773 84 773 84 906 -18 c 1,4,5
 875 -73 875 -73 844 -73 c 0,6,7
 761 -73 761 -73 640 173 c 0,8,9
 606 242 606 242 506 491 c 1,10,11
 417 343 417 343 322 149 c 1,12,13
 301 99 301 99 280 48 c 1,14,15
 250 -19 250 -19 231 -16 c 0,16,17
 172 -6 172 -6 172 20 c 0,18,19
 172 29 172 29 176 43 c 0,20,21
 190 93 190 93 282 272 c 0,22,23
 345 394 345 394 408 515 c 1,24,25
 246 415 246 415 190 415 c 0,26,27
 159 415 159 415 160 476 c 1,28,29
 223 505 223 505 388 609 c 0,30,31
 571 724 571 724 652 767 c 0,32,33
 796 843 796 843 869 843 c 0,34,35
 963 843 963 843 1008 792 c 1,36,37
 1018 766 1018 766 1018.5 760 c 128,-1,38
 1019 754 1019 754 1019 684 c 1,39,40
 949 733 949 733 944 736 c 0,41,42
 902 761 902 761 859 761 c 0,0,1
EndSplineSet
EndChar

StartChar: Gha
Encoding: 3096 3096 67
Width: 1185
GlyphClass: 2
Flags: W
AnchorPoint: "Anchor-3" 0 0 basechar 0
AnchorPoint: "Anchor-1" 0 0 basechar 0
LayerCount: 2
Fore
SplineSet
756 692 m 0,0,1
 736 702 736 702 709 729 c 128,-1,2
 682 756 682 756 664 766 c 0,3,4
 633 783 633 783 587 783 c 0,5,6
 534 783 534 783 486 714 c 1,7,8
 401 588 401 588 397 584 c 0,9,10
 333 515 333 515 238 515 c 0,11,12
 194 515 194 515 160 562 c 1,13,14
 186 588 186 588 204 593 c 0,15,16
 212 595 212 595 254 595 c 0,17,18
 307 595 307 595 351 663 c 0,19,20
 431 787 431 787 433 790 c 0,21,22
 493 858 493 858 586 858 c 0,23,24
 658 858 658 858 705.5 829 c 128,-1,25
 753 800 753 800 789 729 c 0,26,27
 794 719 794 719 794 709 c 0,28,29
 794 687 794 687 776 687 c 0,30,31
 767 687 767 687 756 692 c 0,0,1
664 -9 m 0,32,33
 610 -9 610 -9 553 41 c 1,34,35
 553 9 553 9 579.5 -47 c 128,-1,36
 606 -103 606 -103 606 -121 c 0,37,38
 606 -158 606 -158 568 -155 c 0,39,40
 519 -152 519 -152 491 -86 c 0,41,42
 469 -34 469 -34 469 29 c 0,43,44
 469 44 469 44 468 44 c 1,45,46
 472 44 472 44 403.5 10 c 128,-1,47
 335 -24 335 -24 279 -18 c 0,48,49
 173 -6 173 -6 173 89 c 0,50,51
 173 194 173 194 264 250 c 0,52,53
 341 298 341 298 452 298 c 0,54,55
 490 298 490 298 529 282 c 0,56,57
 578 262 578 262 578 231 c 0,58,59
 578 220 578 220 574 200 c 128,-1,60
 570 180 570 180 570 170 c 0,61,62
 570 136 570 136 607 111 c 0,63,64
 641 89 641 89 676 89 c 0,65,66
 741 89 741 89 777 149 c 0,67,68
 806 198 806 198 806 269 c 0,69,70
 806 386 806 386 737 472 c 0,71,72
 707 509 707 509 629 548 c 128,-1,73
 551 587 551 587 547 592.5 c 128,-1,74
 543 598 543 598 543 607 c 0,75,76
 543 619 543 619 553 628.5 c 128,-1,77
 563 638 563 638 576 637 c 0,78,79
 718 625 718 625 818 506 c 1,80,81
 912 392 912 392 912 257 c 0,82,83
 912 219 912 219 889 140 c 1,84,85
 893 91 893 91 965 91 c 0,86,87
 1088 91 1088 91 1088 273 c 0,88,89
 1088 344 1088 344 1044 421 c 0,90,91
 1016 469 1016 469 962 530 c 0,92,93
 918 580 918 580 918 587 c 0,94,95
 918 599 918 599 930 604 c 128,-1,96
 942 609 942 609 951 605 c 0,97,98
 1063 561 1063 561 1128 444 c 1,99,100
 1184 346 1184 346 1184 246 c 0,101,102
 1184 147 1184 147 1130 74 c 0,103,104
 1072 -6 1072 -6 976 -6 c 0,105,106
 879 -6 879 -6 841 69 c 1,107,108
 776 -9 776 -9 664 -9 c 0,32,33
251 97 m 0,109,110
 251 53 251 53 306 60 c 0,111,112
 377 69 377 69 430 116 c 0,113,114
 478 158 478 158 478 196 c 0,115,116
 478 217 478 217 460 226 c 1,117,118
 392 229 392 229 326 195 c 0,119,120
 251 156 251 156 251 97 c 0,109,110
EndSplineSet
EndChar

StartChar: Telugu_M
Encoding: 3097 3097 68
Width: 972
GlyphClass: 2
Flags: W
AnchorPoint: "Anchor-1" 0 0 basechar 0
LayerCount: 2
Fore
SplineSet
641 498 m 1,0,-1
 640 550 l 2,1,2
 638 621 638 621 691 621 c 0,3,4
 741 621 741 621 741 567 c 1,5,6
 741 569 741 569 732 498 c 1,7,-1
 834 498 l 1,8,-1
 834 417 l 1,9,-1
 729 417 l 1,10,11
 720 365 720 365 686 365 c 0,12,13
 660 365 660 365 649 419 c 1,14,15
 586 415 586 415 551 417 c 1,16,17
 537 387 537 387 429 270 c 1,18,19
 332 163 332 163 328 130 c 0,20,21
 327 121 327 121 327 114 c 0,22,23
 327 95 327 95 336.5 90.5 c 128,-1,24
 346 86 346 86 355 82 c 1,25,26
 405 84 405 84 432 125 c 1,27,28
 452 163 452 163 472 200 c 1,29,30
 497 240 497 240 542 240 c 0,31,32
 557 240 557 240 572 230.5 c 128,-1,33
 587 221 587 221 587 207 c 0,34,35
 586 157 586 157 619 116 c 1,36,37
 653 71 653 71 702 71 c 0,38,39
 753 71 753 71 808 109 c 0,40,41
 869 151 869 151 869 199 c 1,42,-1
 780 317 l 1,43,44
 842 323 842 323 902 292 c 0,45,46
 973 255 973 255 973 187 c 0,47,48
 972 96 972 96 880 37 c 0,49,50
 800 -14 800 -14 704 -14 c 0,51,52
 657 -14 657 -14 607 25 c 0,53,54
 593 36 593 36 527 101 c 1,55,56
 461 39 461 39 434 22 c 0,57,58
 385 -9 385 -9 332 -6 c 0,59,60
 285 -4 285 -4 256 28.5 c 128,-1,61
 227 61 227 61 227 108 c 0,62,63
 227 163 227 163 348.5 308 c 128,-1,64
 470 453 470 453 470 502 c 0,65,66
 470 571 470 571 403 575 c 0,67,68
 338 579 338 579 298.5 544 c 128,-1,69
 259 509 259 509 266 452 c 0,70,71
 267 443 267 443 274.5 425.5 c 128,-1,72
 282 408 282 408 282 398 c 0,73,74
 282 349 282 349 229 348 c 0,75,76
 197 347 197 347 178 376 c 0,77,78
 160 402 160 402 160 439 c 0,79,80
 160 530 160 530 231 592 c 0,81,82
 298 650 298 650 393 656 c 0,83,84
 476 661 476 661 524 623 c 1,85,86
 575 581 575 581 575 498 c 1,87,88
 613 498 613 498 641 498 c 1,0,-1
EndSplineSet
EndChar

StartChar: Ca
Encoding: 3098 3098 69
Width: 953
GlyphClass: 2
Flags: W
AnchorPoint: "Anchor-1" 0 0 basechar 0
LayerCount: 2
Fore
SplineSet
735 1 m 0,0,1
 653 1 653 1 555 80 c 1,2,3
 462 -29 462 -29 333 -29 c 0,4,5
 293 -29 293 -29 261 11 c 128,-1,6
 229 51 229 51 229 92 c 0,7,8
 229 161 229 161 333 296 c 1,9,10
 289 294 289 294 174 281 c 1,11,12
 160 284 160 284 160 317 c 0,13,14
 160 341 160 341 166 371 c 1,15,16
 252 379 252 379 481 379 c 1,17,18
 493 369 493 369 492 328 c 1,19,20
 475 298 475 298 429 250 c 0,21,22
 378 198 378 198 361 173 c 0,23,24
 329 126 329 126 329 77 c 0,25,26
 329 37 329 37 353 37 c 0,27,28
 385 37 385 37 453 106 c 0,29,30
 510 165 510 165 547 223 c 1,31,32
 554 232 554 232 561 232 c 0,33,34
 574 232 574 232 602 192 c 0,35,36
 643 134 643 134 659 117 c 0,37,38
 697 77 697 77 734 77 c 0,39,40
 775 77 775 77 808 126 c 0,41,42
 837 170 837 170 837 213 c 0,43,44
 837 280 837 280 737 352 c 1,45,46
 644 414 644 414 552 475 c 1,47,48
 451 552 451 552 451 628 c 0,49,50
 451 706 451 706 560 772 c 0,51,52
 657 831 657 831 742 831 c 0,53,54
 812 831 812 831 806 832 c 1,55,56
 855 829 855 829 855 810 c 0,57,58
 855 796 855 796 777 773 c 0,59,60
 672 742 672 742 632 722 c 0,61,62
 553 683 553 683 553 628 c 0,63,64
 553 572 553 572 655 503 c 1,65,66
 749 442 749 442 844 382 c 1,67,68
 945 304 945 304 945 225 c 0,69,70
 945 139 945 139 884 71 c 0,71,72
 820 1 820 1 735 1 c 0,0,1
EndSplineSet
EndChar

StartChar: Cha
Encoding: 3099 3099 70
Width: 948
GlyphClass: 2
Flags: W
AnchorPoint: "Anchor-1" 0 0 basechar 0
LayerCount: 2
Fore
SplineSet
595 64 m 1,0,-1
 594 37 l 2,1,2
 593 3 593 3 607 -44 c 0,3,4
 627 -111 627 -111 629 -124 c 1,5,6
 598 -138 598 -138 581 -136 c 0,7,8
 504 -127 504 -127 504 -26 c 0,9,10
 504 10 504 10 514 56 c 1,11,12
 404 -13 404 -13 335 -13 c 0,13,14
 298 -13 298 -13 264.5 28.5 c 128,-1,15
 231 70 231 70 231 108 c 0,16,17
 231 159 231 159 267 217 c 0,18,19
 268 217 268 217 336 311 c 1,20,21
 157 299 157 299 177 299 c 1,22,23
 150 299 150 299 150 352 c 0,24,25
 150 375 150 375 159 380 c 0,26,27
 174 388 174 388 245 390 c 0,28,29
 295 391 295 391 380 389 c 0,30,31
 479 387 479 387 480 387 c 0,32,33
 498 371 498 371 498 353 c 0,34,35
 498 344 498 344 458 299 c 0,36,37
 406 241 406 241 383 206 c 0,38,39
 343 144 343 144 343 94 c 0,40,41
 343 71 343 71 353 60 c 1,42,43
 398 70 398 70 438 118 c 1,44,45
 467 159 467 159 496.5 200 c 128,-1,46
 526 241 526 241 549 241 c 0,47,48
 577 241 577 241 600 205 c 0,49,50
 642 137 642 137 646 133 c 0,51,52
 681 91 681 91 737 82 c 0,53,54
 783 74 783 74 814 130 c 0,55,56
 839 177 839 177 839 230 c 0,57,58
 839 299 839 299 739 370 c 1,59,60
 646 430 646 430 553 491 c 1,61,62
 453 566 453 566 453 645 c 0,63,64
 453 728 453 728 558 790 c 0,65,66
 652 846 652 846 751 845 c 0,67,68
 830 844 830 844 853 818 c 1,69,70
 854 796 854 796 772 777 c 0,71,72
 655 750 655 750 624 736 c 0,73,74
 547 703 547 703 555 645 c 1,75,76
 565 582 565 582 667 514 c 1,77,78
 759 456 759 456 851 398 c 1,79,80
 947 324 947 324 947 242 c 0,81,82
 947 150 947 150 897 78 c 0,83,84
 840 -3 840 -3 748 -8 c 0,85,86
 658 -13 658 -13 595 64 c 1,0,-1
EndSplineSet
EndChar

StartChar: Ja
Encoding: 3100 3100 71
Width: 984
GlyphClass: 2
Flags: W
AnchorPoint: "Anchor-1" 0 0 basechar 0
LayerCount: 2
Fore
SplineSet
712 -11 m 0,0,1
 607 -11 607 -11 522 76 c 1,2,3
 409 -3 409 -3 331 -3 c 0,4,5
 229 -3 229 -3 229 103 c 0,6,7
 229 154 229 154 353.5 306 c 128,-1,8
 478 458 478 458 478 505 c 0,9,10
 478 575 478 575 408 575 c 0,11,12
 357 575 357 575 314 540 c 0,13,14
 268 502 268 502 268 452 c 0,15,16
 268 441 268 441 276.5 421.5 c 128,-1,17
 285 402 285 402 285 393 c 0,18,19
 285 351 285 351 234 351 c 0,20,21
 160 351 160 351 160 445 c 256,22,23
 160 539 160 539 239 598 c 0,24,25
 311 652 311 652 408 652 c 0,26,27
 562 652 562 652 582 493 c 0,28,29
 590 427 590 427 695 427 c 0,30,31
 738 427 738 427 769.5 448.5 c 128,-1,32
 801 470 801 470 801 509 c 0,33,34
 801 550 801 550 758 566 c 128,-1,35
 715 582 715 582 715 600 c 0,36,37
 715 634 715 634 757 634 c 0,38,39
 812 634 812 634 847 597 c 128,-1,40
 882 560 882 560 882 505 c 0,41,42
 882 433 882 433 811 383 c 0,43,44
 747 338 747 338 671 338 c 0,45,46
 596 338 596 338 533 406 c 1,47,48
 476 330 476 330 418 255 c 1,49,50
 331 140 331 140 331 112 c 0,51,52
 331 103 331 103 340 94 c 128,-1,53
 349 85 349 85 358 85 c 0,54,55
 386 85 386 85 431 107 c 0,56,57
 481 131 481 131 483 155 c 0,58,59
 487 189 487 189 490 206 c 1,60,61
 511 234 511 234 548 234 c 0,62,63
 563 234 563 234 578.5 224.5 c 128,-1,64
 594 215 594 215 594 202 c 0,65,66
 592 152 592 152 625 109 c 0,67,68
 660 63 660 63 709 63 c 0,69,70
 759 63 759 63 816 103 c 0,71,72
 878 146 878 146 878 193 c 0,73,74
 878 205 878 205 839 253 c 0,75,76
 814 285 814 285 788 316 c 1,77,78
 984 304 984 304 984 181 c 0,79,80
 984 103 984 103 884 42 c 0,81,82
 796 -11 796 -11 712 -11 c 0,0,1
EndSplineSet
EndChar

StartChar: Jha
Encoding: 3101 3101 72
Width: 1555
GlyphClass: 2
Flags: W
AnchorPoint: "Anchor-4" 0 0 basechar 0
AnchorPoint: "Anchor-1" 0 0 basechar 0
LayerCount: 2
Fore
SplineSet
1185 76 m 1,0,1
 1219 -23 1219 -23 1219 -73 c 0,2,3
 1219 -139 1219 -139 1169 -156 c 1,4,5
 1104 -134 1104 -134 1104 -52 c 0,6,7
 1104 -30 1104 -30 1109.5 8 c 128,-1,8
 1115 46 1115 46 1115 56 c 256,9,10
 1115 66 1115 66 1113 71 c 1,11,12
 1057 2 1057 2 976 2 c 0,13,14
 871 2 871 2 832 132 c 1,15,16
 777 46 777 46 656 7 c 0,17,18
 576 -19 576 -19 491 -19 c 0,19,20
 363 -19 363 -19 273 45 c 0,21,22
 171 117 171 117 171 240 c 0,23,24
 171 388 171 388 295 476 c 1,25,26
 175 474 175 474 162 536 c 0,27,28
 160 545 160 545 160 551 c 0,29,30
 160 583 160 583 196 583 c 0,31,32
 217 583 217 583 250 572.5 c 128,-1,33
 283 562 283 562 283 562 c 1,34,35
 349 562 349 562 436 635 c 1,36,37
 514 703 514 703 591 771 c 1,38,39
 689 844 689 844 781 844 c 0,40,41
 838 844 838 844 903 796 c 1,42,43
 971 744 971 744 972 689 c 1,44,45
 958 679 958 679 944 679 c 0,46,47
 921 679 921 679 870 722.5 c 128,-1,48
 819 766 819 766 784 766 c 0,49,50
 729 766 729 766 663 701 c 1,51,52
 616 646 616 646 568 592 c 1,53,54
 671 601 671 601 766 535 c 0,55,56
 885 452 885 452 885 297 c 0,57,58
 885 275 885 275 879.5 244 c 128,-1,59
 874 213 874 213 874 191 c 0,60,61
 874 152 874 152 892 127 c 0,62,63
 912 99 912 99 947 98 c 0,64,65
 1109 93 1109 93 1109 246 c 0,66,67
 1109 356 1109 356 1029 465 c 0,68,69
 1007 495 1007 495 1007 520 c 0,70,71
 1007 539 1007 539 1025 539 c 0,72,73
 1038 539 1038 539 1061 528 c 0,74,75
 1103 507 1103 507 1148 437 c 0,76,77
 1184 380 1184 380 1191 290 c 1,78,79
 1198 183 1198 183 1206 161 c 0,80,81
 1228 101 1228 101 1308 80 c 1,82,83
 1368 80 1368 80 1408 139 c 1,84,85
 1442 191 1442 191 1445 255 c 0,86,87
 1448 327 1448 327 1424 392 c 0,88,89
 1410 430 1410 430 1378 483 c 0,90,91
 1353 525 1353 525 1353 539 c 0,92,93
 1353 562 1353 562 1373 562 c 0,94,95
 1396 562 1396 562 1428 523 c 1,96,97
 1477 482 1477 482 1509 410 c 0,98,99
 1539 343 1539 343 1541 283 c 0,100,101
 1541 271 1541 271 1539.5 242 c 128,-1,102
 1538 213 1538 213 1538 198 c 1,103,104
 1524 115 1524 115 1487 83 c 1,105,106
 1414 -7 1414 -7 1336 -7 c 0,107,108
 1261 -7 1261 -7 1185 76 c 1,0,1
276 268 m 0,109,110
 276 191 276 191 323.5 142 c 128,-1,111
 371 93 371 93 456 79 c 0,112,113
 479 75 479 75 504 75 c 0,114,115
 611 75 611 75 692 136 c 0,116,117
 781 203 781 203 781 307 c 0,118,119
 781 399 781 399 711 464.5 c 128,-1,120
 641 530 641 530 548 530 c 0,121,122
 438 530 438 530 357 451 c 128,-1,123
 276 372 276 372 276 268 c 0,109,110
EndSplineSet
EndChar

StartChar: Nya
Encoding: 3102 3102 73
Width: 1238
GlyphClass: 2
Flags: W
AnchorPoint: "Anchor-1" 0 0 basechar 0
LayerCount: 2
Fore
SplineSet
1233 426 m 1,0,1
 1233 430 1233 430 1237 379 c 1,2,3
 1239 340 1239 340 1230 340 c 2,4,-1
 929 338 l 1,5,6
 901 255 901 255 857 200 c 1,7,8
 807 145 807 145 756 89 c 1,9,-1
 755 87 l 1,10,11
 755 61 755 61 798 13 c 0,12,13
 843 -38 843 -38 874 -38 c 0,14,15
 911 -38 911 -38 980 6.5 c 128,-1,16
 1049 51 1049 51 1090 51 c 0,17,18
 1108 51 1108 51 1108 39 c 0,19,20
 1108 -2 1108 -2 1005 -65 c 1,21,22
 906 -124 906 -124 856 -124 c 0,23,24
 795 -124 795 -124 747 -66 c 0,25,26
 723 -37 723 -37 681 45 c 1,27,28
 594 1 594 1 478 1 c 0,29,30
 383 1 383 1 319 58 c 0,31,32
 252 118 252 118 252 212 c 0,33,34
 252 283 252 283 296 327 c 128,-1,35
 340 371 340 371 411 371 c 0,36,37
 488 371 488 371 588 303 c 0,38,39
 685 237 685 237 721 166 c 1,40,41
 772 207 772 207 804 291 c 1,42,43
 832 368 832 368 832 441 c 0,44,45
 832 612 832 612 744 612 c 0,46,47
 681 612 681 612 639 562 c 0,48,49
 602 518 602 518 596 454 c 0,50,51
 592 411 592 411 542 411 c 0,52,53
 511 411 511 411 503 442 c 1,54,55
 498 469 498 469 493 496 c 1,56,57
 469 564 469 564 343 564 c 0,58,59
 258 564 258 564 258 516 c 0,60,61
 258 491 258 491 311 461.5 c 128,-1,62
 364 432 364 432 364 425 c 0,63,64
 364 411 364 411 333 375 c 1,65,66
 160 430 160 430 160 525 c 0,67,68
 160 585 160 585 222 623 c 0,69,70
 275 656 275 656 340 656 c 0,71,72
 455 656 455 656 536 573 c 1,73,74
 613 693 613 693 716 693 c 0,75,76
 832 693 832 693 893 613 c 0,77,78
 947 541 947 541 944 424 c 1,79,-1
 1009 424 l 1,80,81
 1009 428 1009 428 1006.5 464 c 128,-1,82
 1004 500 1004 500 1004 525 c 0,83,84
 1004 638 1004 638 1054 638 c 0,85,86
 1088 638 1088 638 1098 600 c 0,87,88
 1103 583 1103 583 1103 536 c 0,89,90
 1103 482 1103 482 1105 423 c 1,91,92
 1145 421 1145 421 1233 426 c 1,0,1
405 272 m 0,93,94
 333 272 333 272 333 206 c 0,95,96
 333 148 333 148 393 110 c 0,97,98
 445 77 445 77 507 77 c 0,99,100
 570 77 570 77 646 119 c 1,101,102
 625 186 625 186 549 231 c 0,103,104
 479 272 479 272 405 272 c 0,93,94
EndSplineSet
EndChar

StartChar: Lla
Encoding: 3103 3103 74
Width: 990
GlyphClass: 2
Flags: W
AnchorPoint: "Anchor-1" 0 0 basechar 0
LayerCount: 2
Fore
SplineSet
459 573 m 0,0,1
 417 573 417 573 407 633 c 1,2,3
 404 680 404 680 402 727 c 1,4,5
 430 745 430 745 465 745 c 256,6,7
 500 745 500 745 507 719 c 0,8,9
 509 713 509 713 509 661 c 0,10,11
 509 573 509 573 459 573 c 0,0,1
546 92 m 1,12,13
 468 -9 468 -9 335 -9 c 0,14,15
 244 -9 244 -9 197 77 c 0,16,17
 160 145 160 145 160 245 c 0,18,19
 160 363 160 363 270.5 470 c 128,-1,20
 381 577 381 577 499 577 c 0,21,22
 542 577 542 577 574 548 c 128,-1,23
 606 519 606 519 606 477 c 0,24,25
 606 416 606 416 552.5 366 c 128,-1,26
 499 316 499 316 434 318 c 0,27,28
 374 319 374 319 331 370 c 1,29,30
 345 406 345 406 347 411 c 0,31,32
 358 429 358 429 380 429 c 0,33,34
 388 429 388 429 406 408.5 c 128,-1,35
 424 388 424 388 432 388 c 0,36,37
 450 388 450 388 466 393 c 0,38,39
 524 410 524 410 524 464 c 0,40,41
 524 473 524 473 508.5 486 c 128,-1,42
 493 499 493 499 484 499 c 0,43,44
 401 499 401 499 329 404 c 0,45,46
 262 315 262 315 262 228 c 0,47,48
 262 180 262 180 281 129 c 0,49,50
 305 64 305 64 343 64 c 0,51,52
 404 64 404 64 457 126 c 0,53,54
 507 185 507 185 511 248 c 1,55,56
 532 267 532 267 581 267 c 0,57,58
 605 267 605 267 620 214 c 0,59,60
 645 126 645 126 649 117 c 0,61,62
 674 64 674 64 720 64 c 0,63,64
 787 64 787 64 842 145 c 0,65,66
 892 220 892 220 892 290 c 0,67,68
 892 386 892 386 848 446 c 0,69,70
 825 478 825 478 779 503 c 0,71,72
 729 530 729 530 716 544 c 0,73,74
 711 549 711 549 711 558 c 0,75,76
 711 588 711 588 732 596 c 1,77,78
 848 577 848 577 922.5 495 c 128,-1,79
 997 413 997 413 997 298 c 0,80,81
 997 186 997 186 914 91 c 0,82,83
 827 -8 827 -8 717 -8 c 0,84,85
 592 -8 592 -8 546 92 c 1,12,13
EndSplineSet
EndChar

StartChar: TTha
Encoding: 3104 3104 75
Width: 941
GlyphClass: 2
Flags: W
AnchorPoint: "Anchor-1" 0 0 basechar 0
LayerCount: 2
Fore
SplineSet
495 223 m 0,0,1
 427 223 427 223 427 282 c 0,2,3
 427 318 427 318 467 336 c 1,4,5
 497 351 497 351 537 351 c 0,6,7
 607 351 607 351 607 299 c 0,8,9
 607 260 607 260 569 239 c 0,10,11
 538 223 538 223 495 223 c 0,0,1
160 533 m 1,12,13
 191 558 191 558 220 558 c 0,14,15
 232 558 232 558 253 552.5 c 128,-1,16
 274 547 274 547 285 547 c 0,17,18
 343 547 343 547 433 617 c 1,19,20
 514 682 514 682 596 748 c 1,21,22
 697 818 697 818 784 818 c 0,23,24
 842 818 842 818 901 782 c 0,25,26
 968 741 968 741 977 682 c 0,27,28
 982 652 982 652 954 652 c 0,29,30
 952 652 952 652 890 695 c 128,-1,31
 828 738 828 738 781 738 c 0,32,33
 731 738 731 738 665 686 c 0,34,35
 637 664 637 664 569 596 c 1,36,37
 686 596 686 596 784 502.5 c 128,-1,38
 882 409 882 409 882 294 c 0,39,40
 882 142 882 142 741 58 c 0,41,42
 623 -12 623 -12 461 -12 c 0,43,44
 341 -12 341 -12 257 49 c 0,45,46
 165 117 165 117 162 234 c 0,47,48
 160 301 160 301 190 358 c 0,49,50
 211 397 211 397 247 432 c 0,51,52
 278 462 278 462 278 464 c 0,53,54
 278 467 278 467 270 467 c 0,55,56
 167 467 167 467 160 533 c 1,12,13
268 258 m 0,57,58
 268 177 268 177 322 116 c 128,-1,59
 376 55 376 55 456 55 c 0,60,61
 581 55 581 55 671 114 c 0,62,63
 774 181 774 181 774 300 c 0,64,65
 774 388 774 388 718 454 c 0,66,67
 659 524 659 524 572 524 c 0,68,69
 462 524 462 524 368 447 c 0,70,71
 268 365 268 365 268 258 c 0,57,58
EndSplineSet
EndChar

StartChar: DDa
Encoding: 3105 3105 76
Width: 953
GlyphClass: 2
Flags: W
AnchorPoint: "Anchor-1" 0 0 basechar 0
LayerCount: 2
Fore
SplineSet
567 569 m 1,0,-1
 546 565 l 1,1,-1
 547 565 l 2,2,3
 387 565 387 565 607 569 c 0,4,5
 673 570 673 570 720 558 c 0,6,7
 785 541 785 541 806 500 c 0,8,9
 809 494 809 494 809 487 c 0,10,11
 809 451 809 451 771 451 c 0,12,13
 763 451 763 451 754 454 c 0,14,15
 726 465 726 465 697 476 c 0,16,17
 663 488 663 488 637 489 c 0,18,19
 494 492 494 492 379 400 c 0,20,21
 260 304 260 304 262 175 c 0,22,23
 263 143 263 143 280 115 c 0,24,25
 300 82 300 82 329 82 c 0,26,27
 465 82 465 82 456 242 c 1,28,29
 478 270 478 270 500 276 c 0,30,31
 510 278 510 278 557 278 c 1,32,33
 561 197 561 197 586 140 c 0,34,35
 621 61 621 61 687 61 c 0,36,37
 692 61 692 61 730.5 63.5 c 128,-1,38
 769 66 769 66 789 68 c 0,39,40
 815 71 815 71 794 71 c 0,41,42
 753 71 753 71 712 96 c 0,43,44
 661 127 661 127 661 181 c 0,45,46
 661 239 661 239 701.5 273 c 128,-1,47
 742 307 742 307 811 305 c 1,48,49
 884 304 884 304 922 258 c 0,50,51
 955 219 955 219 955 157 c 0,52,53
 955 80 955 80 871 29 c 0,54,55
 798 -15 798 -15 714 -15 c 0,56,57
 550 -15 550 -15 509 92 c 1,58,59
 436 2 436 2 313 2 c 0,60,61
 247 2 247 2 202 57 c 0,62,63
 160 108 160 108 160 176 c 0,64,65
 160 238 160 238 199 316 c 0,66,67
 243 402 243 402 299 427 c 1,68,69
 260 427 260 427 229 441 c 0,70,71
 190 459 190 459 188 492 c 1,72,73
 214 524 214 524 250 524 c 1,74,75
 271 517 271 517 293 517 c 0,76,77
 346 517 346 517 416.5 569 c 128,-1,78
 487 621 487 621 557 673 c 1,79,80
 652 737 652 737 750 759 c 0,81,82
 762 762 762 762 774 762 c 0,83,84
 839 762 839 762 898.5 707 c 128,-1,85
 958 652 958 652 958 591 c 2,86,-1
 958 512 l 1,87,88
 916 561 916 561 874 610 c 1,89,90
 818 666 818 666 765 666 c 0,91,92
 757 666 757 666 748 665 c 0,93,94
 681 654 681 654 641 631 c 0,95,96
 608 613 608 613 567 569 c 1,0,-1
802 236 m 0,97,98
 763 228 763 228 756 224 c 0,99,100
 731 213 731 213 728 183 c 0,101,102
 726 161 726 161 749 144.5 c 128,-1,103
 772 128 772 128 805 128 c 0,104,105
 842 128 842 128 873 150 c 1,106,107
 884 163 884 163 884 178 c 0,108,109
 884 201 884 201 860.5 219 c 128,-1,110
 837 237 837 237 812 237 c 0,111,112
 807 237 807 237 802 236 c 0,97,98
EndSplineSet
EndChar

StartChar: DDha
Encoding: 3106 3106 77
Width: 955
GlyphClass: 2
Flags: W
AnchorPoint: "Anchor-1" 0 0 basechar 0
LayerCount: 2
Fore
SplineSet
569 564 m 1,0,1
 621 573 621 573 649 573 c 0,2,3
 707 573 707 573 754 551 c 1,4,5
 806 528 806 528 804 493 c 0,6,7
 803 476 803 476 789.5 465 c 128,-1,8
 776 454 776 454 763 454 c 0,9,10
 757 454 757 454 754 456 c 0,11,12
 684 499 684 499 637 499 c 0,13,14
 494 499 494 499 382 411 c 0,15,16
 262 317 262 317 262 178 c 0,17,18
 262 147 262 147 280 118 c 0,19,20
 300 86 300 86 329 86 c 0,21,22
 449 86 449 86 449 206 c 0,23,24
 449 223 449 223 445 246 c 1,25,26
 467 274 467 274 489 280 c 0,27,28
 498 282 498 282 546 282 c 1,29,30
 547 205 547 205 579 142 c 0,31,32
 619 63 619 63 687 63 c 0,33,34
 711 63 711 63 755 68 c 128,-1,35
 799 73 799 73 793 74 c 0,36,37
 754 80 754 80 746 81 c 1,38,39
 723 87 723 87 704 101 c 0,40,41
 661 133 661 133 661 185 c 0,42,43
 661 243 661 243 712 277 c 1,44,45
 756 308 756 308 817 308 c 0,46,47
 869 308 869 308 910.5 265 c 128,-1,48
 952 222 952 222 952 169 c 0,49,50
 952 81 952 81 866 31 c 0,51,52
 793 -12 793 -12 698 -12 c 0,53,54
 656 -12 656 -12 610.5 4.5 c 128,-1,55
 565 21 565 21 547 43 c 1,56,57
 543 35 543 35 543 23 c 0,58,59
 543 4 543 4 556.5 -41 c 128,-1,60
 570 -86 570 -86 570 -101 c 0,61,62
 570 -140 570 -140 546 -138 c 0,63,64
 505 -134 505 -134 483 -93 c 0,65,66
 465 -58 465 -58 465 -8 c 0,67,68
 465 31 465 31 476 58 c 1,69,70
 403 6 403 6 313 6 c 0,71,72
 244 6 244 6 200 59 c 1,73,74
 160 109 160 109 160 180 c 0,75,76
 160 237 160 237 193 309 c 0,77,78
 232 394 232 394 293 432 c 1,79,80
 258 432 258 432 230 448 c 0,81,82
 197 466 197 466 193 498 c 1,83,84
 233 528 233 528 253 528 c 0,85,86
 264 528 264 528 285.5 521 c 128,-1,87
 307 514 307 514 318 514 c 0,88,89
 391 514 391 514 457 580 c 0,90,91
 516 640 516 640 574 701 c 1,92,93
 651 767 651 767 750 767 c 0,94,95
 813 767 813 767 884 714 c 1,96,97
 958 657 958 657 958 596 c 2,98,-1
 958 515 l 1,99,100
 875 611 875 611 818 660 c 0,101,102
 787 687 787 687 739 687 c 0,103,104
 687 687 687 687 642 645 c 1,105,106
 606 605 606 605 569 564 c 1,0,1
737 185 m 0,107,108
 734 158 734 158 754 142 c 128,-1,109
 774 126 774 126 804 126 c 0,110,111
 869 126 869 126 875 180 c 0,112,113
 878 207 878 207 857 225 c 128,-1,114
 836 243 836 243 811 243 c 0,115,116
 744 243 744 243 737 185 c 0,107,108
EndSplineSet
EndChar

StartChar: Telugu_N
Encoding: 3107 3107 78
Width: 1110
GlyphClass: 2
Flags: W
AnchorPoint: "Anchor-1" 0 0 basechar 0
LayerCount: 2
Fore
SplineSet
306 502 m 0,0,1
 260 498 260 498 260 458 c 0,2,3
 260 416 260 416 323.5 367 c 128,-1,4
 387 318 387 318 436 318 c 0,5,6
 444 318 444 318 451 320 c 1,7,-1
 454 311 l 2,8,9
 466 278 466 278 467 273 c 0,10,11
 467 270 467 270 464 252 c 1,12,13
 441 235 441 235 383 213.5 c 128,-1,14
 325 192 325 192 304 177 c 0,15,16
 269 152 269 152 269 114 c 0,17,18
 269 107 269 107 270 100 c 128,-1,19
 271 93 271 93 278 84 c 128,-1,20
 285 75 285 75 291 75 c 0,21,22
 346 75 346 75 410 125 c 1,23,24
 462 168 462 168 514 210 c 1,25,26
 544 197 544 197 546.5 194.5 c 128,-1,27
 549 192 549 192 563 165 c 1,28,29
 525 82 525 82 423 29 c 0,30,31
 334 -18 334 -18 272 -10 c 0,32,33
 234 -5 234 -5 205.5 23.5 c 128,-1,34
 177 52 177 52 177 88 c 0,35,36
 177 139 177 139 216 195 c 0,37,38
 252 247 252 247 299 276 c 1,39,40
 220 337 220 337 206 351 c 0,41,42
 160 399 160 399 160 458 c 0,43,44
 160 513 160 513 199 552.5 c 128,-1,45
 238 592 238 592 293 592 c 0,46,47
 350 592 350 592 412 559 c 0,48,49
 440 544 440 544 516 490 c 1,50,51
 615 617 615 617 792 617 c 0,52,53
 919 617 919 617 1019 517.5 c 128,-1,54
 1119 418 1119 418 1119 294 c 0,55,56
 1119 158 1119 158 1036 73.5 c 128,-1,57
 953 -11 953 -11 817 -11 c 0,58,59
 725 -11 725 -11 657 44 c 0,60,61
 585 103 585 103 585 193 c 0,62,63
 585 293 585 293 663 363.5 c 128,-1,64
 741 434 741 434 842 434 c 0,65,66
 916 434 916 434 987 376 c 1,67,68
 990 365 990 365 990 355 c 0,69,70
 990 322 990 322 957 322 c 1,71,72
 961 322 961 322 916 339 c 128,-1,73
 871 356 871 356 846 356 c 0,74,75
 782 356 782 356 732 308.5 c 128,-1,76
 682 261 682 261 682 197 c 0,77,78
 682 142 682 142 722 108.5 c 128,-1,79
 762 75 762 75 818 75 c 0,80,81
 1016 75 1016 75 1016 273 c 0,82,83
 1016 381 1016 381 948.5 452.5 c 128,-1,84
 881 524 881 524 774 524 c 0,85,86
 584 524 584 524 590 402 c 1,87,88
 561 371 561 371 524 371 c 0,89,90
 518 371 518 371 482 407 c 0,91,92
 439 451 439 451 406 472 c 0,93,94
 353 506 353 506 306 502 c 0,0,1
EndSplineSet
EndChar

StartChar: Ta
Encoding: 3108 3108 79
Width: 948
GlyphClass: 2
Flags: W
AnchorPoint: "Anchor-1" 0 0 basechar 0
LayerCount: 2
Fore
SplineSet
268 367 m 1,0,1
 346 341 346 341 353 341 c 0,2,3
 444 341 444 341 457 394 c 0,4,5
 462 415 462 415 428 428 c 0,6,7
 402 438 402 438 377 438 c 0,8,9
 344 438 344 438 313 417.5 c 128,-1,10
 282 397 282 397 268 367 c 1,0,1
475 79 m 1,11,12
 455 123 455 123 455 148 c 0,13,14
 455 218 455 218 513 288 c 0,15,16
 563 349 563 349 634 386 c 1,17,18
 511 514 511 514 511 615 c 0,19,20
 511 731 511 731 614 819 c 0,21,22
 713 903 713 903 831 903 c 0,23,24
 862 903 862 903 898 892 c 0,25,26
 938 879 938 879 938 862 c 0,27,28
 938 859 938 859 937 857 c 0,29,30
 917 839 917 839 847 839 c 0,31,32
 763 839 763 839 686 778 c 1,33,34
 606 713 606 713 606 631 c 0,35,36
 606 529 606 529 695 451 c 1,37,38
 777 389 777 389 860 328 c 1,39,40
 949 251 949 251 949 154 c 0,41,42
 949 63 949 63 807 19 c 0,43,44
 709 -11 709 -11 589 -11 c 0,45,46
 442 -11 442 -11 316 51 c 0,47,48
 160 128 160 128 160 259 c 0,49,50
 160 370 160 370 219 437 c 1,51,52
 280 508 280 508 390 508 c 0,53,54
 439 508 439 508 487 479 c 0,55,56
 541 446 541 446 541 400 c 0,57,58
 541 347 541 347 481 307 c 0,59,60
 425 270 425 270 359 270 c 0,61,62
 345 270 345 270 332 272 c 128,-1,63
 319 274 319 274 286 285 c 0,64,65
 258 294 258 294 258 293 c 0,66,67
 252 232 252 232 306 171 c 0,68,69
 375 94 375 94 475 79 c 1,11,12
702 326 m 1,70,71
 662 326 662 326 610.5 267 c 128,-1,72
 559 208 559 208 559 166 c 0,73,74
 559 82 559 82 689 82 c 0,75,76
 732 82 732 82 783 97 c 0,77,78
 850 116 850 116 850 146 c 0,79,80
 850 192 850 192 795 248 c 0,81,82
 770 273 770 273 702 326 c 1,70,71
EndSplineSet
EndChar

StartChar: Tha
Encoding: 3109 3109 80
Width: 922
GlyphClass: 2
Flags: W
AnchorPoint: "Anchor-1" 0 0 basechar 0
LayerCount: 2
Fore
SplineSet
420 354 m 256,0,1
 420 380 420 380 456 400 c 1,2,3
 488 416 488 416 517 416 c 0,4,5
 540 416 540 416 567.5 401 c 128,-1,6
 595 386 595 386 595 364 c 0,7,8
 595 339 595 339 557 318 c 1,9,10
 524 301 524 301 496 301 c 256,11,12
 468 301 468 301 446 313 c 0,13,14
 420 328 420 328 420 354 c 256,0,1
583 -89 m 0,15,16
 584 -130 584 -130 555 -130 c 0,17,18
 549 -130 549 -130 543 -128 c 0,19,20
 466 -108 466 -108 466 26 c 0,21,22
 466 58 466 58 470 77 c 1,23,24
 462 61 462 61 424 31 c 0,25,26
 374 -8 374 -8 304 -8 c 0,27,28
 229 -8 229 -8 190 71 c 0,29,30
 160 133 160 133 160 218 c 0,31,32
 160 334 160 334 267 436 c 1,33,34
 222 443 222 443 205 453 c 0,35,36
 178 470 178 470 178 507 c 0,37,38
 178 534 178 534 230 534 c 0,39,40
 241 534 241 534 262 527.5 c 128,-1,41
 283 521 283 521 294 521 c 0,42,43
 359 521 359 521 439 585 c 1,44,45
 510 644 510 644 582 703 c 1,46,47
 674 767 674 767 769 767 c 0,48,49
 827 767 827 767 877 717 c 128,-1,50
 927 667 927 667 927 608 c 0,51,52
 927 588 927 588 863 538 c 1,53,54
 841 618 841 618 831 638 c 0,55,56
 802 695 802 695 754 695 c 0,57,58
 685 695 685 695 528 566 c 1,59,60
 681 563 681 563 801 459 c 1,61,62
 925 350 925 350 925 200 c 0,63,64
 925 108 925 108 863.5 44.5 c 128,-1,65
 802 -19 802 -19 710 -19 c 0,66,67
 647 -19 647 -19 603 10 c 0,68,69
 568 34 568 34 525 93 c 1,70,71
 530 65 530 65 558 -2 c 0,72,73
 582 -60 582 -60 583 -89 c 0,15,16
499 501 m 0,74,75
 405 501 405 501 333 403 c 0,76,77
 266 312 266 312 266 214 c 0,78,79
 266 173 266 173 280 124 c 0,80,81
 299 61 299 61 329 61 c 0,82,83
 344 61 344 61 412 164.5 c 128,-1,84
 480 268 480 268 504 268 c 0,85,86
 533 268 533 268 562 213 c 0,87,88
 611 121 611 121 618 112 c 0,89,90
 658 57 658 57 715 57 c 0,91,92
 767 57 767 57 798 106 c 1,93,94
 824 149 824 149 824 204 c 0,95,96
 824 327 824 327 722 416 c 1,97,98
 623 501 623 501 499 501 c 0,74,75
EndSplineSet
EndChar

StartChar: Da
Encoding: 3110 3110 81
Width: 922
GlyphClass: 2
Flags: W
AnchorPoint: "Anchor-1" 0 0 basechar 0
LayerCount: 2
Fore
SplineSet
304 2 m 0,0,1
 229 2 229 2 190 81 c 0,2,3
 160 143 160 143 160 228 c 0,4,5
 160 344 160 344 267 446 c 1,6,7
 221 453 221 453 204 464 c 0,8,9
 178 480 178 480 178 519 c 0,10,11
 178 544 178 544 230 544 c 0,12,13
 241 544 241 544 262 537.5 c 128,-1,14
 283 531 283 531 294 531 c 0,15,16
 359 531 359 531 439 595 c 1,17,18
 510 654 510 654 582 713 c 1,19,20
 674 777 674 777 769 777 c 0,21,22
 827 777 827 777 877 727 c 128,-1,23
 927 677 927 677 927 618 c 0,24,25
 927 598 927 598 863 548 c 1,26,27
 841 627 841 627 831 648 c 0,28,29
 802 705 802 705 754 705 c 0,30,31
 685 705 685 705 528 576 c 1,32,33
 681 573 681 573 800 469 c 0,34,35
 925 360 925 360 925 210 c 0,36,37
 925 118 925 118 863.5 54.5 c 128,-1,38
 802 -9 802 -9 710 -9 c 0,39,40
 588 -9 588 -9 503 109 c 1,41,42
 374 2 374 2 304 2 c 0,0,1
499 511 m 0,43,44
 405 511 405 511 333 413 c 0,45,46
 266 322 266 322 266 224 c 0,47,48
 266 182 266 182 280 134 c 0,49,50
 299 71 299 71 329 71 c 0,51,52
 344 71 344 71 412 174.5 c 128,-1,53
 480 278 480 278 504 278 c 256,54,55
 528 278 528 278 563 222 c 0,56,57
 620 130 620 130 629 118 c 0,58,59
 674 62 674 62 723 62 c 0,60,61
 769 62 769 62 799 117 c 0,62,63
 824 164 824 164 824 214 c 0,64,65
 824 337 824 337 722 426 c 1,66,67
 623 511 623 511 499 511 c 0,43,44
EndSplineSet
EndChar

StartChar: Dha
Encoding: 3111 3111 82
Width: 922
GlyphClass: 2
Flags: W
AnchorPoint: "Anchor-1" 0 0 basechar 0
LayerCount: 2
Fore
SplineSet
583 -89 m 0,0,1
 584 -130 584 -130 555 -130 c 0,2,3
 549 -130 549 -130 543 -128 c 0,4,5
 466 -108 466 -108 466 26 c 0,6,7
 466 58 466 58 470 77 c 1,8,9
 462 61 462 61 424 31 c 0,10,11
 374 -8 374 -8 304 -8 c 0,12,13
 229 -8 229 -8 190 71 c 0,14,15
 160 133 160 133 160 218 c 0,16,17
 160 334 160 334 267 436 c 1,18,19
 222 443 222 443 205 453 c 0,20,21
 178 470 178 470 178 507 c 0,22,23
 178 534 178 534 230 534 c 0,24,25
 241 534 241 534 262 527.5 c 128,-1,26
 283 521 283 521 294 521 c 0,27,28
 359 521 359 521 439 585 c 1,29,30
 510 644 510 644 582 703 c 1,31,32
 674 767 674 767 769 767 c 0,33,34
 827 767 827 767 877 717 c 128,-1,35
 927 667 927 667 927 608 c 0,36,37
 927 588 927 588 863 538 c 1,38,39
 841 618 841 618 831 638 c 0,40,41
 802 695 802 695 754 695 c 0,42,43
 685 695 685 695 528 566 c 1,44,45
 681 563 681 563 801 459 c 1,46,47
 925 350 925 350 925 200 c 0,48,49
 925 108 925 108 863.5 44.5 c 128,-1,50
 802 -19 802 -19 710 -19 c 0,51,52
 647 -19 647 -19 603 10 c 0,53,54
 568 34 568 34 525 93 c 1,55,56
 530 65 530 65 558 -2 c 0,57,58
 582 -60 582 -60 583 -89 c 0,0,1
499 501 m 0,59,60
 405 501 405 501 333 403 c 0,61,62
 266 312 266 312 266 214 c 0,63,64
 266 173 266 173 280 124 c 0,65,66
 299 61 299 61 329 61 c 0,67,68
 344 61 344 61 412 164.5 c 128,-1,69
 480 268 480 268 504 268 c 0,70,71
 533 268 533 268 562 213 c 0,72,73
 611 121 611 121 618 112 c 0,74,75
 658 57 658 57 715 57 c 0,76,77
 767 57 767 57 798 106 c 1,78,79
 824 149 824 149 824 204 c 0,80,81
 824 327 824 327 722 416 c 1,82,83
 623 501 623 501 499 501 c 0,59,60
EndSplineSet
EndChar

StartChar: Na
Encoding: 3112 3112 83
Width: 777
GlyphClass: 2
Flags: W
AnchorPoint: "Anchor-1" 0 0 basechar 0
LayerCount: 2
Fore
SplineSet
460 594 m 1,0,1
 571 586 571 586 663 504 c 0,2,3
 767 410 767 410 767 278 c 0,4,5
 767 155 767 155 690.5 77.5 c 128,-1,6
 614 0 614 0 494 0 c 0,7,8
 444 0 444 0 382 35 c 0,9,10
 358 49 358 49 282 103 c 1,11,12
 273 36 273 36 251 -71 c 1,13,14
 236 -90 236 -90 205 -90 c 0,15,16
 160 -90 160 -90 160 -47 c 0,17,18
 160 39 160 39 220 186 c 1,19,20
 262 211 262 211 285 211 c 0,21,22
 305 211 305 211 398 143 c 128,-1,23
 491 75 491 75 546 75 c 0,24,25
 596 75 596 75 634 150 c 0,26,27
 666 215 666 215 666 272 c 0,28,29
 666 371 666 371 598 448 c 0,30,31
 527 529 527 529 428 529 c 0,32,33
 407 529 407 529 364 518.5 c 128,-1,34
 321 508 321 508 299 508 c 0,35,36
 219 508 219 508 219 560 c 0,37,38
 219 602 219 602 279 602 c 0,39,40
 287 602 287 602 301 602 c 0,41,42
 315 601 315 601 320 601 c 0,43,44
 345 601 345 601 413 656 c 0,45,46
 509 734 509 734 548 758 c 0,47,48
 636 813 636 813 710 813 c 0,49,50
 731 813 731 813 770 797 c 1,51,-1
 810 728 l 1,52,53
 709 728 709 728 664 718 c 128,-1,54
 619 708 619 708 574 678 c 1,55,56
 517 636 517 636 460 594 c 1,0,1
EndSplineSet
EndChar

StartChar: Pa
Encoding: 3114 3114 84
Width: 910
GlyphClass: 2
Flags: W
AnchorPoint: "Anchor-1" 0 0 basechar 0
LayerCount: 2
Fore
SplineSet
589 721 m 0,0,1
 523 721 523 721 474 655 c 1,2,3
 435 594 435 594 395 533 c 1,4,5
 344 467 344 467 274 467 c 0,6,7
 244 467 244 467 212 479 c 0,8,9
 176 493 176 493 160 515 c 1,10,11
 170 542 170 542 199 547 c 0,12,13
 208 549 208 549 253 549 c 0,14,15
 306 549 306 549 349 612 c 0,16,17
 428 727 428 727 429 728 c 0,18,19
 488 791 488 791 580 791 c 0,20,21
 732 791 732 791 773 666 c 1,22,23
 765 646 765 646 753 629 c 1,24,25
 718 659 718 659 684 688 c 1,26,27
 638 721 638 721 589 721 c 0,0,1
498 66 m 1,28,29
 416 -27 416 -27 301 -30 c 0,30,31
 252 -32 252 -32 213 -1 c 128,-1,32
 174 30 174 30 174 79 c 0,33,34
 174 177 174 177 258 230 c 0,35,36
 329 275 329 275 433 275 c 0,37,38
 573 275 573 275 573 199 c 0,39,40
 573 192 573 192 568 177.5 c 128,-1,41
 563 163 563 163 563 156 c 0,42,43
 563 127 563 127 593.5 95.5 c 128,-1,44
 624 64 624 64 653 64 c 0,45,46
 715 64 715 64 757 119 c 0,47,48
 796 169 796 169 796 233 c 0,49,50
 796 462 796 462 542 527 c 0,51,52
 522 532 522 532 522 557 c 0,53,54
 522 587 522 587 587 581 c 0,55,56
 715 570 715 570 810 462 c 1,57,58
 901 357 901 357 901 233 c 0,59,60
 901 136 901 136 832.5 64.5 c 128,-1,61
 764 -7 764 -7 667 -7 c 0,62,63
 564 -7 564 -7 498 66 c 1,28,29
259 93 m 0,64,65
 259 57 259 57 309 57 c 0,66,67
 360 57 360 57 412 91 c 0,68,69
 470 128 470 128 474 177 c 0,70,71
 477 207 477 207 426 207 c 0,72,73
 371 207 371 207 319 176 c 1,74,75
 259 142 259 142 259 93 c 0,64,65
EndSplineSet
EndChar

StartChar: Pha
Encoding: 3115 3115 85
Width: 900
GlyphClass: 2
Flags: W
AnchorPoint: "Anchor-1" 0 0 basechar 0
LayerCount: 2
Fore
SplineSet
746 641 m 0,0,1
 724 641 724 641 680.5 684.5 c 128,-1,2
 637 728 637 728 582 728 c 0,3,4
 536 728 536 728 486 662 c 0,5,6
 440 602 440 602 395 541 c 1,7,8
 334 475 334 475 264 475 c 0,9,10
 197 475 197 475 160 524 c 1,11,12
 184 547 184 547 202 553 c 0,13,14
 216 558 216 558 251 558 c 0,15,16
 308 558 308 558 352 621 c 0,17,18
 392 679 392 679 432 738 c 1,19,20
 490 801 490 801 581 801 c 0,21,22
 642 801 642 801 703 770 c 0,23,24
 776 733 776 733 776 678 c 0,25,26
 776 641 776 641 746 641 c 0,0,1
558 32 m 1,27,28
 556 23 556 23 556 13 c 0,29,30
 556 -14 556 -14 574 -72 c 128,-1,31
 592 -130 592 -130 592 -148 c 0,32,33
 592 -178 592 -178 558 -173 c 0,34,35
 464 -158 464 -158 464 -50 c 0,36,37
 464 -21 464 -21 474 32 c 1,38,39
 449 9 449 9 391 -9 c 0,40,41
 337 -25 337 -25 295 -25 c 0,42,43
 248 -25 248 -25 209 7.5 c 128,-1,44
 170 40 170 40 175 84 c 0,45,46
 185 177 185 177 286 236 c 0,47,48
 373 286 373 286 449 279 c 0,49,50
 530 271 530 271 547 256 c 0,51,52
 567 238 567 238 567 164 c 0,53,54
 567 137 567 137 597 103 c 128,-1,55
 627 69 627 69 654 69 c 0,56,57
 717 69 717 69 758 124 c 0,58,59
 797 175 797 175 797 239 c 0,60,61
 797 349 797 349 730.5 425.5 c 128,-1,62
 664 502 664 502 545 535 c 0,63,64
 535 538 535 538 535 555 c 0,65,66
 535 599 535 599 588 592 c 0,67,68
 727 573 727 573 817 466 c 0,69,70
 902 365 902 365 902 239 c 0,71,72
 902 137 902 137 835 66 c 128,-1,73
 768 -5 768 -5 667 -5 c 0,74,75
 590 -5 590 -5 558 32 c 1,27,28
303 59 m 0,76,77
 367 68 367 68 420 103 c 0,78,79
 477 141 477 141 477 183 c 0,80,81
 477 208 477 208 441 208 c 0,82,83
 416 208 416 208 378 196 c 0,84,85
 347 186 347 186 334 177 c 0,86,87
 272 135 272 135 272 84 c 0,88,89
 272 55 272 55 303 59 c 0,76,77
EndSplineSet
EndChar

StartChar: Ba
Encoding: 3116 3116 86
Width: 868
GlyphClass: 2
Flags: W
AnchorPoint: "Anchor-1" 0 0 basechar 0
LayerCount: 2
Fore
SplineSet
607 -14 m 0,0,1
 502 -14 502 -14 451 77 c 1,2,3
 436 50 436 50 383.5 16.5 c 128,-1,4
 331 -17 331 -17 299 -17 c 0,5,6
 257 -17 257 -17 227.5 12.5 c 128,-1,7
 198 42 198 42 198 84 c 0,8,9
 198 160 198 160 252 244 c 0,10,11
 261 259 261 259 351 374 c 0,12,13
 405 443 405 443 405 482 c 0,14,15
 405 511 405 511 381.5 525.5 c 128,-1,16
 358 540 358 540 328 540 c 0,17,18
 299 540 299 540 272 524 c 0,19,20
 242 505 242 505 244 480 c 0,21,22
 247 441 247 441 259 420 c 0,23,24
 274 392 274 392 319 358 c 1,25,26
 278 319 278 319 270 319 c 0,27,28
 222 319 222 319 189 371 c 0,29,30
 160 416 160 416 160 468 c 0,31,32
 160 535 160 535 227 577 c 0,33,34
 286 614 286 614 356 614 c 0,35,36
 415 614 415 614 457 581 c 0,37,38
 502 545 502 545 502 487 c 0,39,40
 502 440 502 440 448 365 c 1,41,42
 397 299 397 299 346 233 c 1,43,44
 292 154 292 154 292 98 c 0,45,46
 292 80 292 80 305 59 c 1,47,48
 337 58 337 58 377 106 c 0,49,50
 414 151 414 151 413 174 c 2,51,-1
 412 199 l 2,52,53
 408 295 408 295 474 295 c 0,54,55
 509 295 509 295 509 254 c 0,56,57
 509 247 509 247 508 233.5 c 128,-1,58
 507 220 507 220 507 214 c 0,59,60
 507 152 507 152 529 111 c 0,61,62
 558 59 558 59 616 59 c 0,63,64
 675 59 675 59 726 142 c 0,65,66
 772 216 772 216 772 279 c 0,67,68
 772 358 772 358 729 431 c 0,69,70
 700 479 700 479 647 532 c 0,71,72
 601 577 601 577 600 584 c 0,73,74
 597 601 597 601 609 606.5 c 128,-1,75
 621 612 621 612 639 608 c 0,76,77
 741 583 741 583 809 462 c 0,78,79
 867 358 867 358 867 258 c 0,80,81
 867 148 867 148 791.5 67 c 128,-1,82
 716 -14 716 -14 607 -14 c 0,0,1
EndSplineSet
EndChar

StartChar: Bha
Encoding: 3117 3117 87
Width: 884
GlyphClass: 2
Flags: W
AnchorPoint: "Anchor-1" 0 0 basechar 0
LayerCount: 2
Fore
SplineSet
524 59 m 1,0,1
 530 24 530 24 550 -31 c 0,2,3
 571 -90 571 -90 577 -121 c 1,4,5
 541 -139 541 -139 532 -138 c 0,6,7
 485 -132 485 -132 461 -90 c 0,8,9
 442 -57 442 -57 442 -11 c 0,10,11
 442 22 442 22 451 38 c 1,12,13
 414 7 414 7 340 7 c 0,14,15
 290 7 290 7 248 33 c 0,16,17
 199 62 199 62 199 109 c 0,18,19
 199 174 199 174 262 244 c 1,20,21
 320 299 320 299 379 354 c 1,22,23
 442 415 442 415 442 458 c 0,24,25
 442 510 442 510 368 510 c 0,26,27
 329 510 329 510 298 498 c 0,28,29
 257 482 257 482 257 449 c 0,30,31
 257 420 257 420 288.5 389.5 c 128,-1,32
 320 359 320 359 320 350 c 1,33,34
 301 309 301 309 261 309 c 0,35,36
 218 309 218 309 188 349 c 0,37,38
 160 386 160 386 160 430 c 0,39,40
 160 505 160 505 244 546 c 0,41,42
 305 576 305 576 398 582 c 0,43,44
 443 585 443 585 491 549 c 128,-1,45
 539 513 539 513 539 464 c 0,46,47
 539 405 539 405 477 337 c 1,48,49
 420 282 420 282 363 227 c 1,50,51
 301 165 301 165 301 121 c 256,52,53
 301 77 301 77 345 81 c 0,54,55
 401 86 401 86 431 142 c 0,56,57
 456 189 456 189 454 244 c 1,58,59
 491 255 491 255 491 255 c 1,60,61
 533 255 533 255 552 231 c 1,62,63
 563 58 563 58 693 58 c 0,64,65
 734 58 734 58 763 78 c 128,-1,66
 792 98 792 98 788 133 c 0,67,68
 782 191 782 191 720 275 c 1,69,70
 664 347 664 347 609 419 c 1,71,72
 551 503 551 503 551 564 c 0,73,74
 551 653 551 653 622 712 c 0,75,76
 689 768 689 768 780 768 c 0,77,78
 875 768 875 768 889 725 c 1,79,80
 875 704 875 704 841 702 c 1,81,82
 812 703 812 703 783 703 c 1,83,84
 720 700 720 700 681.5 660.5 c 128,-1,85
 643 621 643 621 647 566 c 0,86,87
 652 486 652 486 713 422 c 1,88,89
 767 369 767 369 820 317 c 1,90,91
 877 247 877 247 877 149 c 0,92,93
 877 71 877 71 827.5 28 c 128,-1,94
 778 -15 778 -15 699 -15 c 0,95,96
 576 -15 576 -15 524 59 c 1,0,1
EndSplineSet
EndChar

StartChar: Ma
Encoding: 3118 3118 88
Width: 1243
GlyphClass: 2
Flags: W
AnchorPoint: "Anchor-3" 0 0 basechar 0
AnchorPoint: "Anchor-1" 0 0 basechar 0
LayerCount: 2
Fore
SplineSet
1049 -7 m 0,0,1
 945 -7 945 -7 912 50 c 1,2,3
 872 -5 872 -5 759 -5 c 0,4,5
 688 -5 688 -5 638 22 c 0,6,7
 595 45 595 45 543 104 c 1,8,9
 497 46 497 46 414 11 c 0,10,11
 335 -23 335 -23 258 -23 c 0,12,13
 160 -23 160 -23 160 55 c 0,14,15
 160 161 160 161 281 237 c 0,16,17
 393 308 393 308 513 301 c 0,18,19
 584 297 584 297 610 239 c 1,20,21
 629 186 629 186 649 133 c 1,22,23
 682 78 682 78 771 78 c 0,24,25
 853 78 853 78 853 149 c 0,26,27
 853 219 853 219 723 294 c 1,28,29
 601 360 601 360 480 426 c 1,30,31
 350 512 350 512 350 609 c 0,32,33
 350 736 350 736 473 813 c 0,34,35
 579 879 579 879 714 879 c 0,36,37
 751 879 751 879 782.5 865.5 c 128,-1,38
 814 852 814 852 814 839 c 0,39,40
 814 834 814 834 807 830 c 0,41,42
 787 820 787 820 715 820 c 0,43,44
 624 820 624 820 543 767 c 0,45,46
 451 707 451 707 451 621 c 0,47,48
 451 550 451 550 550 478 c 0,49,50
 602 440 602 440 752 362 c 0,51,52
 883 294 883 294 920 257 c 0,53,54
 935 241 935 241 951 190 c 0,55,56
 969 132 969 132 981 114 c 0,57,58
 1003 78 1003 78 1041 83 c 0,59,60
 1125 94 1125 94 1141 233 c 0,61,62
 1143 249 1143 249 1143 265 c 0,63,64
 1143 354 1143 354 1083 428 c 0,65,66
 1044 476 1044 476 972 525 c 0,67,68
 912 565 912 565 912 571 c 0,69,70
 912 585 912 585 931.5 591.5 c 128,-1,71
 951 598 951 598 963 594 c 0,72,73
 1087 549 1087 549 1167 441 c 0,74,75
 1243 337 1243 337 1243 225 c 0,76,77
 1243 136 1243 136 1191 68 c 0,78,79
 1135 -7 1135 -7 1049 -7 c 0,0,1
247 49 m 1,80,81
 315 49 315 49 410 99 c 0,82,83
 515 154 515 154 515 212 c 0,84,85
 515 217 515 217 514 222 c 1,86,87
 496 228 496 228 475 228 c 0,88,89
 401 228 401 228 322.5 174.5 c 128,-1,90
 244 121 244 121 244 68 c 0,91,92
 244 58 244 58 247 49 c 1,80,81
EndSplineSet
EndChar

StartChar: Telugu_Ya
Encoding: 3119 3119 89
Width: 1550
GlyphClass: 2
Flags: W
AnchorPoint: "Anchor-4" 0 0 basechar 0
AnchorPoint: "Anchor-1" 0 0 basechar 0
LayerCount: 2
Fore
SplineSet
719 113 m 1,0,1
 616 -67 616 -67 401 -67 c 0,2,3
 292 -67 292 -67 223 26 c 0,4,5
 160 110 160 110 160 222 c 0,6,7
 160 370 160 370 246 489 c 0,8,9
 340 619 340 619 483 619 c 0,10,11
 613 619 613 619 700 506 c 0,12,13
 751 440 751 440 777 316 c 0,14,15
 806 177 806 177 823 144 c 1,16,17
 864 70 864 70 967 70 c 0,18,19
 1023 70 1023 70 1073 105 c 0,20,21
 1127 143 1127 143 1127 197 c 0,22,23
 1127 256 1127 256 1103 288 c 1,24,25
 979 349 979 349 936 381 c 0,26,27
 846 450 846 450 846 537 c 0,28,29
 846 673 846 673 968 783 c 0,30,31
 1086 890 1086 890 1224 890 c 0,32,33
 1276 890 1276 890 1274 868 c 0,34,35
 1273 856 1273 856 1185 822 c 0,36,37
 1078 781 1078 781 1024 733 c 0,38,39
 938 658 938 658 938 544 c 0,40,41
 938 488 938 488 1004 444 c 1,42,43
 1067 411 1067 411 1131 377 c 1,44,45
 1204 336 1204 336 1214 290 c 0,46,47
 1240 176 1240 176 1244 165 c 0,48,49
 1274 83 1274 83 1331 83 c 256,50,51
 1388 83 1388 83 1423 134 c 0,52,53
 1454 180 1454 180 1454 238 c 0,54,55
 1454 365 1454 365 1375 445 c 0,56,57
 1360 460 1360 460 1314 490 c 0,58,59
 1275 515 1275 515 1267 531 c 0,60,61
 1263 538 1263 538 1263 543 c 0,62,63
 1263 564 1263 564 1299 558 c 0,64,65
 1420 539 1420 539 1491 423 c 0,66,67
 1550 326 1550 326 1550 212 c 0,68,69
 1550 127 1550 127 1493 63 c 0,70,71
 1434 -4 1434 -4 1350 -4 c 0,72,73
 1237 -4 1237 -4 1181 83 c 1,74,75
 1091 -13 1091 -13 943 -13 c 0,76,77
 871 -13 871 -13 817 20 c 0,78,79
 772 48 772 48 722 110 c 1,80,-1
 719 113 l 1,0,1
514 530 m 0,81,82
 404 530 404 530 331 427 c 0,83,84
 266 334 266 334 266 219 c 0,85,86
 266 142 266 142 305 85 c 0,87,88
 349 21 349 21 422 21 c 0,89,90
 525 21 525 21 604 110 c 0,91,92
 680 196 680 196 680 300 c 0,93,94
 680 379 680 379 637 449 c 0,95,96
 588 530 588 530 514 530 c 0,81,82
EndSplineSet
EndChar

StartChar: Ra
Encoding: 3120 3120 90
Width: 906
GlyphClass: 2
Flags: W
AnchorPoint: "Anchor-1" 0 0 basechar 0
LayerCount: 2
Fore
SplineSet
160 535 m 1,0,1
 191 560 191 560 220 560 c 0,2,3
 232 560 232 560 253 554.5 c 128,-1,4
 274 549 274 549 285 549 c 0,5,6
 343 549 343 549 433 619 c 1,7,8
 514 684 514 684 596 750 c 1,9,10
 697 820 697 820 784 820 c 0,11,12
 842 820 842 820 901 784 c 0,13,14
 968 743 968 743 977 684 c 0,15,16
 982 654 982 654 954 654 c 0,17,18
 952 654 952 654 890 697 c 128,-1,19
 828 740 828 740 781 740 c 0,20,21
 731 740 731 740 665 688 c 0,22,23
 637 666 637 666 569 598 c 1,24,25
 686 598 686 598 784 504.5 c 128,-1,26
 882 411 882 411 882 296 c 0,27,28
 882 144 882 144 741 60 c 0,29,30
 623 -10 623 -10 461 -10 c 0,31,32
 341 -10 341 -10 257 51 c 0,33,34
 165 119 165 119 162 236 c 0,35,36
 160 303 160 303 190 360 c 0,37,38
 211 399 211 399 247 434 c 0,39,40
 278 464 278 464 278 466 c 0,41,42
 278 469 278 469 270 469 c 0,43,44
 167 469 167 469 160 535 c 1,0,1
268 260 m 0,45,46
 268 179 268 179 322 118 c 128,-1,47
 376 57 376 57 456 57 c 0,48,49
 581 57 581 57 671 116 c 0,50,51
 774 183 774 183 774 302 c 0,52,53
 774 390 774 390 718 456 c 0,54,55
 659 526 659 526 572 526 c 0,56,57
 462 526 462 526 368 449 c 0,58,59
 268 367 268 367 268 260 c 0,45,46
EndSplineSet
EndChar

StartChar: RRa
Encoding: 3121 3121 91
Width: 1043
GlyphClass: 2
Flags: W
AnchorPoint: "Anchor-1" 0 0 basechar 0
LayerCount: 2
Fore
SplineSet
476 331 m 1,0,1
 453 317 453 317 391 296.5 c 128,-1,2
 329 276 329 276 306 276 c 0,3,4
 253 276 253 276 253 315 c 0,5,6
 253 346 253 346 279 354 c 0,7,8
 291 358 291 358 330 358 c 0,9,10
 374 358 374 358 427 390 c 0,11,12
 485 426 485 426 485 468 c 0,13,14
 485 514 485 514 425 514 c 0,15,16
 336 514 336 514 288 438 c 0,17,18
 248 374 248 374 248 279 c 0,19,20
 248 207 248 207 272 150 c 0,21,22
 304 76 304 76 366 76 c 0,23,24
 444 76 444 76 480 124 c 0,25,26
 494 142 494 142 517 212 c 0,27,28
 533 260 533 260 562 260 c 0,29,30
 595 260 595 260 624 208 c 1,31,32
 649 160 649 160 675 112 c 1,33,34
 711 60 711 60 764 60 c 0,35,36
 952 60 952 60 952 287 c 0,37,38
 952 365 952 365 911 438 c 0,39,40
 864 523 864 523 791 523 c 0,41,42
 735 523 735 523 735 468 c 0,43,44
 735 404 735 404 792 363 c 1,45,-1
 798 310 l 1,46,47
 685 297 685 297 481 283 c 1,48,-1
 476 331 l 1,0,1
653 380 m 1,49,50
 631 405 631 405 631 468 c 0,51,52
 631 597 631 597 800 597 c 0,53,54
 914 597 914 597 983 500 c 0,55,56
 1045 414 1045 414 1045 295 c 0,57,58
 1045 169 1045 169 970 80 c 0,59,60
 890 -14 890 -14 765 -14 c 0,61,62
 699 -14 699 -14 652 29 c 0,63,64
 616 61 616 61 581 130 c 1,65,66
 504 0 504 0 359 0 c 0,67,68
 259 0 259 0 205 97 c 1,69,70
 160 175 160 175 160 283 c 0,71,72
 160 411 160 411 225 496 c 0,73,74
 296 590 296 590 420 590 c 0,75,76
 488 590 488 590 530 561 c 0,77,78
 579 528 579 528 579 463 c 0,79,80
 579 403 579 403 539 372 c 1,81,-1
 653 380 l 1,49,50
EndSplineSet
EndChar

StartChar: La
Encoding: 3122 3122 92
Width: 1031
GlyphClass: 2
Flags: W
AnchorPoint: "Anchor-1" 0 0 basechar 0
LayerCount: 2
Fore
SplineSet
276 381 m 0,0,1
 275 380 275 380 273 378 c 1,2,3
 276 358 276 358 336 339 c 0,4,5
 389 322 389 322 423 322 c 0,6,7
 466 322 466 322 501.5 349.5 c 128,-1,8
 537 377 537 377 537 418 c 0,9,10
 537 456 537 456 508 482.5 c 128,-1,11
 479 509 479 509 441 509 c 0,12,13
 388 509 388 509 334.5 467 c 128,-1,14
 281 425 281 425 276 381 c 0,0,1
605 -11 m 0,15,16
 169 -11 169 -11 160 273 c 0,17,18
 156 397 156 397 235 488 c 0,19,20
 317 583 317 583 439 583 c 0,21,22
 516 583 516 583 574 539 c 0,23,24
 637 492 637 492 635 418 c 1,25,26
 634 343 634 343 557 295 c 0,27,28
 488 251 488 251 401 251 c 0,29,30
 302 251 302 251 255 292 c 1,31,32
 272 180 272 180 321 136 c 0,33,34
 393 71 393 71 581 71 c 0,35,36
 732 71 732 71 819 126 c 0,37,38
 925 193 925 193 925 334 c 0,39,40
 925 505 925 505 798 552 c 0,41,42
 755 568 755 568 752 590 c 0,43,44
 750 612 750 612 776 618 c 1,45,46
 886 613 886 613 962 518 c 1,47,48
 1033 431 1033 431 1033 324 c 0,49,50
 1033 155 1033 155 897 66 c 0,51,52
 781 -11 781 -11 605 -11 c 0,15,16
EndSplineSet
EndChar

StartChar: LLa
Encoding: 3123 3123 93
Width: 896
GlyphClass: 2
Flags: W
AnchorPoint: "Anchor-1" 0 0 basechar 0
LayerCount: 2
Fore
SplineSet
384 207 m 1,0,1
 281 240 281 240 240 264 c 0,2,3
 160 312 160 312 160 384 c 0,4,5
 160 454 160 454 245 498 c 0,6,7
 315 535 315 535 393 535 c 0,8,9
 532 535 532 535 532 424 c 0,10,11
 532 361 532 361 476 320 c 0,12,13
 425 283 425 283 359 283 c 1,14,15
 459 268 459 268 470 268 c 0,16,17
 531 268 531 268 609.5 337 c 128,-1,18
 688 406 688 406 688 466 c 0,19,20
 688 537 688 537 616 580 c 0,21,22
 555 616 555 616 479 616 c 0,23,24
 445 616 445 616 383.5 592 c 128,-1,25
 322 568 322 568 290 568 c 0,26,27
 213 568 213 568 222 634 c 0,28,29
 226 666 226 666 307.5 666 c 128,-1,30
 389 666 389 666 532.5 751 c 128,-1,31
 676 836 676 836 755 836 c 0,32,33
 819 836 819 836 921 735 c 1,34,-1
 897 660 l 1,35,36
 831 743 831 743 754 743 c 0,37,38
 689 743 689 743 566 673 c 1,39,40
 811 620 811 620 811 487 c 0,41,42
 811 424 811 424 739 350 c 0,43,44
 700 311 700 311 614 246 c 1,45,46
 732 221 732 221 732 143 c 0,47,48
 732 72 732 72 628 28 c 0,49,50
 545 -7 545 -7 461 -7 c 0,51,52
 403 -7 403 -7 359 14 c 0,53,54
 303 41 303 41 303 93 c 0,55,56
 303 146 303 146 384 207 c 1,0,1
383 458 m 0,57,58
 344 460 344 460 307 448 c 0,59,60
 261 433 261 433 259 407 c 0,61,62
 256 378 256 378 292 362 c 0,63,64
 323 348 323 348 357 350 c 0,65,66
 446 356 446 356 446 412 c 0,67,68
 446 455 446 455 383 458 c 0,57,58
508 181 m 0,69,70
 488 181 488 181 450 152 c 1,71,72
 409 123 409 123 409 105 c 0,73,74
 409 71 409 71 488 71 c 0,75,76
 536 71 536 71 572 87 c 0,77,78
 613 104 613 104 613 134 c 0,79,80
 613 181 613 181 508 181 c 0,69,70
EndSplineSet
EndChar

StartChar: Va
Encoding: 3125 3125 94
Width: 947
GlyphClass: 2
Flags: W
AnchorPoint: "Anchor-1" 0 0 basechar 0
LayerCount: 2
Fore
SplineSet
770 -4 m 0,0,1
 617 -4 617 -4 538 97 c 1,2,3
 497 41 497 41 422 2 c 128,-1,4
 347 -37 347 -37 278 -37 c 0,5,6
 160 -37 160 -37 160 42 c 0,7,8
 160 138 160 138 279 220 c 0,9,10
 389 296 389 296 490 296 c 0,11,12
 579 296 579 296 593 260 c 1,13,14
 597 240 597 240 607 201 c 0,15,16
 622 147 622 147 671 107.5 c 128,-1,17
 720 68 720 68 775 68 c 0,18,19
 839 68 839 68 839 112 c 0,20,21
 839 210 839 210 713 308 c 1,22,23
 596 388 596 388 478 469 c 1,24,25
 352 566 352 566 352 664 c 0,26,27
 352 801 352 801 481 874 c 1,28,29
 586 935 586 935 735 935 c 0,30,31
 783 935 783 935 830 927 c 0,32,33
 901 915 901 915 893 893 c 0,34,35
 888 880 888 880 846 872 c 0,36,37
 811 865 811 865 782 865 c 0,38,39
 664 865 664 865 571 827 c 0,40,41
 446 777 446 777 446 676 c 0,42,43
 446 594 446 594 576 505 c 1,44,45
 696 425 696 425 817 344 c 1,46,47
 947 239 947 239 947 118 c 0,48,49
 947 -4 947 -4 770 -4 c 0,0,1
247 43 m 1,50,51
 256 35 256 35 274 35 c 0,52,53
 337 35 337 35 420 94 c 0,54,55
 509 156 509 156 499 212 c 1,56,57
 490 216 490 216 475 216 c 0,58,59
 412 216 412 216 331 169 c 0,60,61
 243 118 243 118 243 64 c 0,62,63
 243 53 243 53 247 43 c 1,50,51
EndSplineSet
EndChar

StartChar: Telugu_Sha
Encoding: 3126 3126 95
Width: 836
GlyphClass: 2
Flags: W
AnchorPoint: "Anchor-1" 0 0 basechar 0
LayerCount: 2
Fore
SplineSet
753 715 m 0,1,2
 717 715 717 715 650.5 692.5 c 128,-1,3
 584 670 584 670 538 641 c 1,4,5
 725 597 725 597 725 491 c 0,6,7
 725 432 725 432 643 328 c 1,8,9
 769 221 769 221 769 146 c 0,10,11
 769 69 769 69 682 25 c 0,12,13
 611 -12 611 -12 526 -12 c 0,14,15
 460 -12 460 -12 407 14 c 0,16,17
 342 47 342 47 342 107 c 0,18,19
 342 149 342 149 407 215 c 1,20,21
 457 260 457 260 507 305 c 1,22,23
 485 324 485 324 462 344 c 1,24,25
 434 365 434 365 409 365 c 0,26,27
 356 365 356 365 320 306 c 1,28,29
 294 251 294 251 268 195 c 1,30,31
 238 136 238 136 199 136 c 256,32,33
 160 136 160 136 160 179 c 0,34,35
 160 215 160 215 234.5 330 c 128,-1,36
 309 445 309 445 340 447 c 0,37,38
 442 454 442 454 578 378 c 1,39,40
 623 429 623 429 623 479 c 0,41,42
 623 519 623 519 579 544 c 0,43,44
 542 566 542 566 499 565 c 0,45,46
 448 564 448 564 417 553 c 1,47,48
 378 536 378 536 339 519 c 0,49,50
 334 517 334 517 328 517 c 0,51,52
 284 517 284 517 284 553 c 0,53,54
 284 558 284 558 286 564 c 1,55,56
 289 594 289 594 488.5 696 c 128,-1,57
 688 798 688 798 735 794 c 0,58,59
 802 788 802 788 826 758 c 0,60,61
 833 749 833 749 860 681 c 1,62,63
 853 674 853 674 843 674 c 0,64,65
 829 674 829 674 804 691 c 0,66,67
 774 711 774 711 768.5 713 c 128,-1,0
 763 715 763 715 753 715 c 0,1,2
585 254 m 1,68,69
 558 244 558 244 501.5 189 c 128,-1,70
 445 134 445 134 445 119 c 0,71,72
 445 65 445 65 537 65 c 0,73,74
 577 65 577 65 613 79 c 0,75,76
 661 97 661 97 661 130 c 0,77,78
 661 172 661 172 639 199 c 1,79,80
 612 226 612 226 585 254 c 1,68,69
EndSplineSet
EndChar

StartChar: SSa
Encoding: 3127 3127 96
Width: 896
GlyphClass: 2
Flags: W
AnchorPoint: "Anchor-1" 0 0 basechar 0
LayerCount: 2
Fore
SplineSet
816 -39 m 0,0,1
 816 -71 816 -71 843 -93 c 1,2,3
 857 -103 857 -103 893 -119 c 0,4,5
 920 -131 920 -131 920 -140 c 0,6,7
 920 -154 920 -154 900 -163 c 0,8,9
 884 -170 884 -170 868 -170 c 0,10,11
 797 -170 797 -170 758 -123 c 0,12,13
 722 -81 722 -81 722 -13 c 0,14,15
 722 5 722 5 725 23 c 1,16,17
 698 -2 698 -2 657 -2 c 0,18,19
 548 -2 548 -2 509 85 c 1,20,21
 446 -10 446 -10 304 -10 c 0,22,23
 254 -10 254 -10 216 19 c 0,24,25
 175 50 175 50 175 99 c 0,26,27
 175 196 175 196 259 250 c 0,28,29
 331 296 331 296 434 296 c 0,30,31
 574 296 574 296 574 219 c 1,32,33
 574 228 574 228 564 178 c 1,34,35
 571 141 571 141 593 116 c 0,36,37
 618 87 618 87 654 87 c 0,38,39
 717 87 717 87 758 141 c 0,40,41
 797 191 797 191 797 255 c 0,42,43
 797 444 797 444 588 531 c 0,44,45
 556 544 556 544 556 569 c 0,46,47
 556 588 556 588 585 588 c 0,48,49
 591 588 591 588 598 587 c 0,50,51
 732 568 732 568 815 477 c 128,-1,52
 898 386 898 386 898 255 c 0,53,54
 898 196 898 196 857 106.5 c 128,-1,55
 816 17 816 17 816 -39 c 0,0,1
748 656 m 1,56,57
 732 652 732 652 684 695 c 0,58,59
 632 742 632 742 582 742 c 0,60,61
 530 742 530 742 479 674 c 1,62,63
 435 612 435 612 390 550 c 1,64,65
 331 483 331 483 260 484 c 0,66,67
 202 485 202 485 160 538 c 1,68,69
 185 561 185 561 202 567 c 0,70,71
 216 571 216 571 250 572 c 0,72,73
 274 572 274 572 295 581 c 0,74,75
 326 594 326 594 368 658 c 1,76,77
 419 740 419 740 447 766 c 0,78,79
 503 820 503 820 579 820 c 0,80,81
 663 820 663 820 716 766 c 0,82,83
 758 723 758 723 758 678 c 0,84,85
 758 660 758 660 748 656 c 1,56,57
304 70 m 0,86,87
 362 70 362 70 421 107 c 128,-1,88
 480 144 480 144 480 184 c 0,89,90
 480 200 480 200 470 213 c 1,91,92
 443 227 443 227 411 227 c 0,93,94
 352 227 352 227 298 184 c 0,95,96
 248 143 248 143 248 106 c 0,97,98
 248 70 248 70 304 70 c 0,86,87
EndSplineSet
EndChar

StartChar: Sa
Encoding: 3128 3128 97
Width: 804
GlyphClass: 2
Flags: W
AnchorPoint: "Anchor-1" 0 0 basechar 0
LayerCount: 2
Fore
SplineSet
747 707 m 0,0,1
 724 707 724 707 680 719.5 c 128,-1,2
 636 732 636 732 614 732 c 0,3,4
 537 732 537 732 470 658 c 1,5,6
 417 589 417 589 364 519 c 1,7,8
 302 445 302 445 236 445 c 0,9,10
 218 445 218 445 196 457 c 0,11,12
 171 471 171 471 171 488 c 0,13,14
 171 499 171 499 182 512 c 0,15,16
 190 522 190 522 223 531 c 0,17,18
 262 541 262 541 272 547 c 0,19,20
 318 574 318 574 370 648 c 0,21,22
 431 735 431 735 459 759 c 0,23,24
 518 812 518 812 603 812 c 0,25,26
 652 812 652 812 708 793 c 0,27,28
 781 768 781 768 781 728 c 0,29,30
 781 707 781 707 747 707 c 0,0,1
309 118 m 1,31,32
 297 97 297 97 284 23 c 0,33,34
 269 -59 269 -59 256 -90 c 1,35,36
 235 -145 235 -145 199 -145 c 0,37,38
 160 -145 160 -145 160 -102 c 0,39,40
 160 -32 160 -32 207 88 c 0,41,42
 261 225 261 225 316 225 c 0,43,44
 339 225 339 225 379 188 c 0,45,46
 444 129 444 129 458 118 c 0,47,48
 510 81 510 81 561 81 c 0,49,50
 621 81 621 81 663 148 c 0,51,52
 701 208 701 208 701 275 c 0,53,54
 701 291 701 291 699 304 c 0,55,56
 680 398 680 398 653 436 c 0,57,58
 612 494 612 494 498 541 c 1,59,60
 480 553 480 553 480 565 c 0,61,62
 480 575 480 575 500 601 c 1,63,64
 634 579 634 579 717 493 c 0,65,66
 804 403 804 403 804 274 c 0,67,68
 804 168 804 168 734 83 c 0,69,70
 659 -8 659 -8 554 -4 c 0,71,72
 485 -1 485 -1 419 37 c 0,73,74
 386 56 386 56 309 118 c 1,31,32
EndSplineSet
EndChar

StartChar: Telugu_Ha
Encoding: 3129 3129 98
Width: 1034
GlyphClass: 2
Flags: W
AnchorPoint: "Anchor-1" 0 0 basechar 0
LayerCount: 2
Fore
SplineSet
536 758 m 1,0,1
 481 738 481 738 436 660 c 0,2,3
 360 530 360 530 359 530 c 0,4,5
 308 464 308 464 232 463 c 0,6,7
 207 463 207 463 185 477 c 0,8,9
 160 494 160 494 160 518 c 0,10,11
 160 552 160 552 218 554 c 0,12,13
 280 556 280 556 330 631 c 1,14,15
 372 700 372 700 414 769 c 1,16,17
 469 842 469 842 544 842 c 0,18,19
 576 842 576 842 612 831 c 0,20,21
 660 817 660 817 657 794 c 1,22,23
 656 773 656 773 607 765 c 1,24,25
 572 762 572 762 536 758 c 1,0,1
885 302 m 0,26,27
 830 302 830 302 785.5 348.5 c 128,-1,28
 741 395 741 395 741 450 c 0,29,30
 741 530 741 530 803 588 c 1,31,-1
 736 589 l 2,32,33
 688 590 688 590 642 561 c 1,34,35
 589 529 589 529 589 483 c 0,36,37
 589 439 589 439 659 371 c 1,38,39
 724 312 724 312 789 253 c 1,40,41
 858 186 858 186 858 143 c 0,42,43
 858 73 858 73 774 28 c 0,44,45
 703 -11 703 -11 626 -11 c 0,46,47
 501 -11 501 -11 436 102 c 1,48,49
 358 -10 358 -10 256 -10 c 0,50,51
 179 -10 179 -10 179 69 c 0,52,53
 179 154 179 154 246 231 c 1,54,55
 315 312 315 312 398 312 c 0,56,57
 457 312 457 312 481 249 c 1,58,59
 501 190 501 190 522 131 c 1,60,61
 559 68 559 68 649 68 c 0,62,63
 682 68 682 68 718 89 c 1,64,65
 760 112 760 112 760 141 c 0,66,67
 760 178 760 178 694 235 c 0,68,69
 578 333 578 333 570 341 c 0,70,71
 503 410 503 410 503 479 c 0,72,73
 503 564 503 564 589 618 c 0,74,75
 665 666 665 666 754 666 c 0,76,77
 860 666 860 666 944 603 c 1,78,79
 1034 534 1034 534 1034 432 c 0,80,81
 1034 374 1034 374 989.5 338 c 128,-1,82
 945 302 945 302 885 302 c 0,26,27
864 550 m 1,83,84
 850 539 850 539 836 509 c 128,-1,85
 822 479 822 479 822 460 c 0,86,87
 822 428 822 428 846 406 c 0,88,89
 872 381 872 381 912 382 c 0,90,91
 928 382 928 382 943.5 404.5 c 128,-1,92
 959 427 959 427 955 441 c 0,93,94
 947 476 947 476 921 508 c 128,-1,95
 895 540 895 540 864 550 c 1,83,84
261 60 m 0,96,97
 265 59 265 59 270 59 c 0,98,99
 304 59 304 59 358.5 112.5 c 128,-1,100
 413 166 413 166 413 206 c 0,101,102
 413 230 413 230 387 239 c 1,103,104
 348 241 348 241 295.5 183.5 c 128,-1,105
 243 126 243 126 243 86 c 0,106,107
 243 66 243 66 261 60 c 0,96,97
EndSplineSet
EndChar

StartChar: Avagraha
Encoding: 3133 3133 99
Width: 631
GlyphClass: 2
Flags: W
LayerCount: 2
Fore
SplineSet
543 48 m 0,0,1
 419 48 419 48 322 67 c 0,2,3
 162 98 162 98 162 170 c 0,4,5
 162 239 162 239 294 308 c 1,6,7
 391 353 391 353 487 398 c 1,8,9
 432 425 432 425 362 425 c 0,10,11
 334 425 334 425 280.5 413 c 128,-1,12
 227 401 227 401 201 401 c 0,13,14
 160 401 160 401 160 447 c 0,15,16
 160 502 160 502 296 502 c 0,17,18
 368 502 368 502 476 478 c 0,19,20
 614 448 614 448 614 406 c 0,21,22
 614 371 614 371 527 326 c 1,23,24
 447 289 447 289 366 252 c 1,25,26
 279 209 279 209 279 178 c 256,27,28
 279 147 279 147 373 132 c 1,29,30
 461 122 461 122 549 113 c 1,31,32
 643 101 643 101 643 78 c 0,33,34
 643 48 643 48 543 48 c 0,0,1
EndSplineSet
EndChar

StartChar: AAMatra
Encoding: 3134 3134 100
Width: 329
GlyphClass: 4
Flags: W
LayerCount: 2
Fore
SplineSet
141 389 m 0,0,1
 49 389 49 389 -5 429 c 0,2,3
 -66 474 -66 474 -66 564 c 0,4,5
 -66 650 -66 650 1 678 c 1,6,7
 -18 678 -18 678 -69 682 c 0,8,9
 -113 686 -113 686 -138 686 c 0,10,11
 -208 686 -208 686 -371.5 654.5 c 128,-1,12
 -535 623 -535 623 -604 623 c 0,13,14
 -730 623 -730 623 -791 692 c 1,15,16
 -784 725 -784 725 -768 733 c 0,17,18
 -758 738 -758 738 -718 738 c 0,19,20
 -700 738 -700 738 -665.5 730 c 128,-1,21
 -631 722 -631 722 -613 722 c 0,22,23
 -538 722 -538 722 -362 751 c 128,-1,24
 -186 780 -186 780 -111 780 c 0,25,26
 75 780 75 780 164 754 c 0,27,28
 325 707 325 707 325 567 c 0,29,30
 325 490 325 490 272 439.5 c 128,-1,31
 219 389 219 389 141 389 c 0,0,1
27 558 m 256,32,33
 27 517 27 517 52 491 c 128,-1,34
 77 465 77 465 117 465 c 0,35,36
 165 465 165 465 195 495.5 c 128,-1,37
 225 526 225 526 225 574 c 0,38,39
 225 608 225 608 200.5 630 c 128,-1,40
 176 652 176 652 142 652 c 0,41,42
 99 652 99 652 65 627 c 0,43,44
 27 599 27 599 27 558 c 256,32,33
EndSplineSet
EndChar

StartChar: Imatra
Encoding: 3135 3135 101
Width: 0
GlyphClass: 4
Flags: W
LayerCount: 2
Fore
SplineSet
-315 650 m 256,0,1
 -375 650 -375 650 -420 685 c 1,2,3
 -470 722 -470 722 -470 780 c 0,4,5
 -470 839 -470 839 -410 888 c 1,6,7
 -353 933 -353 933 -292 933 c 0,8,9
 -237 933 -237 933 -186.5 884.5 c 128,-1,10
 -136 836 -136 836 -136 781 c 0,11,12
 -136 725 -136 725 -199 685 c 0,13,14
 -255 650 -255 650 -315 650 c 256,0,1
-312 721 m 0,15,16
 -280 721 -280 721 -250.5 739 c 128,-1,17
 -221 757 -221 757 -221 786 c 0,18,19
 -221 871 -221 871 -298 870 c 0,20,21
 -390 869 -390 869 -390 786 c 0,22,23
 -390 721 -390 721 -312 721 c 0,15,16
EndSplineSet
EndChar

StartChar: IIMatra
Encoding: 3136 3136 102
Width: 0
GlyphClass: 4
Flags: W
LayerCount: 2
Fore
SplineSet
-356 904 m 1,0,1
 -402 935 -402 935 -402 981 c 0,2,3
 -402 1029 -402 1029 -349 1062 c 0,4,5
 -302 1091 -302 1091 -250 1091 c 0,6,7
 -201 1091 -201 1091 -151 1064 c 1,8,9
 -92 1034 -92 1034 -92 989 c 0,10,11
 -92 949 -92 949 -134 949 c 0,12,13
 -149 949 -149 949 -163 967 c 0,14,15
 -184 993 -184 993 -194 1001 c 0,16,17
 -219 1019 -219 1019 -261 1019 c 0,18,19
 -311 1019 -311 1019 -311 984 c 0,20,21
 -311 959 -311 959 -263 930 c 0,22,23
 -189 886 -189 886 -174 873 c 0,24,25
 -126 830 -126 830 -126 771 c 0,26,27
 -126 702 -126 702 -189 662 c 0,28,29
 -243 627 -243 627 -316 627 c 0,30,31
 -373 627 -373 627 -417 666 c 128,-1,32
 -461 705 -461 705 -461 762 c 0,33,34
 -461 848 -461 848 -356 904 c 1,0,1
-326 703 m 0,35,36
 -226 703 -226 703 -226 774 c 0,37,38
 -226 799 -226 799 -243 825 c 128,-1,39
 -260 851 -260 851 -283 851 c 0,40,41
 -315 851 -315 851 -342 828 c 128,-1,42
 -369 805 -369 805 -369 774 c 0,43,44
 -369 703 -369 703 -326 703 c 0,35,36
EndSplineSet
EndChar

StartChar: UMatra
Encoding: 3137 3137 103
Width: 398
GlyphClass: 4
Flags: W
LayerCount: 2
Fore
SplineSet
150 76 m 0,0,1
 212 76 212 76 250 125 c 0,2,3
 286 170 286 170 286 233 c 0,4,5
 286 318 286 318 243 393 c 0,6,7
 216 441 216 441 165 494 c 1,8,9
 122 537 122 537 122 544 c 0,10,11
 122 566 122 566 151 566 c 0,12,13
 215 566 215 566 293 473 c 0,14,15
 364 389 364 389 381 319 c 0,16,17
 389 286 389 286 389 223 c 0,18,19
 389 126 389 126 329 57 c 1,20,21
 265 -14 265 -14 170 -14 c 0,22,23
 84 -14 84 -14 27 32 c 0,24,25
 -35 81 -35 81 -35 165 c 0,26,27
 -35 216 -35 216 6 216 c 0,28,29
 20 216 20 216 38 180 c 1,30,31
 61 129 61 129 75 112 c 0,32,33
 105 76 105 76 150 76 c 0,0,1
EndSplineSet
EndChar

StartChar: UUMatra
Encoding: 3138 3138 104
Width: 544
GlyphClass: 4
Flags: W
LayerCount: 2
Fore
SplineSet
-40 316 m 0,0,1
 -40 387 -40 387 15 387 c 0,2,3
 46 387 46 387 48 308 c 0,4,5
 52 196 52 196 64 161 c 0,6,7
 92 82 92 82 186 82 c 0,8,9
 224 82 224 82 254 102 c 0,10,11
 288 125 288 125 288 161 c 0,12,13
 288 207 288 207 215 308.5 c 128,-1,14
 142 410 142 410 142 469 c 0,15,16
 142 530 142 530 199 582 c 128,-1,17
 256 634 256 634 317 634 c 0,18,19
 398 634 398 634 466 583 c 0,20,21
 540 528 540 528 540 449 c 0,22,23
 540 390 540 390 499.5 346.5 c 128,-1,24
 459 303 459 303 400 303 c 0,25,26
 351 303 351 303 323 339 c 1,27,28
 296 372 296 372 296 423 c 0,29,30
 296 460 296 460 317.5 497.5 c 128,-1,31
 339 535 339 535 372 546 c 1,32,33
 349 551 349 551 318 551 c 0,34,35
 284 551 284 551 250 518.5 c 128,-1,36
 216 486 216 486 216 451 c 0,37,38
 216 421 216 421 294.5 310.5 c 128,-1,39
 373 200 373 200 373 151 c 0,40,41
 373 80 373 80 314 36 c 1,42,43
 260 -3 260 -3 187 -3 c 0,44,45
 67 -3 67 -3 8 101 c 0,46,47
 -40 185 -40 185 -40 316 c 0,0,1
445 496 m 1,48,49
 441 498 441 498 436 498 c 0,50,51
 408 498 408 498 385 477 c 128,-1,52
 362 456 362 456 362 428 c 0,53,54
 362 408 362 408 375 391.5 c 128,-1,55
 388 375 388 375 408 375 c 0,56,57
 436 375 436 375 454 400 c 0,58,59
 470 422 470 422 470 450 c 0,60,61
 470 465 470 465 445 496 c 1,48,49
EndSplineSet
EndChar

StartChar: RMatra
Encoding: 3139 3139 105
Width: 359
GlyphClass: 4
Flags: W
LayerCount: 2
Fore
SplineSet
161 -282 m 0,0,1
 74 -288 74 -288 9 -233 c 128,-1,2
 -56 -178 -56 -178 -56 -89 c 0,3,4
 -56 -30 -56 -30 -20 11.5 c 128,-1,5
 16 53 16 53 75 53 c 0,6,7
 116 53 116 53 146 31 c 0,8,9
 180 7 180 7 180 -32 c 0,10,11
 180 -77 180 -77 144 -113 c 128,-1,12
 108 -149 108 -149 53 -158 c 1,13,14
 86 -188 86 -188 91 -191 c 0,15,16
 112 -205 112 -205 140 -205 c 0,17,18
 201 -205 201 -205 238 -161 c 0,19,20
 273 -120 273 -120 273 -58 c 0,21,22
 273 79 273 79 173 161 c 0,23,24
 162 170 162 170 111 192 c 0,25,26
 65 212 65 212 59.5 220 c 128,-1,27
 54 228 54 228 54 236 c 0,28,29
 54 249 54 249 66 258 c 128,-1,30
 78 267 78 267 93 265 c 0,31,32
 201 249 201 249 281 143 c 0,33,34
 358 41 358 41 358 -71 c 0,35,36
 358 -156 358 -156 303.5 -216 c 128,-1,37
 249 -276 249 -276 161 -282 c 0,0,1
0 -58 m 0,38,39
 -3 -97 -3 -97 33 -98 c 0,40,41
 62 -99 62 -99 87 -86 c 0,42,43
 119 -70 119 -70 122 -35 c 0,44,45
 124 -7 124 -7 76 -7 c 0,46,47
 48 -7 48 -7 26 -19 c 1,48,49
 2 -34 2 -34 0 -58 c 0,38,39
EndSplineSet
EndChar

StartChar: RRMatra
Encoding: 3140 3140 106
Width: 454
GlyphClass: 4
Flags: W
LayerCount: 2
Fore
SplineSet
25 -150 m 1,0,1
 36 -185 36 -185 83 -207 c 0,2,3
 123 -226 123 -226 165 -226 c 0,4,5
 215 -226 215 -226 249 -202 c 0,6,7
 287 -176 287 -176 287 -128 c 0,8,9
 287 -76 287 -76 216 -12 c 1,10,11
 151 40 151 40 85 91 c 1,12,13
 15 150 15 150 15 190 c 0,14,15
 15 245 15 245 80 283 c 0,16,17
 136 315 136 315 196 315 c 0,18,19
 291 315 291 315 368 260 c 0,20,21
 453 200 453 200 453 109 c 0,22,23
 453 71 453 71 420 36 c 128,-1,24
 387 1 387 1 348 1 c 0,25,26
 308 1 308 1 281 38 c 0,27,28
 256 71 256 71 256 113 c 0,29,30
 256 181 256 181 313 212 c 1,31,32
 304 224 304 224 267 233 c 0,33,34
 237 240 237 240 215 240 c 0,35,36
 99 240 99 240 99 184 c 0,37,38
 99 164 99 164 168 110 c 0,39,40
 266 32 266 32 296 1 c 0,41,42
 365 -70 365 -70 365 -130 c 0,43,44
 365 -209 365 -209 298 -258 c 0,45,46
 239 -301 239 -301 156 -301 c 0,47,48
 72 -301 72 -301 5.5 -240 c 128,-1,49
 -61 -179 -61 -179 -61 -95 c 0,50,51
 -61 -37 -61 -37 -23 1.5 c 128,-1,52
 15 40 15 40 73 40 c 0,53,54
 109 40 109 40 136 16 c 128,-1,55
 163 -8 163 -8 163 -44 c 0,56,57
 163 -91 163 -91 116 -123 c 0,58,59
 74 -152 74 -152 25 -150 c 1,0,1
350 170 m 0,60,61
 333 170 333 170 322.5 149 c 128,-1,62
 312 128 312 128 312 110 c 0,63,64
 312 93 312 93 323 78.5 c 128,-1,65
 334 64 334 64 351 64 c 0,66,67
 374 64 374 64 389 81.5 c 128,-1,68
 404 99 404 99 404 122 c 0,69,70
 404 142 404 142 387.5 156 c 128,-1,71
 371 170 371 170 350 170 c 0,60,61
9 -89 m 1,72,73
 26 -93 26 -93 34 -92 c 0,74,75
 103 -84 103 -84 103 -48 c 0,76,77
 103 -17 103 -17 61 -17 c 0,78,79
 1 -17 1 -17 1 -58 c 0,80,81
 1 -71 1 -71 9 -89 c 1,72,73
EndSplineSet
EndChar

StartChar: Telugu_J
Encoding: 3142 3142 107
Width: 0
GlyphClass: 4
Flags: W
LayerCount: 2
Fore
SplineSet
-302 637 m 0,0,1
 -366 637 -366 637 -366 661 c 0,2,3
 -366 676 -366 676 -341 691 c 128,-1,4
 -316 706 -316 706 -278 711 c 0,5,6
 -234 717 -234 717 -203 746 c 1,7,8
 -168 777 -168 777 -168 821 c 0,9,10
 -168 879 -168 879 -275 879 c 0,11,12
 -326 879 -326 879 -408 844.5 c 128,-1,13
 -490 810 -490 810 -533 810 c 0,14,15
 -575 810 -575 810 -575 852 c 1,16,17
 -467 952 -467 952 -295 952 c 0,18,19
 -221 952 -221 952 -159 924 c 0,20,21
 -81 888 -81 888 -81 824 c 0,22,23
 -81 754 -81 754 -158 694 c 0,24,25
 -230 637 -230 637 -302 637 c 0,0,1
EndSplineSet
EndChar

StartChar: EEMatra
Encoding: 3143 3143 108
Width: 71
GlyphClass: 4
Flags: W
LayerCount: 2
Fore
SplineSet
-119 816 m 0,0,1
 -119 888 -119 888 -288 888 c 0,2,3
 -334 888 -334 888 -424 868.5 c 128,-1,4
 -514 849 -514 849 -558 849 c 0,5,6
 -614 849 -614 849 -614 879 c 0,7,8
 -614 927 -614 927 -505 949 c 1,9,10
 -433 965 -433 965 -352 965 c 0,11,12
 -265 965 -265 965 -228 950 c 1,13,14
 -235 983 -235 983 -235 1002 c 0,15,16
 -235 1050 -235 1050 -197 1076 c 1,17,18
 -164 1100 -164 1100 -114 1100 c 0,19,20
 -33 1100 -33 1100 19.5 1046.5 c 128,-1,21
 72 993 72 993 72 912 c 0,22,23
 72 877 72 877 47 877 c 0,24,25
 23 877 23 877 6 917 c 0,26,27
 -22 982 -22 982 -28 991 c 0,28,29
 -55 1031 -55 1031 -105 1031 c 0,30,31
 -129 1031 -129 1031 -148 1017.5 c 128,-1,32
 -167 1004 -167 1004 -167 980 c 0,33,34
 -167 954 -167 954 -131 931 c 0,35,36
 -99 911 -99 911 -66 890 c 1,37,38
 -31 860 -31 860 -31 818 c 0,39,40
 -31 748 -31 748 -112 690 c 0,41,42
 -188 636 -188 636 -261 636 c 0,43,44
 -302 636 -302 636 -302 665 c 0,45,46
 -302 680 -302 680 -255 698 c 1,47,48
 -188 722 -188 722 -166 737 c 0,49,50
 -119 768 -119 768 -119 816 c 0,0,1
EndSplineSet
EndChar

StartChar: AIMatra
Encoding: 3144 3144 109
Width: 0
GlyphClass: 4
Flags: W
LayerCount: 2
Fore
SplineSet
-467 641 m 0,0,1
 -531 641 -531 641 -531 665 c 0,2,3
 -531 680 -531 680 -506 695 c 128,-1,4
 -481 710 -481 710 -443 715 c 0,5,6
 -399 721 -399 721 -368 750 c 1,7,8
 -333 781 -333 781 -333 825 c 0,9,10
 -333 883 -333 883 -440 883 c 0,11,12
 -491 883 -491 883 -573 848.5 c 128,-1,13
 -655 814 -655 814 -698 814 c 0,14,15
 -740 814 -740 814 -740 856 c 1,16,17
 -632 956 -632 956 -460 956 c 0,18,19
 -386 956 -386 956 -324 928 c 0,20,21
 -246 892 -246 892 -246 828 c 0,22,23
 -246 758 -246 758 -323 698 c 0,24,25
 -395 641 -395 641 -467 641 c 0,0,1
-564 -259 m 1,26,27
 -518 -252 -518 -252 -324 -210 c 1,28,29
 -171 -178 -171 -178 -85 -171 c 1,30,31
 -19 -167 -19 -167 48 -198 c 0,32,33
 129 -236 129 -236 129 -301 c 0,34,35
 129 -320 129 -320 113 -346 c 0,36,37
 88 -388 88 -388 87 -391 c 1,38,-1
 1 -391 l 1,39,40
 18 -354 18 -354 18 -325 c 0,41,42
 18 -313 18 -313 15 -302 c 0,43,44
 0 -247 0 -247 -80 -247 c 0,45,46
 -187 -247 -187 -247 -377 -292 c 0,47,48
 -606 -345 -606 -345 -621 -347 c 0,49,50
 -644 -351 -644 -351 -666 -351 c 0,51,52
 -828 -351 -828 -351 -828 -209 c 0,53,54
 -828 -149 -828 -149 -781 -111 c 0,55,56
 -737 -75 -737 -75 -675 -75 c 0,57,58
 -622 -75 -622 -75 -581 -105 c 0,59,60
 -536 -138 -536 -138 -534 -190 c 0,61,62
 -533 -208 -533 -208 -542.5 -230 c 128,-1,63
 -552 -252 -552 -252 -564 -259 c 1,26,27
-762 -202 m 0,64,65
 -765 -229 -765 -229 -744.5 -244 c 128,-1,66
 -724 -259 -724 -259 -693 -259 c 0,67,68
 -619 -259 -619 -259 -609 -202 c 0,69,70
 -605 -178 -605 -178 -628 -163 c 128,-1,71
 -651 -148 -651 -148 -684 -148 c 0,72,73
 -755 -148 -755 -148 -762 -202 c 0,64,65
EndSplineSet
EndChar

StartChar: OMatra
Encoding: 3146 3146 110
Width: 279
GlyphClass: 4
Flags: W
LayerCount: 2
Fore
SplineSet
-186 823 m 1,0,1
 -140 869 -140 869 -103 881 c 0,2,3
 -89 885 -89 885 0 894 c 0,4,5
 14 896 14 896 28 896 c 0,6,7
 128 896 128 896 211 844 c 0,8,9
 305 786 305 786 305 696 c 0,10,11
 305 636 305 636 253 599 c 0,12,13
 207 567 207 567 144 567 c 0,14,15
 -4 567 -4 567 -4 692 c 0,16,17
 -4 740 -4 740 33 826 c 1,18,19
 -69 813 -69 813 -87 805 c 0,20,21
 -132 783 -132 783 -151 705 c 1,22,23
 -192 705 -192 705 -213 713 c 1,24,25
 -240 783 -240 783 -299 808 c 0,26,27
 -341 826 -341 826 -425 826 c 0,28,29
 -454 826 -454 826 -493 817 c 1,30,31
 -547 806 -547 806 -548 786 c 0,32,33
 -550 740 -550 740 -464 708 c 1,34,35
 -395 689 -395 689 -326 669 c 1,36,-1
 -318 618 l 1,37,38
 -643 654 -643 654 -643 786 c 0,39,40
 -643 845 -643 845 -551 875 c 0,41,42
 -484 897 -484 897 -409 897 c 0,43,44
 -349 897 -349 897 -290 880 c 1,45,46
 -222 859 -222 859 -186 823 c 1,0,1
118 793 m 1,47,48
 72 760 72 760 72 702 c 0,49,50
 72 676 72 676 94.5 658.5 c 128,-1,51
 117 641 117 641 146 641 c 0,52,53
 169 641 169 641 193 652 c 0,54,55
 222 664 222 664 224 683 c 0,56,57
 233 779 233 779 118 793 c 1,47,48
EndSplineSet
EndChar

StartChar: OOMatra
Encoding: 3147 3147 111
Width: 200
GlyphClass: 4
Flags: W
LayerCount: 2
Fore
SplineSet
-21 890 m 1,0,1
 6 924 6 924 6 971 c 0,2,3
 6 1026 6 1026 -61 1026 c 0,4,5
 -80 1026 -80 1026 -140 1001 c 1,6,7
 -185 1009 -185 1009 -185 1025 c 0,8,9
 -185 1058 -185 1058 -134 1078 c 0,10,11
 -95 1093 -95 1093 -56 1093 c 0,12,13
 3 1093 3 1093 48 1069 c 0,14,15
 105 1039 105 1039 105 986 c 0,16,17
 105 952 105 952 69 863 c 1,18,19
 125 833 125 833 164 786 c 0,20,21
 211 731 211 731 211 677 c 0,22,23
 211 629 211 629 166 596 c 1,24,25
 125 564 125 564 76 564 c 0,26,27
 13 564 13 564 -36 594 c 0,28,29
 -93 629 -93 629 -93 688 c 0,30,31
 -93 733 -93 733 -52 825 c 1,32,-1
 -74 825 l 1,33,34
 -134 826 -134 826 -177 802 c 0,35,36
 -229 773 -229 773 -229 717 c 1,37,38
 -265 716 -265 716 -290 726 c 1,39,40
 -294 783 -294 783 -393 813 c 0,41,42
 -465 835 -465 835 -542 835 c 0,43,44
 -628 835 -628 835 -628 789 c 0,45,46
 -628 742 -628 742 -544 709 c 0,47,48
 -531 704 -531 704 -419 673 c 1,49,-1
 -412 622 l 1,50,51
 -542 633 -542 633 -611 659 c 0,52,53
 -731 703 -731 703 -731 798 c 0,54,55
 -731 856 -731 856 -644 885 c 0,56,57
 -582 905 -582 905 -508 905 c 0,58,59
 -395 905 -395 905 -269 825 c 1,60,61
 -181 895 -181 895 -89 895 c 0,62,63
 -60 895 -60 895 -21 890 c 1,0,1
32 791 m 1,64,65
 -11 734 -11 734 -11 703 c 0,66,67
 -11 636 -11 636 62 636 c 0,68,69
 130 636 130 636 130 693 c 0,70,71
 130 722 130 722 95 754 c 0,72,73
 64 781 64 781 32 791 c 1,64,65
EndSplineSet
EndChar

StartChar: AuMatra
Encoding: 3148 3148 112
Width: 400
GlyphClass: 4
Flags: W
LayerCount: 2
Fore
SplineSet
-481 641 m 1,0,-1
 -484 710 l 1,1,2
 -392 714 -392 714 -300 719 c 1,3,4
 -202 729 -202 729 -201 783 c 0,5,6
 -200 854 -200 854 -294 872 c 0,7,8
 -320 877 -320 877 -469 881 c 0,9,10
 -566 884 -566 884 -569 916 c 0,11,12
 -573 955 -573 955 -543 958 c 1,13,14
 -308 964 -308 964 192 959 c 0,15,16
 290 958 290 958 343 907 c 0,17,18
 392 859 392 859 388 785 c 0,19,20
 384 720 384 720 339.5 680 c 128,-1,21
 295 640 295 640 223 640 c 0,22,23
 162 640 162 640 118 675 c 0,24,25
 70 712 70 712 70 771 c 0,26,27
 70 813 70 813 71 817 c 0,28,29
 77 842 77 842 111 878 c 1,30,31
 61 875 61 875 -28 878 c 1,32,33
 -121 880 -121 880 -152 879 c 1,34,35
 -109 854 -109 854 -109 785 c 0,36,37
 -109 738 -109 738 -169 690 c 0,38,39
 -216 652 -216 652 -317 645 c 1,40,41
 -399 643 -399 643 -481 641 c 1,0,-1
219 868 m 0,42,43
 190 868 190 868 166.5 846 c 128,-1,44
 143 824 143 824 143 795 c 0,45,46
 143 765 143 765 170.5 744.5 c 128,-1,47
 198 724 198 724 227 724 c 0,48,49
 257 724 257 724 286 746.5 c 128,-1,50
 315 769 315 769 315 798 c 0,51,52
 315 868 315 868 219 868 c 0,42,43
EndSplineSet
EndChar

StartChar: Halanth
Encoding: 3149 3149 113
Width: 45
GlyphClass: 4
Flags: W
LayerCount: 2
Fore
SplineSet
-205 1008 m 0,0,1
 -246 1008 -246 1008 -279 993 c 0,2,3
 -321 974 -321 974 -321 939 c 0,4,5
 -321 895 -321 895 -281 881 c 0,6,7
 -273 878 -273 878 -208 869 c 0,8,9
 -169 863 -169 863 -170 842 c 0,10,11
 -170 834 -170 834 -239.5 816 c 128,-1,12
 -309 798 -309 798 -306 783 c 1,13,14
 -308 754 -308 754 -263 754 c 0,15,16
 -260 754 -260 754 -253 754 c 128,-1,17
 -246 754 -246 754 -242 754 c 0,18,19
 -192 754 -192 754 -198 716 c 0,20,21
 -199 709 -199 709 -226.5 700.5 c 128,-1,22
 -254 692 -254 692 -285 692 c 0,23,24
 -372 692 -372 692 -385 757 c 0,25,26
 -393 795 -393 795 -349 837 c 1,27,28
 -436 866 -436 866 -436 923 c 0,29,30
 -436 1001 -436 1001 -371 1046 c 0,31,32
 -312 1087 -312 1087 -223 1087 c 0,33,34
 -159 1087 -159 1087 -66 1053 c 0,35,36
 45 1013 45 1013 45 963 c 0,37,38
 45 951 45 951 35 951 c 0,39,40
 27 951 27 951 -62 979.5 c 128,-1,41
 -151 1008 -151 1008 -205 1008 c 0,0,1
EndSplineSet
EndChar

StartChar: Anudatta
Encoding: 3157 3157 114
Width: 749
GlyphClass: 4
Flags: W
LayerCount: 2
Fore
SplineSet
140 -500 m 1,0,-1
 140 -428 l 1,1,-1
 749 -428 l 1,2,-1
 749 -500 l 1,3,-1
 140 -500 l 1,0,-1
EndSplineSet
EndChar

StartChar: tvam
Encoding: 3158 3158 115
Width: 9
GlyphClass: 4
Flags: W
AnchorPoint: "Anchor-0" -65 18 mark 0
LayerCount: 2
Fore
SplineSet
264 -275 m 1,0,1
 310 -268 310 -268 504 -236 c 1,2,3
 657 -204 657 -204 743 -207 c 1,4,5
 809 -203 809 -203 876 -234 c 0,6,7
 957 -272 957 -272 957 -337 c 0,8,9
 957 -356 957 -356 941 -382 c 0,10,11
 916 -424 916 -424 915 -427 c 1,12,-1
 829 -427 l 1,13,14
 846 -390 846 -390 846 -361 c 0,15,16
 846 -349 846 -349 843 -338 c 0,17,18
 828 -283 828 -283 748 -283 c 1,19,20
 641 -273 641 -273 451 -308 c 1,21,22
 222 -361 222 -361 207 -363 c 0,23,24
 184 -367 184 -367 162 -367 c 0,25,26
 0 -367 0 -367 0 -225 c 0,27,28
 0 -165 0 -165 47 -127 c 0,29,30
 91 -91 91 -91 153 -91 c 0,31,32
 206 -91 206 -91 247 -121 c 0,33,34
 292 -154 292 -154 294 -206 c 0,35,36
 295 -224 295 -224 285.5 -246 c 128,-1,37
 276 -268 276 -268 264 -275 c 1,0,1
66 -218 m 0,38,39
 63 -245 63 -245 83.5 -260 c 128,-1,40
 104 -275 104 -275 135 -275 c 0,41,42
 209 -275 209 -275 219 -218 c 0,43,44
 223 -194 223 -194 200 -179 c 128,-1,45
 177 -164 177 -164 144 -164 c 0,46,47
 73 -164 73 -164 66 -218 c 0,38,39
EndSplineSet
Substitution2: "Single Substitution lookup 25 subtable" LowItvam
EndChar

StartChar: CaNukta
Encoding: 3160 3160 116
Width: 946
GlyphClass: 2
Flags: W
AnchorPoint: "Anchor-1" 0 0 basechar 0
LayerCount: 2
Fore
SplineSet
740 1 m 0,0,1
 658 1 658 1 560 80 c 1,2,3
 467 -29 467 -29 338 -29 c 0,4,5
 298 -29 298 -29 266 11 c 128,-1,6
 234 51 234 51 234 92 c 0,7,8
 234 161 234 161 338 296 c 1,9,10
 294 294 294 294 179 281 c 1,11,12
 165 284 165 284 165 317 c 0,13,14
 165 341 165 341 171 371 c 1,15,16
 257 379 257 379 486 379 c 1,17,18
 498 369 498 369 497 328 c 1,19,20
 480 298 480 298 434 250 c 0,21,22
 383 198 383 198 366 173 c 0,23,24
 334 126 334 126 334 77 c 0,25,26
 334 37 334 37 358 37 c 0,27,28
 390 37 390 37 458 106 c 0,29,30
 515 165 515 165 552 223 c 1,31,32
 559 232 559 232 566 232 c 0,33,34
 579 232 579 232 607 192 c 0,35,36
 648 134 648 134 664 117 c 0,37,38
 702 77 702 77 739 77 c 0,39,40
 780 77 780 77 813 126 c 0,41,42
 842 170 842 170 842 213 c 0,43,44
 842 280 842 280 742 352 c 1,45,46
 649 414 649 414 557 475 c 1,47,48
 456 552 456 552 456 628 c 0,49,50
 456 706 456 706 565 772 c 0,51,52
 662 831 662 831 747 831 c 0,53,54
 817 831 817 831 811 832 c 1,55,56
 860 829 860 829 860 810 c 0,57,58
 860 796 860 796 782 773 c 0,59,60
 677 742 677 742 637 722 c 0,61,62
 558 683 558 683 558 628 c 0,63,64
 558 572 558 572 660 503 c 1,65,66
 754 442 754 442 849 382 c 1,67,68
 950 304 950 304 950 225 c 0,69,70
 950 139 950 139 889 71 c 0,71,72
 825 1 825 1 740 1 c 0,0,1
639 850 m 2,73,-1
 148 850 l 1,74,-1
 148 936 l 1,75,-1
 577 936 l 1,76,77
 552 952 552 952 546 978 c 1,78,79
 545 987 545 987 545 995 c 0,80,81
 545 1045 545 1045 589 1074 c 0,82,83
 630 1100 630 1100 693 1100 c 0,84,85
 741 1100 741 1100 785 1069 c 0,86,87
 833 1034 833 1034 833 988 c 0,88,89
 833 907 833 907 773 874 c 0,90,91
 728 850 728 850 639 850 c 2,73,-1
704 1032 m 0,92,93
 619 1037 619 1037 619 985 c 0,94,95
 619 943 619 943 700 951 c 0,96,97
 759 957 759 957 759 989 c 0,98,99
 759 1029 759 1029 704 1032 c 0,92,93
EndSplineSet
EndChar

StartChar: JaNukta
Encoding: 3161 3161 117
Width: 974
GlyphClass: 2
Flags: W
AnchorPoint: "Anchor-1" 0 0 basechar 0
LayerCount: 2
Fore
SplineSet
702 -7 m 0,0,1
 597 -7 597 -7 512 79 c 1,2,3
 399 0 399 0 321 0 c 0,4,5
 219 0 219 0 219 106 c 0,6,7
 219 157 219 157 343.5 309 c 128,-1,8
 468 461 468 461 468 508 c 0,9,10
 468 578 468 578 398 578 c 0,11,12
 347 578 347 578 304 543 c 0,13,14
 258 505 258 505 258 455 c 0,15,16
 258 444 258 444 266.5 424.5 c 128,-1,17
 275 405 275 405 275 396 c 0,18,19
 275 354 275 354 224 354 c 0,20,21
 150 354 150 354 150 448 c 256,22,23
 150 542 150 542 229 601 c 0,24,25
 301 655 301 655 398 655 c 0,26,27
 552 655 552 655 572 496 c 0,28,29
 580 430 580 430 685 430 c 0,30,31
 728 430 728 430 759.5 451.5 c 128,-1,32
 791 473 791 473 791 512 c 0,33,34
 791 553 791 553 748 569 c 128,-1,35
 705 585 705 585 705 603 c 0,36,37
 705 637 705 637 747 637 c 0,38,39
 802 637 802 637 837 600 c 128,-1,40
 872 563 872 563 872 508 c 0,41,42
 872 436 872 436 801 386 c 0,43,44
 737 341 737 341 661 341 c 0,45,46
 586 341 586 341 523 409 c 1,47,48
 466 333 466 333 408 258 c 1,49,50
 321 143 321 143 321 115 c 0,51,52
 321 106 321 106 330 97 c 128,-1,53
 339 88 339 88 348 88 c 0,54,55
 376 88 376 88 421 110 c 0,56,57
 471 134 471 134 473 158 c 0,58,59
 477 192 477 192 480 209 c 1,60,61
 501 237 501 237 538 237 c 0,62,63
 553 237 553 237 568.5 227.5 c 128,-1,64
 584 218 584 218 584 205 c 0,65,66
 582 155 582 155 615 112 c 0,67,68
 650 66 650 66 699 66 c 0,69,70
 749 66 749 66 806 106 c 0,71,72
 868 149 868 149 868 196 c 0,73,74
 868 208 868 208 829 256 c 0,75,76
 804 288 804 288 778 319 c 1,77,78
 974 307 974 307 974 184 c 0,79,80
 974 106 974 106 874 45 c 1,81,82
 786 -7 786 -7 702 -7 c 0,0,1
697 701 m 2,83,-1
 206 701 l 1,84,-1
 206 787 l 1,85,-1
 635 787 l 1,86,87
 620 803 620 803 604 829 c 1,88,89
 603 838 603 838 603 846 c 0,90,91
 603 896 603 896 647 925 c 0,92,93
 688 951 688 951 751 951 c 0,94,95
 799 951 799 951 843 920 c 0,96,97
 891 885 891 885 891 839 c 0,98,99
 891 758 891 758 831 725 c 0,100,101
 786 701 786 701 697 701 c 2,83,-1
781 883 m 0,102,103
 696 888 696 888 696 836 c 0,104,105
 696 794 696 794 777 802 c 0,106,107
 836 808 836 808 836 840 c 0,108,109
 836 880 836 880 781 883 c 0,102,103
EndSplineSet
EndChar

StartChar: RRu
Encoding: 3168 3168 118
Width: 1646
GlyphClass: 2
Flags: W
LayerCount: 2
Fore
SplineSet
898 1 m 0,0,1
 799 1 799 1 763 74 c 1,2,3
 698 1 698 1 594 1 c 0,4,5
 497 1 497 1 435 72 c 1,6,7
 414 37 414 37 374 8 c 0,8,9
 330 -23 330 -23 293 -23 c 0,10,11
 252 -23 252 -23 224 7 c 128,-1,12
 196 37 196 37 196 78 c 0,13,14
 196 148 196 148 247 232 c 0,15,16
 258 250 258 250 342 364 c 0,17,18
 394 434 394 434 394 468 c 0,19,20
 394 488 394 488 377.5 504 c 128,-1,21
 361 520 361 520 341 521 c 0,22,23
 307 523 307 523 279 503.5 c 128,-1,24
 251 484 251 484 245 456 c 0,25,26
 241 439 241 439 241 424 c 0,27,28
 241 392 241 392 261 370 c 0,29,30
 286 342 286 342 287 341 c 1,31,32
 280 337 280 337 269.5 312.5 c 128,-1,33
 259 288 259 288 250 291 c 0,34,35
 160 317 160 317 160 428 c 0,36,37
 160 445 160 445 163 464 c 0,38,39
 171 527 171 527 231 564 c 0,40,41
 283 596 283 596 348 596 c 0,42,43
 406 596 406 596 445 565 c 0,44,45
 488 531 488 531 488 474 c 0,46,47
 488 426 488 426 390.5 290 c 128,-1,48
 293 154 293 154 293 93 c 0,49,50
 293 66 293 66 299 53 c 1,51,52
 331 54 331 54 367 107 c 1,53,54
 399 158 399 158 399 193 c 0,55,56
 399 285 399 285 462 285 c 0,57,58
 496 285 496 285 496 250 c 0,59,60
 496 243 496 243 494.5 227.5 c 128,-1,61
 493 212 493 212 493 206 c 0,62,63
 493 157 493 157 523 118 c 0,64,65
 555 76 555 76 603 76 c 0,66,67
 668 76 668 76 706 133 c 0,68,69
 742 186 742 186 745 269 c 0,70,71
 747 345 747 345 701 416 c 0,72,73
 672 461 672 461 615 513 c 0,74,75
 568 555 568 555 568 562 c 0,76,77
 568 589 568 589 608 589 c 0,78,79
 652 589 652 589 712 536 c 0,80,81
 793 464 793 464 817 360 c 0,82,83
 832 297 832 297 832 154 c 0,84,85
 832 130 832 130 854.5 107.5 c 128,-1,86
 877 85 877 85 902 83 c 0,87,88
 967 78 967 78 1004 135 c 0,89,90
 1036 183 1036 183 1036 250 c 0,91,92
 1036 336 1036 336 976 402 c 0,93,94
 941 440 941 440 864 488 c 1,95,96
 805 526 805 526 805 542 c 0,97,98
 805 571 805 571 839 571 c 0,99,100
 868 571 868 571 930 538 c 0,101,102
 1067 464 1067 464 1104 336 c 1,103,104
 1121 243 1121 243 1138 150 c 1,105,106
 1168 68 1168 68 1299 68 c 0,107,108
 1375 68 1375 68 1375 123 c 0,109,110
 1375 181 1375 181 1276 289.5 c 128,-1,111
 1177 398 1177 398 1175 459 c 0,112,113
 1172 523 1172 523 1216.5 563 c 128,-1,114
 1261 603 1261 603 1334 603 c 0,115,116
 1434 603 1434 603 1533 542 c 0,117,118
 1645 474 1645 474 1645 380 c 0,119,120
 1645 307 1645 307 1606 264 c 128,-1,121
 1567 221 1567 221 1497 221 c 0,122,123
 1450 221 1450 221 1415.5 253 c 128,-1,124
 1381 285 1381 285 1378 329 c 0,125,126
 1375 375 1375 375 1400 427 c 0,127,128
 1429 485 1429 485 1470 495 c 1,129,130
 1437 524 1437 524 1358 524 c 0,131,132
 1263 524 1263 524 1263 446 c 0,133,134
 1263 402 1263 402 1370 286 c 128,-1,135
 1477 170 1477 170 1477 113 c 0,136,137
 1477 50 1477 50 1415 16 c 0,138,139
 1366 -11 1366 -11 1298 -11 c 0,140,141
 1167 -11 1167 -11 1082 90 c 1,142,143
 1009 1 1009 1 898 1 c 0,0,1
1516 440 m 0,144,145
 1486 446 1486 446 1465 411 c 0,146,147
 1446 380 1446 380 1446 346 c 0,148,149
 1446 298 1446 298 1477 294 c 0,150,151
 1486 293 1486 293 1495 293 c 0,152,153
 1535 293 1535 293 1557 315 c 0,154,155
 1576 335 1576 335 1576 364 c 0,156,157
 1576 427 1576 427 1516 440 c 0,144,145
EndSplineSet
EndChar

StartChar: LLu
Encoding: 3169 3169 119
Width: 1191
GlyphClass: 2
Flags: W
LayerCount: 2
Fore
SplineSet
591 -8 m 0,0,1
 509 -8 509 -8 452 43 c 128,-1,2
 395 94 395 94 395 175 c 0,3,4
 395 245 395 245 465 310 c 1,5,6
 530 360 530 360 596 410 c 1,7,8
 666 465 666 465 666 512 c 0,9,10
 666 540 666 540 640 560 c 128,-1,11
 614 580 614 580 585 580 c 0,12,13
 560 580 560 580 543 577 c 1,14,15
 560 547 560 547 560 514 c 0,16,17
 560 478 560 478 537 438 c 0,18,19
 510 391 510 391 474 393 c 0,20,21
 408 397 408 397 408 488 c 0,22,23
 408 506 408 506 411 524 c 0,24,25
 413 537 413 537 422 559 c 1,26,27
 399 565 399 565 373 565 c 0,28,29
 338 565 338 565 305 556 c 0,30,31
 259 544 259 544 259 519 c 0,32,33
 259 459 259 459 388 436 c 1,34,35
 377 370 377 370 334 370 c 0,36,37
 267 370 267 370 216 411 c 0,38,39
 160 455 160 455 160 520 c 0,40,41
 160 580 160 580 211 616 c 0,42,43
 258 648 258 648 327 648 c 0,44,45
 352 648 352 648 377 643 c 0,46,47
 420 634 420 634 441 624 c 0,48,49
 442 624 442 624 483 599 c 1,50,51
 480 619 480 619 520 637 c 0,52,53
 557 654 557 654 589 654 c 0,54,55
 654 654 654 654 707 616 c 0,56,57
 765 574 765 574 765 512 c 0,58,59
 765 441 765 441 694 385 c 1,60,61
 628 341 628 341 562 297 c 1,62,63
 491 244 491 244 491 182 c 0,64,65
 491 140 491 140 522.5 107 c 128,-1,66
 554 74 554 74 595 74 c 0,67,68
 648 74 648 74 682 107 c 128,-1,69
 716 140 716 140 716 193 c 0,70,71
 716 221 716 221 714.5 275.5 c 128,-1,72
 713 330 713 330 713 355 c 0,73,74
 713 365 713 365 727 388 c 0,75,76
 745 417 745 417 746 419 c 1,77,-1
 796 422 l 2,78,79
 822 423 822 423 865 423 c 0,80,81
 1190 423 1190 423 1190 230 c 0,82,83
 1190 174 1190 174 1141 135 c 0,84,85
 1096 99 1096 99 1036 99 c 0,86,87
 978 99 978 99 934.5 136.5 c 128,-1,88
 891 174 891 174 891 231 c 0,89,90
 891 267 891 267 905 293 c 0,91,92
 911 304 911 304 936 334 c 1,93,94
 931 343 931 343 877 343 c 0,95,96
 864 343 864 343 836 344 c 0,97,98
 816 345 816 345 796 344 c 1,99,100
 805 293 805 293 805 182 c 0,101,102
 805 104 805 104 736 47 c 1,103,104
 671 -8 671 -8 591 -8 c 0,0,1
484 542 m 1,105,106
 454 534 454 534 454 485 c 0,107,108
 454 454 454 454 478 444 c 1,109,110
 510 450 510 450 510 500 c 0,111,112
 510 536 510 536 484 542 c 1,105,106
960 235 m 0,113,114
 960 211 960 211 983.5 192 c 128,-1,115
 1007 173 1007 173 1033 173 c 0,116,117
 1066 173 1066 173 1091 190.5 c 128,-1,118
 1116 208 1116 208 1116 237 c 256,119,120
 1116 266 1116 266 1100 288 c 0,121,122
 1079 317 1079 317 1037 317 c 0,123,124
 960 317 960 317 960 235 c 0,113,114
EndSplineSet
EndChar

StartChar: LuOttu
Encoding: 3170 3170 120
Width: 0
GlyphClass: 4
Flags: W
AnchorPoint: "Anchor-1" -16 16 mark 0
LayerCount: 2
Fore
SplineSet
499 -540 m 0,0,1
 446 -544 446 -544 412 -502 c 1,2,3
 382 -463 382 -463 382 -406 c 0,4,5
 382 -364 382 -364 429 -294 c 128,-1,6
 476 -224 476 -224 476 -201 c 0,7,8
 476 -183 476 -183 475 -181 c 0,9,10
 469 -170 469 -170 439 -169 c 0,11,12
 392 -167 392 -167 385 -204 c 1,13,14
 385 -234 385 -234 384 -263 c 1,15,-1
 329 -263 l 1,16,17
 328 -235 328 -235 327 -206 c 1,18,19
 319 -172 319 -172 274 -172 c 0,20,21
 235 -172 235 -172 235 -206 c 0,22,23
 235 -227 235 -227 258 -250 c 128,-1,24
 281 -273 281 -273 281 -278 c 0,25,26
 281 -306 281 -306 239 -306 c 0,27,28
 204 -306 204 -306 177 -273.5 c 128,-1,29
 150 -241 150 -241 150 -206 c 0,30,31
 150 -151 150 -151 183.5 -117 c 128,-1,32
 217 -83 217 -83 272 -83 c 0,33,34
 332 -83 332 -83 362 -128 c 1,35,36
 387 -85 387 -85 452 -85 c 0,37,38
 498 -85 498 -85 528 -113.5 c 128,-1,39
 558 -142 558 -142 558 -187 c 0,40,41
 558 -227 558 -227 513 -299 c 128,-1,42
 468 -371 468 -371 468 -397 c 0,43,44
 468 -449 468 -449 520 -449 c 0,45,46
 554 -449 554 -449 577 -412 c 128,-1,47
 600 -375 600 -375 601 -323 c 1,48,49
 603 -281 603 -281 587.5 -204 c 128,-1,50
 572 -127 572 -127 564 -127 c 1,51,52
 562 -128 562 -128 561 -134 c 1,53,-1
 631 -107 l 1,54,55
 647 -138 647 -138 662 -205 c 0,56,57
 678 -276 678 -276 678 -324 c 0,58,59
 677 -412 677 -412 626.5 -473 c 128,-1,60
 576 -534 576 -534 499 -540 c 0,0,1
EndSplineSet
EndChar

StartChar: LUUOttu
Encoding: 3171 3171 121
Width: 0
GlyphClass: 4
Flags: W
LayerCount: 2
Fore
SplineSet
843 -314 m 0,0,1
 803 -313 803 -313 774 -287 c 128,-1,2
 745 -261 745 -261 745 -220 c 0,3,4
 745 -202 745 -202 752 -182 c 1,5,-1
 651 -182 l 1,6,7
 668 -292 668 -292 666 -321 c 0,8,9
 655 -520 655 -520 501 -530 c 0,10,11
 448 -533 448 -533 414.5 -497 c 128,-1,12
 381 -461 381 -461 381 -406 c 0,13,14
 381 -362 381 -362 429 -291 c 128,-1,15
 477 -220 477 -220 477 -200 c 0,16,17
 477 -179 477 -179 440 -179 c 0,18,19
 380 -179 380 -179 380 -236 c 0,20,21
 380 -248 380 -248 384 -262 c 1,22,-1
 328 -262 l 1,23,24
 332 -224 332 -224 316.5 -197 c 128,-1,25
 301 -170 301 -170 272 -170 c 0,26,27
 225 -170 225 -170 225 -202 c 0,28,29
 225 -225 225 -225 255 -249 c 0,30,31
 282 -271 282 -271 279 -278 c 0,32,33
 262 -316 262 -316 237 -313 c 0,34,35
 146 -302 146 -302 146 -195 c 0,36,37
 146 -149 146 -149 180 -115.5 c 128,-1,38
 214 -82 214 -82 261 -82 c 0,39,40
 337 -82 337 -82 361 -126 c 1,41,42
 387 -87 387 -87 455 -87 c 0,43,44
 559 -87 559 -87 559 -187 c 0,45,46
 559 -228 559 -228 513.5 -310 c 128,-1,47
 468 -392 468 -392 468 -417 c 0,48,49
 468 -430 468 -430 477 -441.5 c 128,-1,50
 486 -453 486 -453 498 -452 c 0,51,52
 579 -447 579 -447 579 -303 c 0,53,54
 579 -182 579 -182 555 -107 c 1,55,-1
 837 -106 l 2,56,57
 956 -106 956 -106 956 -204 c 0,58,59
 956 -253 956 -253 928 -282 c 1,60,61
 898 -315 898 -315 843 -314 c 0,0,1
839 -257 m 0,62,63
 867 -259 867 -259 885.5 -244.5 c 128,-1,64
 904 -230 904 -230 904 -212 c 0,65,66
 904 -175 904 -175 842 -180 c 0,67,68
 798 -183 798 -183 798 -218 c 0,69,70
 798 -255 798 -255 839 -257 c 0,62,63
EndSplineSet
EndChar

StartChar: Telugu0
Encoding: 3174 3174 122
Width: 830
GlyphClass: 2
Flags: W
LayerCount: 2
Fore
SplineSet
478 -12 m 0,0,1
 336 -6 336 -6 258 85 c 0,2,3
 185 169 185 169 185 301 c 0,4,5
 185 461 185 461 291 563 c 128,-1,6
 397 665 397 665 542 657 c 0,7,8
 671 650 671 650 750 562.5 c 128,-1,9
 829 475 829 475 829 334 c 0,10,11
 829 181 829 181 720 79 c 0,12,13
 616 -18 616 -18 478 -12 c 0,0,1
534 550 m 0,14,15
 453 550 453 550 381 492.5 c 128,-1,16
 309 435 309 435 292 357 c 0,17,18
 287 335 287 335 287 313 c 0,19,20
 287 225 287 225 355 163 c 1,21,22
 418 104 418 104 491 110 c 0,23,24
 576 117 576 117 645 179 c 1,25,26
 719 248 719 248 719 340 c 0,27,28
 719 419 719 419 667 482 c 0,29,30
 612 550 612 550 534 550 c 0,14,15
EndSplineSet
EndChar

StartChar: Telugu1
Encoding: 3175 3175 123
Width: 840
GlyphClass: 2
Flags: W
LayerCount: 2
Fore
SplineSet
732 11 m 0,0,1
 707 2 707 2 694 2 c 0,2,3
 673 2 673 2 673 29 c 1,4,5
 673 23 673 23 674 56 c 0,6,7
 675 84 675 84 689.5 139 c 128,-1,8
 704 194 704 194 705 263 c 0,9,10
 707 358 707 358 642 441 c 0,11,12
 572 529 572 529 480 529 c 0,13,14
 401 529 401 529 349 466 c 0,15,16
 289 395 289 395 289 266 c 0,17,18
 289 186 289 186 303 127 c 0,19,20
 306 116 306 116 334 29 c 0,21,22
 337 20 337 20 337 15 c 0,23,24
 337 0 337 0 293 0 c 0,25,26
 241 0 241 0 197 101 c 1,27,28
 153 199 153 199 160 291 c 0,29,30
 172 448 172 448 268 555 c 0,31,32
 361 658 361 658 476 658 c 0,33,34
 494 658 494 658 512 655 c 1,35,36
 603 655 603 655 708 557 c 0,37,38
 827 445 827 445 838 297 c 0,39,40
 845 201 845 201 804 107 c 0,41,42
 768 24 768 24 732 11 c 0,0,1
EndSplineSet
EndChar

StartChar: Telugu2
Encoding: 3176 3176 124
Width: 1193
GlyphClass: 2
Flags: W
LayerCount: 2
Fore
SplineSet
268 3 m 0,0,1
 192 10 192 10 181 14 c 0,2,3
 145 27 145 27 137 78 c 1,4,5
 165 119 165 119 190 130 c 0,6,7
 210 139 210 139 261 137 c 0,8,9
 319 135 319 135 483 122 c 0,10,11
 622 111 622 111 698 111 c 0,12,13
 965 111 965 111 1046 241 c 0,14,15
 1058 260 1058 260 1058 294 c 0,16,17
 1058 365 1058 365 1028 399 c 1,18,19
 1020 365 1020 365 999 340 c 1,20,21
 951 278 951 278 848 266 c 0,22,23
 836 265 836 265 823 265 c 0,24,25
 744 265 744 265 688 314 c 0,26,27
 629 365 629 365 629 442 c 256,28,29
 629 519 629 519 711 570 c 0,30,31
 781 613 781 613 870 619 c 0,32,33
 985 627 985 627 1077 560 c 0,34,35
 1185 481 1185 481 1188 335 c 0,36,37
 1190 215 1190 215 1111 123 c 0,38,39
 1040 40 1040 40 937 14 c 0,40,41
 812 -17 812 -17 629 -17 c 0,42,43
 499 -17 499 -17 268 3 c 0,0,1
882 532 m 0,44,45
 825 534 825 534 775 503.5 c 128,-1,46
 725 473 725 473 725 440 c 0,47,48
 725 426 725 426 735 415 c 0,49,50
 777 369 777 369 834 369 c 0,51,52
 846 369 846 369 858 371 c 0,53,54
 908 378 908 378 942 405 c 128,-1,55
 976 432 976 432 976 465 c 0,56,57
 976 479 976 479 968 495 c 0,58,59
 952 530 952 530 882 532 c 0,44,45
EndSplineSet
EndChar

StartChar: Telugu3
Encoding: 3177 3177 125
Width: 783
GlyphClass: 2
Flags: W
LayerCount: 2
Fore
SplineSet
645 365 m 1,0,1
 700 351 700 351 741 299 c 128,-1,2
 782 247 782 247 782 190 c 0,3,4
 782 79 782 79 686 27 c 1,5,6
 610 -13 610 -13 490 -13 c 0,7,8
 252 -13 252 -13 168 118 c 0,9,10
 166 121 166 121 166 125 c 0,11,12
 166 138 166 138 182.5 152.5 c 128,-1,13
 199 167 199 167 218 167 c 0,14,15
 227 167 227 167 236 163 c 0,16,17
 339 118 339 118 357 113 c 0,18,19
 394 103 394 103 484 103 c 0,20,21
 603 103 603 103 632 190 c 1,22,23
 613 256 613 256 565 274 c 0,24,25
 541 283 541 283 466 283 c 0,26,27
 458 283 458 283 390 287 c 0,28,29
 371 288 371 288 356 308.5 c 128,-1,30
 341 329 341 329 341 352 c 0,31,32
 341 395 341 395 392 397 c 0,33,34
 421 398 421 398 507 432 c 0,35,36
 616 475 616 475 616 518 c 1,37,38
 621 566 621 566 574 591 c 0,39,40
 538 610 538 610 486 610 c 0,41,42
 320 610 320 610 236 538 c 0,43,44
 231 534 231 534 225 534 c 0,45,46
 212 534 212 534 200 552 c 128,-1,47
 188 570 188 570 188 590 c 0,48,49
 188 609 188 609 200 618 c 0,50,51
 342 726 342 726 480 726 c 0,52,53
 593 726 593 726 671 679 c 0,54,55
 764 623 764 623 764 519 c 0,56,57
 764 433 764 433 645 365 c 1,0,1
EndSplineSet
EndChar

StartChar: Telugu4
Encoding: 3178 3178 126
Width: 823
GlyphClass: 2
Flags: W
LayerCount: 2
Fore
SplineSet
562 294 m 1,0,1
 599 264 599 264 641 220 c 0,2,3
 696 161 696 161 702 134 c 0,4,5
 704 124 704 124 704 114 c 0,6,7
 704 54 704 54 627 19 c 0,8,9
 562 -10 562 -10 476 -10 c 0,10,11
 398 -10 398 -10 346 20 c 0,12,13
 284 57 284 57 284 125 c 0,14,15
 284 163 284 163 333 222 c 0,16,17
 374 272 374 272 418 304 c 1,18,19
 374 351 374 351 302 441 c 1,20,21
 201 565 201 565 164 633 c 1,22,23
 166 686 166 686 224 706 c 0,24,25
 239 711 239 711 293.5 635.5 c 128,-1,26
 348 560 348 560 402 485 c 1,27,28
 428 452 428 452 491 367 c 1,29,30
 506 377 506 377 602 505 c 1,31,32
 682 620 682 620 765 701 c 0,33,34
 771 707 771 707 779 707 c 0,35,36
 795 707 795 707 811 687 c 128,-1,37
 827 667 827 667 827 646 c 0,38,39
 827 630 827 630 815 619 c 1,40,41
 778 550 778 550 687 440 c 1,42,43
 624 367 624 367 562 294 c 1,0,1
491 81 m 0,44,45
 578 79 578 79 578 118 c 256,46,47
 578 157 578 157 489 235 c 1,48,49
 389 161 389 161 389 122 c 256,50,51
 389 83 389 83 491 81 c 0,44,45
EndSplineSet
EndChar

StartChar: Telugu5
Encoding: 3179 3179 127
Width: 932
GlyphClass: 2
Flags: W
LayerCount: 2
Fore
SplineSet
796 36 m 0,0,1
 734 109 734 109 722 126 c 0,2,3
 694 165 694 165 653 246 c 1,4,5
 468 123 468 123 450 111 c 0,6,7
 312 23 312 23 231 -12 c 0,8,9
 224 -15 224 -15 216 -15 c 0,10,11
 198 -15 198 -15 184.5 3 c 128,-1,12
 171 21 171 21 171 43 c 0,13,14
 171 69 171 69 188 86 c 1,15,16
 256 119 256 119 577 320 c 1,17,18
 575 334 575 334 400 401 c 0,19,20
 236 464 236 464 175 480 c 1,21,22
 158 504 158 504 158 531 c 0,23,24
 158 556 158 556 172.5 574.5 c 128,-1,25
 187 593 187 593 207 593 c 0,26,27
 213 593 213 593 219 591 c 0,28,29
 304 567 304 567 441 512 c 0,30,31
 588 452 588 452 639 417 c 1,32,33
 645 417 645 417 656 445 c 0,34,35
 670 479 670 479 688 496 c 0,36,37
 716 523 716 523 766 521 c 0,38,39
 806 520 806 520 829 493 c 128,-1,40
 852 466 852 466 852 428 c 0,41,42
 852 399 852 399 838 372 c 0,43,44
 817 333 817 333 805 322 c 1,45,46
 788 309 788 309 733 292 c 1,47,48
 796 210 796 210 905 58 c 0,49,50
 909 52 909 52 909 44 c 0,51,52
 909 26 909 26 896 10.5 c 128,-1,53
 883 -5 883 -5 862 -5 c 0,54,55
 831 -5 831 -5 796 36 c 0,0,1
EndSplineSet
EndChar

StartChar: Telugu6
Encoding: 3180 3180 128
Width: 1073
GlyphClass: 2
Flags: W
LayerCount: 2
Fore
SplineSet
373 -10 m 2,0,1
 260 -10 260 -10 189 65 c 0,2,3
 135 123 135 123 135 172 c 1,4,5
 154 245 154 245 314 318 c 1,6,7
 241 355 241 355 216 401 c 0,8,9
 209 414 209 414 198 465 c 1,10,11
 200 493 200 493 247 547 c 0,12,13
 303 610 303 610 364 626.5 c 128,-1,14
 425 643 425 643 472 643 c 0,15,16
 557 643 557 643 557 598 c 0,17,18
 557 590 557 590 553 580 c 1,19,20
 535 570 535 570 464 553 c 0,21,22
 387 535 387 535 355 520 c 0,23,24
 301 496 301 496 297 458 c 0,25,26
 292 395 292 395 560 395 c 0,27,28
 587 395 587 395 618 396 c 0,29,30
 643 396 643 396 643 396 c 1,31,32
 711 392 711 392 711 357 c 0,33,34
 711 320 711 320 622 303 c 1,35,36
 527 290 527 290 432 276 c 1,37,38
 290 247 290 247 278 191 c 0,39,40
 269 147 269 147 364 126 c 0,41,42
 423 113 423 113 504 112 c 1,43,-1
 982 115 l 1,44,45
 1085 96 1085 96 1085 49 c 0,46,47
 1085 28 1085 28 1060.5 11.5 c 128,-1,48
 1036 -5 1036 -5 1000 -5 c 2,49,-1
 373 -10 l 2,0,1
EndSplineSet
EndChar

StartChar: Telugu7
Encoding: 3181 3181 129
Width: 789
GlyphClass: 2
Flags: W
LayerCount: 2
Fore
SplineSet
451 -10 m 0,0,1
 342 -10 342 -10 256 37 c 0,2,3
 157 91 157 91 160 178 c 1,4,5
 175 239 175 239 305 292 c 0,6,7
 352 311 352 311 544 370 c 0,8,9
 674 409 674 409 685 435 c 1,10,11
 686 486 686 486 582 500 c 0,12,13
 538 506 538 506 476 504 c 1,14,15
 380 495 380 495 288 467 c 0,16,17
 205 442 205 442 198 442 c 0,18,19
 170 442 170 442 170 469 c 0,20,21
 170 482 170 482 183 501 c 0,22,23
 256 602 256 602 489 602 c 0,24,25
 572 602 572 602 654 568 c 0,26,27
 755 527 755 527 783 455 c 1,28,29
 778 369 778 369 666 312 c 0,30,31
 615 285 615 285 450 234 c 0,32,33
 326 196 326 196 306 162 c 1,34,35
 319 92 319 92 432 92 c 0,36,37
 452 92 452 92 475 94 c 0,38,39
 614 108 614 108 640.5 115 c 128,-1,40
 667 122 667 122 692 130 c 0,41,42
 726 141 726 141 749 141 c 0,43,44
 790 141 790 141 790 111 c 0,45,46
 790 79 790 79 757 58 c 0,47,48
 653 -10 653 -10 451 -10 c 0,0,1
EndSplineSet
EndChar

StartChar: Telugu8
Encoding: 3182 3182 130
Width: 1121
GlyphClass: 2
Flags: W
LayerCount: 2
Fore
SplineSet
681 462 m 1,0,1
 851 370 851 370 851 251 c 0,2,3
 851 133 851 133 734 58 c 0,4,5
 625 -13 625 -13 473 -10 c 1,6,7
 334 -6 334 -6 250 72 c 0,8,9
 170 146 170 146 161 264 c 0,10,11
 157 316 157 316 180 350 c 0,12,13
 200 379 200 379 227 379 c 0,14,15
 259 379 259 379 259 338 c 0,16,17
 259 279 259 279 258 289 c 1,18,19
 260 267 260 267 287 204 c 0,20,21
 304 164 304 164 353 135 c 0,22,23
 413 99 413 99 485 105 c 0,24,25
 574 112 574 112 652 156 c 1,26,27
 736 205 736 205 736 262 c 0,28,29
 736 285 736 285 720 308 c 0,30,31
 650 408 650 408 421 484 c 0,32,33
 409 488 409 488 409 500 c 0,34,35
 409 526 409 526 459 580 c 1,36,-1
 1070 578 l 2,37,38
 1103 578 1103 578 1114 566 c 0,39,40
 1122 557 1122 557 1122 528 c 0,41,42
 1122 492 1122 492 1114 480 c 0,43,44
 1103 464 1103 464 1070 468 c 1,45,-1
 681 462 l 1,0,1
EndSplineSet
EndChar

StartChar: Telugu9
Encoding: 3183 3183 131
Width: 1073
GlyphClass: 2
Flags: W
LayerCount: 2
Fore
SplineSet
373 620 m 2,0,1
 373 620 373 620 1000 615 c 0,2,3
 1036 615 1036 615 1060.5 598.5 c 128,-1,4
 1085 582 1085 582 1085 561 c 0,5,6
 1085 514 1085 514 982 505 c 1,7,-1
 504 498 l 2,8,9
 423 497 423 497 364 484 c 0,10,11
 269 463 269 463 278 419 c 0,12,13
 290 363 290 363 432 334 c 1,14,15
 527 321 527 321 622 307 c 1,16,17
 711 290 711 290 711 253 c 0,18,19
 711 218 711 218 643 214 c 1,20,21
 643 214 643 214 618 214 c 0,22,23
 587 215 587 215 560 215 c 0,24,25
 292 215 292 215 297 152 c 1,26,27
 301 115 301 115 355 90 c 0,28,29
 387 75 387 75 464 57 c 0,30,31
 535 40 535 40 553 30 c 1,32,33
 557 20 557 20 557 12 c 0,34,35
 557 -33 557 -33 472 -33 c 0,36,37
 425 -33 425 -33 364 -16.5 c 128,-1,38
 303 0 303 0 247 63 c 0,39,40
 200 117 200 117 198 145 c 1,41,42
 209 196 209 196 216 210 c 0,43,44
 241 255 241 255 314 292 c 1,45,46
 154 365 154 365 135 438 c 1,47,48
 135 488 135 488 189 545 c 0,49,50
 260 621 260 621 373 620 c 2,0,1
EndSplineSet
EndChar

StartChar: Nukta
Encoding: 3185 3185 132
Width: 488
GlyphClass: 2
Flags: W
LayerCount: 2
Fore
SplineSet
315 490 m 0,0,1
 356 492 356 492 388 524 c 0,2,3
 402 538 402 538 432 584 c 0,4,5
 453 615 453 615 467 615 c 0,6,7
 477 615 477 615 488 602 c 0,8,9
 493 597 493 597 493 585 c 0,10,11
 493 559 493 559 475 514.5 c 128,-1,12
 457 470 457 470 446 460 c 0,13,14
 393 412 393 412 323 410 c 0,15,16
 258 408 258 408 192.5 465.5 c 128,-1,17
 127 523 127 523 127 582 c 0,18,19
 127 595 127 595 131 607 c 0,20,21
 142 638 142 638 154 638 c 0,22,23
 165 638 165 638 189 599 c 0,24,25
 222 546 222 546 240 527 c 0,26,27
 276 488 276 488 315 490 c 0,0,1
290 170 m 0,28,29
 249 168 249 168 217 136 c 0,30,31
 203 122 203 122 173 76 c 0,32,33
 152 45 152 45 138 45 c 0,34,35
 128 45 128 45 117 58 c 0,36,37
 112 63 112 63 112 75 c 0,38,39
 112 101 112 101 131 147 c 0,40,41
 148 190 148 190 159 200 c 0,42,43
 212 248 212 248 282 250 c 0,44,45
 347 252 347 252 412.5 194.5 c 128,-1,46
 478 137 478 137 478 78 c 0,47,48
 478 65 478 65 474 53 c 0,49,50
 463 22 463 22 452 22 c 0,51,52
 440 22 440 22 416 61 c 0,53,54
 383 114 383 114 365 133 c 0,55,56
 329 172 329 172 290 170 c 0,28,29
EndSplineSet
EndChar

StartChar: uni0C78
Encoding: 3192 3192 133
Width: 637
GlyphClass: 2
Flags: W
LayerCount: 2
Fore
SplineSet
265 -2 m 1,0,1
 230 21 230 21 230 42 c 0,2,3
 230 57 230 57 249 69 c 1,4,5
 374 123 374 123 538 197 c 1,6,7
 545 207 545 207 449 234 c 0,8,9
 324 270 324 270 259 312 c 0,10,11
 154 380 154 380 154 486 c 0,12,13
 154 578 154 578 257 643 c 0,14,15
 355 704 355 704 472 700 c 0,16,17
 621 695 621 695 621 490 c 0,18,19
 621 362 621 362 463 317 c 1,20,21
 516 300 516 300 570 283 c 1,22,23
 638 257 638 257 638 223 c 0,24,25
 638 206 638 206 622 187 c 0,26,27
 578 133 578 133 438 67 c 0,28,29
 339 21 339 21 265 -2 c 1,0,1
548 521 m 0,30,31
 550 574 550 574 507 605 c 0,32,33
 468 633 468 633 409 633 c 0,34,35
 343 633 343 633 296 599 c 0,36,37
 242 560 242 560 239 493 c 1,38,39
 235 431 235 431 272 398 c 1,40,41
 304 368 304 368 359 368 c 0,42,43
 428 368 428 368 484 409 c 0,44,45
 545 455 545 455 548 521 c 0,30,31
EndSplineSet
EndChar

StartChar: uni0C79
Encoding: 3193 3193 134
Width: 223
GlyphClass: 2
Flags: W
LayerCount: 2
Fore
SplineSet
147 675 m 1,0,-1
 220 683 l 1,1,-1
 218 35 l 1,2,-1
 149 17 l 1,3,-1
 147 675 l 1,0,-1
EndSplineSet
EndChar

StartChar: uni0C7A
Encoding: 3194 3194 135
Width: 666
GlyphClass: 2
Flags: W
LayerCount: 2
Fore
SplineSet
241 697 m 0,0,1
 281 672 281 672 281 617 c 0,2,3
 281 596 281 596 273 546.5 c 128,-1,4
 265 497 265 497 265 470 c 0,5,6
 265 407 265 407 308 375 c 0,7,8
 344 347 344 347 404 347 c 0,9,10
 462 347 462 347 511 370.5 c 128,-1,11
 560 394 560 394 561 424 c 0,12,13
 562 463 562 463 556 527 c 1,14,15
 551 595 551 595 551 617 c 0,16,17
 551 712 551 712 619 712 c 0,18,19
 638 712 638 712 652.5 604.5 c 128,-1,20
 667 497 667 497 667 358 c 0,21,22
 667 189 667 189 645 80 c 1,23,24
 620 -50 620 -50 571 -50 c 0,25,26
 488 -50 488 -50 488 -6 c 0,27,28
 488 13 488 13 518 104 c 0,29,30
 553 208 553 208 565 296 c 1,31,32
 504 255 504 255 433 255 c 0,33,34
 387 255 387 255 337 273 c 0,35,36
 256 301 256 301 231 317 c 0,37,38
 151 368 151 368 157 452 c 1,39,40
 158 711 158 711 207 711 c 0,41,42
 218 711 218 711 241 697 c 0,0,1
EndSplineSet
EndChar

StartChar: uni0C7B
Encoding: 3195 3195 136
Width: 1002
GlyphClass: 2
Flags: W
LayerCount: 2
Fore
SplineSet
595 710 m 0,0,1
 636 685 636 685 636 630 c 0,2,3
 636 609 636 609 628 559.5 c 128,-1,4
 620 510 620 510 619 483 c 0,5,6
 618 360 618 360 744 360 c 0,7,8
 796 360 796 360 840 383.5 c 128,-1,9
 884 407 884 407 885 437 c 0,10,11
 886 476 886 476 881 540 c 0,12,13
 875 608 875 608 875 630 c 0,14,15
 875 725 875 725 943 725 c 0,16,17
 963 725 963 725 977 617.5 c 128,-1,18
 991 510 991 510 991 371 c 0,19,20
 991 202 991 202 969 93 c 1,21,22
 944 -37 944 -37 895 -37 c 0,23,24
 812 -37 812 -37 812 7 c 0,25,26
 812 26 812 26 842 117 c 0,27,28
 877 221 877 221 889 309 c 1,29,30
 828 268 828 268 758 268 c 0,31,32
 711 268 711 268 661 286 c 0,33,34
 633 296 633 296 604 322 c 0,35,36
 570 353 570 353 560 386 c 1,37,38
 470 268 470 268 351 268 c 0,39,40
 314 268 314 268 279 280 c 0,41,42
 152 324 152 324 150 469 c 1,43,-1
 189 709 l 1,44,45
 212 743 212 743 239 743 c 0,46,47
 269 743 269 743 296 709 c 1,48,49
 296 696 296 696 275 614 c 128,-1,50
 254 532 254 532 254 477 c 0,51,52
 254 415 254 415 291 382 c 0,53,54
 323 354 323 354 374 354 c 0,55,56
 429 354 429 354 472.5 386 c 128,-1,57
 516 418 516 418 511 465 c 1,58,59
 512 724 512 724 562 724 c 0,60,61
 572 724 572 724 595 710 c 0,0,1
EndSplineSet
EndChar

StartChar: uni0C7C
Encoding: 3196 3196 137
Width: 820
GlyphClass: 2
Flags: W
LayerCount: 2
Fore
SplineSet
123 294 m 1,0,-1
 115 367 l 1,1,-1
 803 365 l 1,2,-1
 821 296 l 1,3,-1
 123 294 l 1,0,-1
EndSplineSet
EndChar

StartChar: uni0C7D
Encoding: 3197 3197 138
Width: 1061
GlyphClass: 2
Flags: W
LayerCount: 2
Fore
SplineSet
527 2 m 0,0,1
 352 2 352 2 265 21 c 0,2,3
 103 58 103 58 128 164 c 0,4,5
 141 219 141 219 246 264 c 0,6,7
 259 270 259 270 442 331 c 0,8,9
 552 368 552 368 569 401 c 0,10,11
 579 420 579 420 579 436 c 0,12,13
 579 492 579 492 465 492 c 0,14,15
 445 492 445 492 423 490.5 c 128,-1,16
 401 489 401 489 318 480 c 0,17,18
 256 473 256 473 225 473 c 0,19,20
 139 473 139 473 137 520 c 0,21,22
 136 541 136 541 203 560 c 0,23,24
 288 584 288 584 431 582 c 0,25,26
 520 580 520 580 594.5 537.5 c 128,-1,27
 669 495 669 495 666 444 c 0,28,29
 662 357 662 357 563 295 c 0,30,31
 505 259 505 259 376 215 c 0,32,33
 268 179 268 179 257 161 c 0,34,35
 252 154 252 154 252 148 c 0,36,37
 252 111 252 111 414 111 c 0,38,39
 436 111 436 111 468 111 c 1,40,41
 495 112 495 112 500 112 c 0,42,43
 571 110 571 110 798 136 c 1,44,45
 913 159 913 159 1033 187 c 1,46,47
 1047 188 1047 188 1058 177.5 c 128,-1,48
 1069 167 1069 167 1069 150 c 0,49,50
 1069 96 1069 96 963 56 c 0,51,52
 821 2 821 2 527 2 c 0,0,1
EndSplineSet
EndChar

StartChar: uni0C7E
Encoding: 3198 3198 139
Width: 1015
GlyphClass: 2
Flags: W
LayerCount: 2
Fore
SplineSet
549 283 m 0,0,1
 551 307 551 307 416 324 c 0,2,3
 254 344 254 344 203 374 c 0,4,5
 163 398 163 398 163 429 c 0,6,7
 163 475 163 475 234 491 c 0,8,9
 264 498 264 498 421 510 c 0,10,11
 550 520 550 520 553 533 c 0,12,13
 561 573 561 573 502 588 c 1,14,15
 462 597 462 597 369 597 c 2,16,-1
 321 597 l 2,17,18
 189 597 189 597 189 628 c 0,19,20
 189 633 189 633 192 640 c 0,21,22
 203 663 203 663 215.5 670 c 128,-1,23
 228 677 228 677 268 677 c 0,24,25
 286 677 286 677 391 673 c 1,26,27
 533 655 533 655 587 632 c 0,28,29
 651 604 651 604 648 549 c 1,30,31
 623 498 623 498 544 474 c 0,32,33
 446 444 446 444 346 437 c 0,34,35
 275 432 275 432 274 426 c 1,36,37
 498 393 498 393 553 375 c 0,38,39
 652 343 652 343 652 299 c 0,40,41
 652 289 652 289 642 265 c 0,42,43
 624 218 624 218 519 191 c 0,44,45
 493 185 493 185 335 158 c 1,46,47
 240 143 240 143 240 122 c 0,48,49
 240 88 240 88 373 88 c 0,50,51
 405 88 405 88 450.5 90 c 128,-1,52
 496 92 496 92 500 92 c 0,53,54
 517 92 517 92 594 93 c 0,55,56
 677 95 677 95 729 95 c 0,57,58
 1027 95 1027 95 1015 43 c 1,59,60
 1014 27 1014 27 1012 11 c 1,61,62
 1002 3 1002 3 909 2 c 1,63,64
 923 2 923 2 527 2 c 0,65,66
 349 2 349 2 301 8 c 0,67,68
 145 29 145 29 145 109 c 0,69,70
 145 121 145 121 148 134 c 0,71,72
 164 195 164 195 267 225 c 0,73,74
 320 240 320 240 452 256 c 0,75,76
 548 267 548 267 549 283 c 0,0,1
EndSplineSet
EndChar

StartChar: uni0C7F
Encoding: 3199 3199 140
Width: 883
GlyphClass: 2
Flags: W
LayerCount: 2
Fore
SplineSet
846 369 m 256,0,1
 856 368 856 368 868 343.5 c 128,-1,2
 880 319 880 319 880 302 c 0,3,4
 880 297 880 297 878 294 c 0,5,6
 827 203 827 203 742 133 c 0,7,8
 639 49 639 49 519 24 c 0,9,10
 487 17 487 17 443 17 c 0,11,12
 239 17 239 17 154 158 c 0,13,14
 109 233 109 233 109 298 c 0,15,16
 109 332 109 332 129 392 c 128,-1,17
 149 452 149 452 213 499 c 0,18,19
 288 554 288 554 378 551 c 0,20,21
 438 549 438 549 476.5 510.5 c 128,-1,22
 515 472 515 472 505 419 c 1,23,24
 504 380 504 380 462 347 c 128,-1,25
 420 314 420 314 380 316 c 0,26,27
 327 318 327 318 291.5 346 c 128,-1,28
 256 374 256 374 256 414 c 0,29,30
 256 438 256 438 271 463 c 1,31,32
 224 440 224 440 213 358 c 0,33,34
 210 338 210 338 210 320 c 0,35,36
 210 229 210 229 270 176 c 1,37,38
 327 127 327 127 419 127 c 0,39,40
 451 127 451 127 486 134 c 0,41,42
 604 157 604 157 691 219 c 0,43,44
 745 258 745 258 797 322 c 0,45,46
 836 370 836 370 846 369 c 256,0,1
376 483 m 1,47,48
 342 485 342 485 322 468.5 c 128,-1,49
 302 452 302 452 302 428 c 0,50,51
 302 405 302 405 321 389 c 0,52,53
 343 370 343 370 381 370 c 0,54,55
 413 370 413 370 432.5 387.5 c 128,-1,56
 452 405 452 405 451 424 c 1,57,58
 451 482 451 482 376 483 c 1,47,48
EndSplineSet
EndChar

StartChar: KshNnaAI
Encoding: 8204 8204 141
Width: 207
GlyphClass: 2
Flags: W
LayerCount: 2
Fore
SplineSet
154 0 m 1,0,-1
 154 589 l 1,1,-1
 207 589 l 1,2,-1
 207 0 l 1,3,-1
 154 0 l 1,0,-1
EndSplineSet
EndChar

StartChar: afii301
Encoding: 8205 8205 142
Width: 647
GlyphClass: 2
Flags: W
LayerCount: 2
Fore
SplineSet
596 355 m 1,0,-1
 422 509 l 1,1,-1
 422 0 l 1,2,-1
 359 0 l 1,3,-1
 359 509 l 1,4,-1
 183 354 l 1,5,-1
 140 406 l 1,6,-1
 342 587 l 1,7,-1
 146 773 l 1,8,-1
 196 818 l 1,9,-1
 393 630 l 1,10,-1
 593 826 l 1,11,-1
 638 779 l 1,12,-1
 439 582 l 1,13,-1
 647 397 l 1,14,-1
 596 355 l 1,0,-1
EndSplineSet
EndChar

StartChar: Ksha
Encoding: 65539 -1 143
Width: 893
GlyphClass: 3
Flags: W
AnchorPoint: "Anchor-1" 0 0 basechar 0
LayerCount: 2
Fore
SplineSet
571 20 m 1,0,1
 519 11 519 11 479 11 c 0,2,3
 441 11 441 11 425 20 c 1,4,5
 425 -79 425 -79 423 -67 c 1,6,7
 426 -83 426 -83 431 -83 c 0,8,9
 437 -83 437 -83 458.5 -48.5 c 128,-1,10
 480 -14 480 -14 493 -15 c 0,11,12
 516 -16 516 -16 550 -76 c 1,13,14
 575 -78 575 -78 571 20 c 1,0,1
761 152 m 0,15,16
 761 86 761 86 642 34 c 1,17,18
 644 -27 644 -27 690 -182 c 0,19,20
 693 -194 693 -194 693 -201 c 0,21,22
 693 -219 693 -219 652 -223 c 0,23,24
 615 -227 615 -227 594 -121 c 1,25,26
 563 -149 563 -149 542 -149 c 0,27,28
 517 -149 517 -149 506 -140 c 1,29,30
 493 -127 493 -127 480 -113 c 1,31,32
 430 -153 430 -153 392 -153 c 0,33,34
 361 -153 361 -153 344 -119 c 0,35,36
 329 -90 329 -90 329 -46 c 0,37,38
 329 -4 329 -4 342 22 c 1,39,40
 209 52 209 52 179 136 c 1,41,42
 202 141 202 141 218 149 c 0,43,44
 230 156 230 156 241 156 c 1,45,46
 238 156 238 156 319.5 122.5 c 128,-1,47
 401 89 401 89 469 89 c 0,48,49
 657 89 657 89 657 144 c 0,50,51
 657 185 657 185 547 230 c 0,52,53
 359 307 359 307 342 316 c 0,54,55
 232 377 232 377 232 455 c 0,56,57
 232 514 232 514 281 550 c 1,58,59
 233 550 233 550 193 566 c 0,60,61
 140 587 140 587 137 627 c 1,62,63
 150 634 150 634 170 634 c 0,64,65
 181 634 181 634 205 630.5 c 128,-1,66
 229 627 229 627 240 627 c 0,67,68
 314 627 314 627 398 686 c 1,69,70
 470 741 470 741 543 796 c 1,71,72
 631 855 631 855 716 855 c 0,73,74
 795 855 795 855 862 775 c 1,75,-1
 868 680 l 1,76,77
 746 782 746 782 699 782 c 0,78,79
 647 782 647 782 587 737 c 0,80,81
 576 729 576 729 495 655 c 1,82,83
 511 658 511 658 581 658 c 0,84,85
 633 658 633 658 687.5 639 c 128,-1,86
 742 620 742 620 770 589 c 1,87,88
 767 587 767 587 748 565 c 0,89,90
 733 547 733 547 723 547 c 0,91,92
 714 547 714 547 644 565 c 128,-1,93
 574 583 574 583 529 583 c 0,94,95
 472 583 472 583 410 553 c 0,96,97
 336 518 336 518 336 468 c 0,98,99
 336 412 336 412 446 357 c 1,100,101
 549 311 549 311 651 265 c 1,102,103
 761 210 761 210 761 152 c 0,15,16
EndSplineSet
Ligature2: "'akhn' Akhand in Telugu lookup 0 subtable" Telugu_Ka SSa Halanth
EndChar

StartChar: LuMatra
Encoding: 65540 -1 144
Width: 0
GlyphClass: 4
Flags: W
LayerCount: 2
Fore
SplineSet
-176 733 m 1,0,1
 -254 774 -254 774 -254 839 c 0,2,3
 -254 880 -254 880 -217.5 908 c 128,-1,4
 -181 936 -181 936 -122 937 c 0,5,6
 -71 938 -71 938 -39 908 c 128,-1,7
 -7 878 -7 878 -7 825 c 0,8,9
 -7 803 -7 803 -25 803 c 0,10,11
 -36 803 -36 803 -41 826 c 0,12,13
 -53 877 -53 877 -110 877 c 0,14,15
 -138 877 -138 877 -159 865 c 0,16,17
 -185 850 -185 850 -181 825 c 0,18,19
 -176 792 -176 792 -90 746 c 1,20,21
 -87 717 -87 717 -118 717 c 0,22,23
 -140 717 -140 717 -176 733 c 1,0,1
EndSplineSet
EndChar

StartChar: Kaottu
Encoding: 65541 -1 145
Width: 409
GlyphClass: 4
Flags: W
LayerCount: 2
Fore
SplineSet
404 45 m 1,0,1
 317 46 317 46 294 44 c 1,2,3
 344 -5 344 -5 344 -93 c 0,4,5
 344 -168 344 -168 283 -227 c 0,6,7
 227 -282 227 -282 160 -285 c 0,8,9
 77 -289 77 -289 25 -225 c 0,10,11
 -22 -167 -22 -167 -26 -77 c 0,12,13
 -30 16 -30 16 28 142 c 0,14,15
 89 277 89 277 152 277 c 0,16,17
 170 277 170 277 186.5 269 c 128,-1,18
 203 261 203 261 203 248 c 0,19,20
 203 243 203 243 199 237 c 0,21,22
 156 181 156 181 113 126 c 1,23,24
 49 31 49 31 49 -58 c 0,25,26
 49 -116 49 -116 62 -145 c 0,27,28
 83 -196 83 -196 147 -208 c 0,29,30
 188 -216 188 -216 223 -167 c 0,31,32
 255 -122 255 -122 255 -75 c 0,33,34
 255 -21 255 -21 224 26 c 1,35,36
 191 68 191 68 158 111 c 1,37,-1
 405 112 l 1,38,39
 405 51 405 51 404 45 c 1,0,1
EndSplineSet
Ligature2: "'blwf' Below Base Forms in Telugu lookup 1 subtable" Telugu_Ka Halanth
Position2: "Single Positioning lookup 10 subtable" dx=-130 dy=-15 dh=-144 dv=0
Position2: "Single Positioning lookup 9 subtable" dx=20 dy=0 dh=0 dv=0
Position2: "Single Positioning lookup 8 subtable" dx=0 dy=60 dh=126 dv=0
EndChar

StartChar: KhaOttu
Encoding: 65542 -1 146
Width: 0
GlyphClass: 4
Flags: W
AnchorPoint: "Anchor-1" -21 33 mark 0
LayerCount: 2
Fore
SplineSet
608 -504 m 0,0,1
 580 -498 580 -498 552 -471 c 1,2,-1
 552 -568 l 1,3,4
 546 -574 546 -574 541 -579 c 1,5,6
 533 -585 533 -585 510 -585 c 0,7,8
 485 -585 485 -585 479 -579 c 128,-1,9
 473 -573 473 -573 467 -567 c 1,10,-1
 467 -455 l 1,11,12
 425 -491 425 -491 376 -491 c 0,13,14
 339 -491 339 -491 309.5 -465.5 c 128,-1,15
 280 -440 280 -440 280 -403 c 0,16,17
 280 -271 280 -271 430 -258 c 0,18,19
 476 -254 476 -254 476 -268 c 1,20,21
 480 -251 480 -251 480 -233 c 0,22,23
 480 -150 480 -150 418 -150 c 0,24,25
 411 -150 411 -150 403 -151 c 0,26,27
 364 -158 364 -158 364 -198 c 0,28,29
 364 -218 364 -218 378 -231 c 1,30,31
 352 -267 352 -267 326 -267 c 0,32,33
 305 -267 305 -267 292.5 -246 c 128,-1,34
 280 -225 280 -225 280 -203 c 0,35,36
 280 -154 280 -154 317 -117.5 c 128,-1,37
 354 -81 354 -81 403 -81 c 0,38,39
 471 -81 471 -81 520.5 -135.5 c 128,-1,40
 570 -190 570 -190 570 -259 c 0,41,42
 570 -297 570 -297 551 -341 c 0,43,44
 547 -348 547 -348 547 -358 c 0,45,46
 547 -382 547 -382 567.5 -407.5 c 128,-1,47
 588 -433 588 -433 611 -433 c 0,48,49
 654 -433 654 -433 682 -391 c 1,50,51
 706 -353 706 -353 706 -310 c 0,52,53
 706 -239 706 -239 678 -196 c 0,54,55
 660 -168 660 -168 625.5 -148.5 c 128,-1,56
 591 -129 591 -129 589 -122 c 0,57,58
 588 -119 588 -119 588 -116 c 0,59,60
 588 -94 588 -94 619 -96 c 0,61,62
 700 -102 700 -102 748 -175 c 0,63,64
 789 -237 789 -237 789 -312 c 0,65,66
 789 -384 789 -384 750 -442 c 0,67,68
 705 -507 705 -507 638 -507 c 0,69,70
 623 -507 623 -507 608 -504 c 0,0,1
426 -318 m 0,71,72
 336 -334 336 -334 346 -399 c 1,73,74
 362 -425 362 -425 384 -425 c 0,75,76
 411 -425 411 -425 435.5 -395 c 128,-1,77
 460 -365 460 -365 460 -340 c 0,78,79
 460 -312 460 -312 426 -318 c 0,71,72
EndSplineSet
Ligature2: "'blwf' Below Base Forms in Telugu lookup 1 subtable" Telugu_Kha Halanth
EndChar

StartChar: GaOttu
Encoding: 65543 -1 147
Width: 0
GlyphClass: 4
Flags: W
AnchorPoint: "Anchor-1" -39 85 mark 0
LayerCount: 2
Fore
SplineSet
292 -413 m 0,0,1
 316 -329 316 -329 433 -117 c 0,2,3
 450 -87 450 -87 480 -87 c 0,4,5
 506 -87 506 -87 537 -109 c 1,6,7
 627 -368 627 -368 712 -440 c 1,8,9
 687 -487 687 -487 658 -487 c 0,10,11
 614 -487 614 -487 553 -372 c 1,12,13
 516 -293 516 -293 479 -214 c 1,14,15
 412 -328 412 -328 377 -431 c 1,16,17
 366 -468 366 -468 330 -468 c 0,18,19
 290 -468 290 -468 290 -429 c 0,20,21
 290 -422 290 -422 292 -413 c 0,0,1
EndSplineSet
Ligature2: "'blwf' Below Base Forms in Telugu lookup 1 subtable" Ga Halanth
EndChar

StartChar: GhaOttu
Encoding: 65544 -1 148
Width: 0
GlyphClass: 4
Flags: W
AnchorPoint: "Anchor-1" 76 90 mark 0
LayerCount: 2
Fore
SplineSet
692 -417 m 1,0,1
 644 -465 644 -465 606 -462 c 0,2,3
 563 -458 563 -458 531 -434 c 1,4,5
 537 -461 537 -461 537 -498 c 0,6,7
 537 -575 537 -575 506 -580 c 1,8,9
 452 -568 452 -568 452 -514 c 0,10,11
 452 -491 452 -491 465 -440 c 1,12,13
 429 -471 429 -471 379 -471 c 0,14,15
 338 -471 338 -471 309 -449 c 128,-1,16
 280 -427 280 -427 280 -390 c 0,17,18
 280 -326 280 -326 340 -290 c 0,19,20
 390 -261 390 -261 459 -261 c 0,21,22
 551 -261 551 -261 551 -312 c 0,23,24
 551 -317 551 -317 550 -326 c 0,25,26
 550 -335 550 -335 550 -339 c 0,27,28
 550 -378 550 -378 593 -388 c 0,29,30
 599 -389 599 -389 606 -389 c 0,31,32
 636 -389 636 -389 657 -357 c 0,33,34
 676 -329 676 -329 675 -300 c 0,35,36
 673 -233 673 -233 634 -192 c 0,37,38
 611 -168 611 -168 561 -144 c 0,39,40
 521 -125 521 -125 519 -112 c 0,41,42
 517 -94 517 -94 552 -94 c 0,43,44
 635 -94 635 -94 694 -157 c 128,-1,45
 753 -220 753 -220 753 -302 c 0,46,47
 753 -341 753 -341 733 -378 c 1,48,49
 763 -382 763 -382 763 -382 c 1,50,51
 794 -382 794 -382 815 -354 c 0,52,53
 835 -329 835 -329 835 -299 c 0,54,55
 835 -243 835 -243 802 -210 c 1,56,57
 765 -181 765 -181 727 -151 c 1,58,59
 727 -135 727 -135 734.5 -129 c 128,-1,60
 742 -123 742 -123 758 -123 c 0,61,62
 809 -123 809 -123 861.5 -183.5 c 128,-1,63
 914 -244 914 -244 914 -301 c 0,64,65
 914 -365 914 -365 873 -410.5 c 128,-1,66
 832 -456 832 -456 769 -456 c 0,67,68
 731 -456 731 -456 692 -417 c 1,0,1
357 -403 m 1,69,70
 370 -406 370 -406 383 -406 c 0,71,72
 419 -406 419 -406 447 -386 c 128,-1,73
 475 -366 475 -366 475 -343 c 0,74,75
 475 -328 475 -328 462 -318 c 1,76,77
 449 -315 449 -315 435 -315 c 0,78,79
 398 -315 398 -315 371.5 -334 c 128,-1,80
 345 -353 345 -353 345 -377 c 0,81,82
 345 -391 345 -391 357 -403 c 1,69,70
EndSplineSet
Ligature2: "'blwf' Below Base Forms in Telugu lookup 1 subtable" Gha Halanth
EndChar

StartChar: NgaOttu
Encoding: 65545 -1 149
Width: 0
GlyphClass: 4
Flags: W
AnchorPoint: "Anchor-1" -2 91 mark 0
LayerCount: 2
Fore
SplineSet
555 -176 m 1,0,1
 555 -128 555 -128 555 -128 c 1,2,3
 558 -108 558 -108 581 -105 c 0,4,5
 589 -104 589 -104 595 -104 c 0,6,7
 616 -104 616 -104 621 -131 c 0,8,9
 622 -138 622 -138 621 -176 c 1,10,-1
 676 -176 l 1,11,-1
 676 -236 l 1,12,-1
 614 -236 l 1,13,14
 605 -279 605 -279 585 -279 c 0,15,16
 572 -279 572 -279 555 -234 c 1,17,-1
 524 -236 l 1,18,19
 490 -274 490 -274 456 -312 c 1,20,21
 404 -374 404 -374 404 -397 c 0,22,23
 404 -401 404 -401 405 -404 c 1,24,25
 412 -411 412 -411 422 -411 c 0,26,27
 445 -411 445 -411 472.5 -381.5 c 128,-1,28
 500 -352 500 -352 509 -321 c 0,29,30
 511 -313 511 -313 520 -313 c 0,31,32
 538 -313 538 -313 551 -330 c 1,33,34
 549 -367 549 -367 554 -382 c 0,35,36
 564 -412 564 -412 599 -417 c 0,37,38
 624 -421 624 -421 653 -405.5 c 128,-1,39
 682 -390 682 -390 685 -363 c 0,40,41
 687 -340 687 -340 675 -326 c 0,42,43
 673 -324 673 -324 621 -278 c 1,44,45
 768 -286 768 -286 764 -362 c 0,46,47
 762 -414 762 -414 705 -453 c 0,48,49
 653 -489 653 -489 599 -489 c 0,50,51
 543 -489 543 -489 498 -439 c 1,52,53
 441 -480 441 -480 407 -482 c 0,54,55
 375 -484 375 -484 347 -464 c 0,56,57
 316 -442 316 -442 316 -410 c 0,58,59
 316 -373 316 -373 392.5 -291 c 128,-1,60
 469 -209 469 -209 469 -187 c 0,61,62
 469 -176 469 -176 456 -164.5 c 128,-1,63
 443 -153 443 -153 431 -153 c 0,64,65
 367 -153 367 -153 367 -199 c 0,66,67
 367 -207 367 -207 369.5 -214.5 c 128,-1,68
 372 -222 372 -222 374 -228 c 0,69,70
 379 -241 379 -241 379 -247 c 0,71,72
 379 -284 379 -284 334 -284 c 0,73,74
 280 -284 280 -284 280 -214 c 0,75,76
 280 -158 280 -158 329 -121 c 0,77,78
 374 -87 374 -87 431 -87 c 0,79,80
 473 -87 473 -87 502 -113 c 0,81,82
 528 -137 528 -137 533 -172 c 0,83,84
 535 -183 535 -183 555 -176 c 1,0,1
EndSplineSet
Ligature2: "'blwf' Below Base Forms in Telugu lookup 1 subtable" Telugu_M Halanth
EndChar

StartChar: CaOttu
Encoding: 65546 -1 150
Width: 427
GlyphClass: 4
Flags: W
LayerCount: 2
Fore
SplineSet
294 -282 m 0,0,1
 224 -282 224 -282 192 -223 c 1,2,3
 144 -297 144 -297 84 -297 c 0,4,5
 49 -297 49 -297 22 -268.5 c 128,-1,6
 -5 -240 -5 -240 -5 -204 c 0,7,8
 -5 -159 -5 -159 52 -75 c 1,9,10
 25 -82 25 -82 -26 -89 c 1,11,12
 -41 -90 -41 -90 -50 -69 c 128,-1,13
 -59 -48 -59 -48 -59 -27 c 256,14,15
 -59 -6 -59 -6 -51 -6 c 0,16,17
 31 -4 31 -4 158 -8 c 1,18,19
 177 -29 177 -29 174 -46 c 0,20,21
 170 -69 170 -69 142 -90 c 0,22,23
 106 -117 106 -117 95 -133 c 0,24,25
 71 -167 71 -167 72 -226 c 1,26,27
 113 -214 113 -214 150 -159.5 c 128,-1,28
 187 -105 187 -105 187 -105 c 1,29,30
 197 -101 197 -101 212 -125 c 0,31,32
 236 -166 236 -166 245 -176 c 0,33,34
 270 -205 270 -205 301 -207 c 0,35,36
 321 -208 321 -208 336 -172 c 0,37,38
 347 -144 347 -144 347 -122 c 0,39,40
 347 -31 347 -31 288 55 c 0,41,42
 243 120 243 120 180 163 c 0,43,44
 171 169 171 169 171 187 c 0,45,46
 171 211 171 211 193 211 c 0,47,48
 201 211 201 211 212 207 c 0,49,50
 339 157 339 157 396 49 c 0,51,52
 436 -28 436 -28 436 -118 c 0,53,54
 436 -177 436 -177 395 -228 c 0,55,56
 351 -282 351 -282 294 -282 c 0,0,1
EndSplineSet
Ligature2: "'blwf' Below Base Forms in Telugu lookup 1 subtable" CaNukta Halanth
Ligature2: "'blwf' Below Base Forms in Telugu lookup 1 subtable" Ca Halanth
Position2: "Single Positioning lookup 10 subtable" dx=-140 dy=0 dh=-144 dv=0
Position2: "Single Positioning lookup 8 subtable" dx=0 dy=50 dh=0 dv=0
EndChar

StartChar: ChaOttu
Encoding: 65547 -1 151
Width: 446
GlyphClass: 4
Flags: W
LayerCount: 2
Fore
SplineSet
265 -363 m 1,0,1
 247 -377 247 -377 219 -377 c 0,2,3
 209 -377 209 -377 204 -374 c 0,4,5
 193 -366 193 -366 183 -337 c 128,-1,6
 173 -308 173 -308 173 -281 c 0,7,8
 173 -270 173 -270 175 -261 c 1,9,10
 166 -263 166 -263 130 -278 c 0,11,12
 99 -291 99 -291 85 -291 c 0,13,14
 54 -291 54 -291 32 -260 c 0,15,16
 12 -233 12 -233 12 -200 c 0,17,18
 12 -133 12 -133 75 -75 c 1,19,20
 -24 -85 -24 -85 -9 -85 c 1,21,22
 -24 -85 -24 -85 -33 -64 c 0,23,24
 -41 -46 -41 -46 -41 -26 c 0,25,26
 -41 -5 -41 -5 -33 -5 c 0,27,28
 4 -5 4 -5 78 -4 c 1,29,30
 162 -4 162 -4 175 -4 c 1,31,32
 200 -10 200 -10 191 -42 c 0,33,34
 185 -62 185 -62 157 -87 c 0,35,36
 121 -118 121 -118 110 -135 c 0,37,38
 87 -170 87 -170 89 -222 c 1,39,40
 135 -217 135 -217 159 -186 c 0,41,42
 169 -174 169 -174 186 -132 c 0,43,44
 198 -105 198 -105 214 -107 c 0,45,46
 227 -108 227 -108 260.5 -153.5 c 128,-1,47
 294 -199 294 -199 318 -203 c 0,48,49
 362 -210 362 -210 364 -118 c 0,50,51
 367 34 367 34 198 168 c 0,52,53
 187 176 187 176 187 186 c 256,54,55
 187 196 187 196 196.5 203 c 128,-1,56
 206 210 206 210 214 207 c 0,57,58
 450 122 450 122 453 -113 c 0,59,60
 454 -188 454 -188 408.5 -237 c 128,-1,61
 363 -286 363 -286 305 -281 c 0,62,63
 276 -278 276 -278 249 -254 c 1,64,65
 249 -259 249 -259 265 -363 c 1,0,1
EndSplineSet
Ligature2: "'blwf' Below Base Forms in Telugu lookup 1 subtable" Cha Halanth
Position2: "Single Positioning lookup 10 subtable" dx=-140 dy=-9 dh=-126 dv=0
Position2: "Single Positioning lookup 8 subtable" dx=0 dy=55 dh=0 dv=0
EndChar

StartChar: JaOttu
Encoding: 65548 -1 152
Width: 0
GlyphClass: 4
Flags: W
AnchorPoint: "Anchor-1" 93 91 mark 0
LayerCount: 2
Fore
SplineSet
518 -264 m 1,0,1
 487 -294 487 -294 456 -325 c 0,2,3
 401 -378 401 -378 401 -400 c 0,4,5
 401 -408 401 -408 408 -412 c 1,6,7
 448 -412 448 -412 466 -390 c 0,8,9
 470 -385 470 -385 486 -348 c 0,10,11
 496 -325 496 -325 516 -325 c 0,12,13
 537 -325 537 -325 549 -342 c 1,14,15
 549 -368 549 -368 565 -393 c 0,16,17
 583 -421 583 -421 609 -423 c 0,18,19
 676 -429 676 -429 690 -360 c 0,20,21
 693 -346 693 -346 672.5 -321.5 c 128,-1,22
 652 -297 652 -297 652 -294 c 1,23,24
 722 -299 722 -299 738 -303 c 0,25,26
 785 -315 785 -315 785 -351 c 0,27,28
 785 -358 785 -358 784 -365 c 0,29,30
 772 -428 772 -428 716 -463 c 0,31,32
 669 -492 669 -492 609 -492 c 256,33,34
 549 -492 549 -492 506 -438 c 1,35,36
 433 -492 433 -492 401 -492 c 0,37,38
 318 -492 318 -492 318 -415 c 0,39,40
 318 -378 318 -378 391.5 -292.5 c 128,-1,41
 465 -207 465 -207 465 -183 c 0,42,43
 465 -169 465 -169 456.5 -158 c 128,-1,44
 448 -147 448 -147 435 -148 c 0,45,46
 367 -156 367 -156 367 -200 c 0,47,48
 367 -209 367 -209 372 -224 c 128,-1,49
 377 -239 377 -239 377 -246 c 0,50,51
 377 -282 377 -282 341 -282 c 0,52,53
 320 -282 320 -282 301 -263 c 128,-1,54
 282 -244 282 -244 280 -219 c 0,55,56
 277 -155 277 -155 326 -116 c 0,57,58
 371 -81 371 -81 435 -81 c 0,59,60
 497 -81 497 -81 518 -119 c 1,61,62
 528 -154 528 -154 539 -188 c 1,63,64
 553 -225 553 -225 596 -224 c 256,65,66
 639 -223 639 -223 645 -175 c 0,67,68
 648 -155 648 -155 621 -134 c 0,69,70
 605 -122 605 -122 589 -109 c 1,71,72
 584 -100 584 -100 584 -93 c 0,73,74
 584 -80 584 -80 607 -80 c 0,75,76
 614 -80 614 -80 623 -81 c 0,77,78
 664 -86 664 -86 693.5 -114.5 c 128,-1,79
 723 -143 723 -143 723 -180 c 0,80,81
 723 -224 723 -224 682.5 -256 c 128,-1,82
 642 -288 642 -288 597 -288 c 0,83,84
 569 -288 569 -288 518 -264 c 1,0,1
EndSplineSet
Ligature2: "'blwf' Below Base Forms in Telugu lookup 1 subtable" JaNukta Halanth
Ligature2: "'blwf' Below Base Forms in Telugu lookup 1 subtable" Ja Halanth
EndChar

StartChar: JhaOttu
Encoding: 65549 -1 153
Width: 0
GlyphClass: 4
Flags: W
AnchorPoint: "Anchor-1" 128 91 mark 0
LayerCount: 2
Fore
SplineSet
625 -366 m 1,0,1
 558 -428 558 -428 482 -428 c 0,2,3
 401 -428 401 -428 347 -398 c 0,4,5
 280 -361 280 -361 280 -285 c 0,6,7
 280 -202 280 -202 351 -143 c 1,8,9
 418 -86 418 -86 502 -86 c 0,10,11
 573 -86 573 -86 630 -130 c 0,12,13
 691 -177 691 -177 688 -245 c 0,14,15
 688 -260 688 -260 678 -287.5 c 128,-1,16
 668 -315 668 -315 668 -318 c 0,17,18
 668 -328 668 -328 687.5 -336.5 c 128,-1,19
 707 -345 707 -345 719 -342 c 0,20,21
 782 -328 782 -328 776 -270 c 0,22,23
 769 -208 769 -208 754 -182 c 1,24,25
 740 -161 740 -161 688 -122 c 1,26,27
 683 -116 683 -116 683 -110 c 0,28,29
 683 -98 683 -98 704 -98 c 0,30,31
 711 -98 711 -98 719 -99 c 0,32,33
 783 -109 783 -109 819 -169 c 0,34,35
 849 -219 849 -219 849 -280 c 0,36,37
 849 -305 849 -305 843 -323 c 1,38,39
 860 -340 860 -340 878 -340 c 0,40,41
 901 -340 901 -340 918 -314 c 0,42,43
 934 -291 934 -291 933 -264 c 0,44,45
 932 -206 932 -206 913 -179 c 1,46,47
 906 -167 906 -167 858 -123 c 0,48,49
 845 -110 845 -110 845 -99 c 0,50,51
 845 -85 845 -85 864 -85 c 0,52,53
 873 -85 873 -85 885 -89 c 0,54,55
 1009 -137 1009 -137 1011 -269 c 0,56,57
 1012 -321 1012 -321 984 -362 c 0,58,59
 952 -410 952 -410 898 -409 c 0,60,61
 873 -408 873 -408 863 -401 c 0,62,63
 849 -391 849 -391 836 -381 c 1,64,65
 839 -417 839 -417 844 -462 c 0,66,67
 845 -467 845 -467 845 -472 c 0,68,69
 845 -497 845 -497 807 -494 c 0,70,71
 776 -492 776 -492 776 -432 c 0,72,73
 776 -406 776 -406 781 -390 c 1,74,75
 753 -416 753 -416 723 -416 c 0,76,77
 685 -416 685 -416 625 -366 c 1,0,1
365 -273 m 0,78,79
 365 -313 365 -313 395 -336.5 c 128,-1,80
 425 -360 425 -360 467 -360 c 0,81,82
 518 -360 518 -360 561 -330 c 0,83,84
 609 -297 609 -297 609 -248 c 0,85,86
 609 -210 609 -210 578 -180.5 c 128,-1,87
 547 -151 547 -151 508 -151 c 0,88,89
 456 -151 456 -151 412 -186 c 0,90,91
 365 -223 365 -223 365 -273 c 0,78,79
EndSplineSet
Ligature2: "'blwf' Below Base Forms in Telugu lookup 1 subtable" Jha Halanth
EndChar

StartChar: NyaOttu
Encoding: 65550 -1 154
Width: 0
GlyphClass: 4
Flags: W
AnchorPoint: "Anchor-1" -27 47 mark 0
LayerCount: 2
Fore
SplineSet
422 -232 m 1,0,1
 471 -247 471 -247 520 -262 c 1,2,3
 576 -285 576 -285 600 -323 c 1,4,5
 652 -281 652 -281 652 -217 c 0,6,7
 652 -195 652 -195 643 -176 c 0,8,9
 631 -151 631 -151 610 -151 c 0,10,11
 560 -151 560 -151 545 -177 c 0,12,13
 543 -180 543 -180 534 -223 c 1,14,15
 530 -247 530 -247 504 -244 c 0,16,17
 487 -242 487 -242 480 -220 c 0,18,19
 471 -190 471 -190 463 -182 c 0,20,21
 444 -161 444 -161 396 -161 c 0,22,23
 385 -161 385 -161 369 -167 c 0,24,25
 350 -174 350 -174 350 -183 c 1,26,27
 361 -206 361 -206 387 -209 c 0,28,29
 406 -211 406 -211 424 -213 c 1,30,-1
 422 -232 l 1,0,1
599 -84 m 0,31,32
 654 -84 654 -84 695.5 -119 c 128,-1,33
 737 -154 737 -154 735 -208 c 1,34,-1
 756 -209 l 1,35,36
 760 -200 760 -200 759 -168 c 0,37,38
 758 -132 758 -132 760 -123 c 0,39,40
 763 -103 763 -103 788 -103 c 0,41,42
 820 -103 820 -103 820 -155 c 0,43,44
 820 -167 820 -167 818 -185 c 0,45,46
 816 -206 816 -206 816 -208 c 1,47,-1
 872 -208 l 1,48,-1
 872 -276 l 1,49,-1
 722 -276 l 1,50,51
 704 -321 704 -321 635 -387 c 1,52,53
 661 -428 661 -428 684 -428 c 0,54,55
 710 -428 710 -428 725 -423 c 0,56,57
 752 -413 752 -413 804 -377 c 1,58,59
 802 -425 802 -425 762 -460 c 128,-1,60
 722 -495 722 -495 678 -490 c 0,61,62
 607 -481 607 -481 572 -416 c 1,63,64
 532 -438 532 -438 481 -438 c 0,65,66
 426 -438 426 -438 381 -409 c 0,67,68
 330 -376 330 -376 330 -324 c 256,69,70
 330 -272 330 -272 365 -257 c 1,71,72
 280 -232 280 -232 280 -176 c 0,73,74
 280 -145 280 -145 315 -122 c 0,75,76
 346 -101 346 -101 378 -101 c 0,77,78
 461 -101 461 -101 500 -135 c 1,79,80
 526 -84 526 -84 599 -84 c 0,31,32
430 -293 m 0,81,82
 422 -291 422 -291 412.5 -296 c 128,-1,83
 403 -301 403 -301 403 -313 c 0,84,85
 403 -319 403 -319 406 -327 c 0,86,87
 426 -371 426 -371 484 -380 c 0,88,89
 500 -383 500 -383 518.5 -377 c 128,-1,90
 537 -371 537 -371 538 -360 c 1,91,92
 510 -312 510 -312 430 -293 c 0,81,82
EndSplineSet
Ligature2: "'blwf' Below Base Forms in Telugu lookup 1 subtable" Nya Halanth
EndChar

StartChar: TTaOttu
Encoding: 65551 -1 155
Width: 0
GlyphClass: 4
Flags: W
AnchorPoint: "Anchor-1" 15 78 mark 0
LayerCount: 2
Fore
SplineSet
485 -145 m 1,0,1
 479 -138 479 -138 463 -138 c 0,2,3
 440 -138 440 -138 421 -150 c 1,4,5
 398 -163 398 -163 397 -184 c 1,6,7
 404 -198 404 -198 424 -198 c 0,8,9
 446 -198 446 -198 466.5 -184 c 128,-1,10
 487 -170 487 -170 487 -153 c 0,11,12
 487 -149 487 -149 485 -145 c 1,0,1
498 -346 m 1,13,14
 435 -405 435 -405 391 -405 c 0,15,16
 272 -405 272 -405 280 -266 c 0,17,18
 285 -194 285 -194 346 -143 c 128,-1,19
 407 -92 407 -92 476 -92 c 0,20,21
 550 -92 550 -92 550 -156 c 0,22,23
 550 -219 550 -219 435 -242 c 0,24,25
 393 -250 393 -250 372 -226 c 1,26,27
 352 -237 352 -237 352 -281 c 0,28,29
 352 -345 352 -345 392 -340 c 0,30,31
 431 -335 431 -335 452 -309 c 0,32,33
 463 -295 463 -295 477 -257 c 1,34,35
 495 -240 495 -240 520 -240 c 0,36,37
 538 -240 538 -240 543 -264 c 128,-1,38
 548 -288 548 -288 553 -311 c 1,39,40
 563 -336 563 -336 593 -336 c 0,41,42
 626 -336 626 -336 650.5 -305 c 128,-1,43
 675 -274 675 -274 675 -242 c 0,44,45
 675 -197 675 -197 652 -171 c 0,46,47
 641 -158 641 -158 610 -141 c 0,48,49
 586 -128 586 -128 583 -115 c 0,50,51
 581 -103 581 -103 592 -96 c 128,-1,52
 603 -89 603 -89 618 -91 c 0,53,54
 679 -98 679 -98 715.5 -141.5 c 128,-1,55
 752 -185 752 -185 752 -244 c 0,56,57
 752 -309 752 -309 700.5 -357.5 c 128,-1,58
 649 -406 649 -406 591 -404 c 0,59,60
 563 -403 563 -403 535 -386.5 c 128,-1,61
 507 -370 507 -370 498 -346 c 1,13,14
EndSplineSet
Ligature2: "'blwf' Below Base Forms in Telugu lookup 1 subtable" Lla Halanth
EndChar

StartChar: TTHaOttu
Encoding: 65552 -1 156
Width: 0
GlyphClass: 4
Flags: W
AnchorPoint: "Anchor-1" -13 91 mark 0
LayerCount: 2
Fore
SplineSet
469 -473 m 0,0,1
 390 -475 390 -475 338 -436 c 1,2,3
 280 -394 280 -394 280 -319 c 0,4,5
 280 -230 280 -230 363 -160 c 0,6,7
 442 -94 442 -94 533 -94 c 0,8,9
 613 -94 613 -94 669 -149.5 c 128,-1,10
 725 -205 725 -205 725 -284 c 0,11,12
 725 -369 725 -369 637 -424 c 0,13,14
 563 -470 563 -470 469 -473 c 0,0,1
365 -303 m 0,15,16
 364 -339 364 -339 394.5 -372.5 c 128,-1,17
 425 -406 425 -406 465 -406 c 0,18,19
 537 -405 537 -405 583 -375 c 0,20,21
 636 -340 636 -340 636 -272 c 0,22,23
 636 -228 636 -228 607 -195.5 c 128,-1,24
 578 -163 578 -163 535 -163 c 0,25,26
 475 -163 475 -163 423 -202 c 0,27,28
 367 -244 367 -244 365 -303 c 0,15,16
483 -336 m 0,29,30
 432 -336 432 -336 432 -294 c 0,31,32
 432 -249 432 -249 502 -237 c 0,33,34
 509 -236 509 -236 516 -236 c 0,35,36
 566 -236 566 -236 561 -283 c 0,37,38
 559 -308 559 -308 534.5 -322 c 128,-1,39
 510 -336 510 -336 483 -336 c 0,29,30
EndSplineSet
Ligature2: "'blwf' Below Base Forms in Telugu lookup 1 subtable" TTha Halanth
EndChar

